{"glyphs":{"0":{"ha":758,"x_min":60,"x_max":742,"o":"m 318 -15 q 183 18 242 -15 q 92 119 125 51 q 60 288 60 188 q 78 474 60 383 q 134 644 97 565 q 223 783 171 724 q 341 877 275 843 q 486 911 407 911 q 622 878 565 911 q 710 777 679 844 q 742 607 742 710 q 722 419 742 511 q 666 249 703 328 q 577 110 629 169 q 460 17 525 50 q 318 -15 394 -15 m 328 54 q 400 76 365 54 q 465 137 435 97 q 519 229 494 176 q 563 345 544 282 q 590 477 581 408 q 600 615 600 546 q 585 747 600 697 q 542 818 569 796 q 476 840 515 840 q 404 819 439 840 q 339 758 369 797 q 283 666 308 718 q 240 551 258 614 q 212 421 222 489 q 201 283 201 353 q 216 149 201 200 q 259 76 231 99 q 328 54 288 54 z "},"1":{"ha":758,"x_min":58,"x_max":615,"o":"m 58 0 l 71 69 l 303 81 l 372 81 l 615 69 l 603 0 l 58 0 m 254 0 l 422 828 l 467 776 l 225 754 l 239 822 l 550 901 l 581 894 l 538 693 l 456 296 q 436 197 446 247 q 417 98 426 147 q 397 0 408 49 l 254 0 z "},"2":{"ha":758,"x_min":38,"x_max":721,"o":"m 38 0 l 58 99 l 265 283 q 415 419 356 361 q 512 524 475 478 q 565 608 549 569 q 581 685 581 646 q 562 772 581 738 q 508 825 543 807 q 421 843 472 843 q 356 836 386 843 q 303 817 326 829 q 263 789 279 806 l 321 867 l 310 724 q 282 646 304 667 q 229 625 260 625 q 182 642 200 625 q 160 686 164 660 q 217 813 176 764 q 318 888 257 863 q 458 913 379 913 q 598 885 539 913 q 689 809 657 858 q 721 693 721 760 q 699 589 721 636 q 631 495 676 542 q 519 395 586 449 q 361 274 451 342 l 150 114 l 164 150 l 164 122 l 647 122 l 621 0 l 38 0 z "},"3":{"ha":758,"x_min":65,"x_max":719,"o":"m 325 -18 q 188 6 244 -18 q 100 81 131 31 q 67 206 69 131 q 92 247 75 233 q 135 260 108 260 q 188 237 169 258 q 207 169 207 215 l 208 36 l 147 94 q 221 61 182 72 q 314 50 260 50 q 423 74 376 50 q 496 144 469 99 q 522 254 522 190 q 501 346 522 308 q 438 403 479 383 q 333 422 396 422 l 297 422 l 313 499 l 358 499 q 472 521 421 499 q 552 588 522 543 q 582 696 582 632 q 562 781 582 747 q 506 829 542 814 q 426 844 471 844 q 376 841 399 844 q 333 831 353 838 q 296 815 314 824 l 339 868 l 325 740 q 300 675 319 696 q 249 654 281 654 q 204 669 222 654 q 179 704 186 683 q 228 816 192 769 q 324 888 264 863 q 465 913 383 913 q 602 886 546 913 q 689 814 658 860 q 719 706 719 768 q 683 585 719 636 q 581 502 647 533 q 428 460 515 471 l 429 460 q 558 427 504 453 q 640 356 611 401 q 668 242 668 311 q 623 101 668 160 q 500 13 578 43 q 325 -18 422 -18 z "},"4":{"ha":758,"x_min":31,"x_max":728,"o":"m 379 -19 l 436 258 l 443 285 l 546 778 l 503 778 l 575 808 l 340 546 l 97 297 l 119 365 l 118 317 l 728 317 l 710 222 l 31 222 l 46 313 l 586 894 l 700 894 l 513 -19 l 379 -19 z "},"5":{"ha":758,"x_min":58,"x_max":747,"o":"m 314 -18 q 176 8 231 -18 q 93 83 122 35 q 58 197 64 132 q 85 238 67 222 q 129 253 103 253 q 183 232 165 253 q 204 158 200 211 l 213 28 l 168 78 q 205 62 186 68 q 247 52 224 56 q 299 49 269 49 q 417 77 365 49 q 497 159 468 106 q 526 286 526 213 q 506 388 526 346 q 446 452 485 431 q 353 474 407 474 q 272 465 306 474 q 218 443 239 457 l 176 464 l 281 894 l 747 894 l 721 771 l 286 771 l 336 843 l 251 493 l 240 493 q 292 522 265 511 q 349 540 319 533 q 410 546 378 546 q 547 517 488 546 q 640 432 607 488 q 674 296 674 376 q 628 132 675 203 q 499 22 581 61 q 314 -18 418 -18 z "},"6":{"ha":758,"x_min":89,"x_max":776,"o":"m 372 -18 q 223 18 286 -18 q 124 126 160 54 q 89 301 89 197 q 138 535 89 426 q 279 726 188 643 q 497 856 371 808 q 775 911 622 904 l 778 853 q 541 788 643 836 q 371 666 439 740 q 267 497 303 592 q 232 294 232 403 q 251 156 232 210 q 305 76 269 101 q 389 50 340 50 q 456 65 425 50 q 511 110 488 81 q 548 184 535 140 q 561 281 561 228 q 522 412 561 371 q 408 453 483 453 q 308 438 354 453 q 218 388 263 424 l 208 442 l 246 439 q 353 513 299 488 q 479 539 407 539 q 595 510 546 539 q 673 428 644 481 q 701 301 701 375 q 675 169 701 228 q 602 68 649 110 q 497 4 556 26 q 372 -18 438 -18 z "},"7":{"ha":758,"x_min":100,"x_max":772,"o":"m 106 0 l 100 26 l 671 781 l 671 774 l 160 774 l 185 894 l 774 894 l 756 807 l 253 0 l 106 0 z "},"8":{"ha":758,"x_min":75,"x_max":721,"o":"m 347 -17 q 203 7 264 -17 q 109 76 142 31 q 76 183 76 122 q 106 295 76 246 q 192 381 136 344 q 326 438 249 418 l 342 461 l 372 426 q 271 359 310 394 q 214 283 232 324 q 196 196 196 242 q 215 116 196 149 q 269 66 233 83 q 358 49 306 49 q 449 67 410 49 q 511 119 489 85 q 533 200 533 154 q 518 272 533 242 q 465 333 503 301 q 360 407 428 364 q 260 485 301 446 q 197 569 218 525 q 175 663 175 613 q 213 792 175 735 q 318 881 251 849 q 469 913 385 913 q 606 885 550 913 q 692 814 663 858 q 721 718 721 769 q 696 613 722 658 q 616 535 669 568 q 482 474 563 501 l 464 450 l 432 483 q 530 552 493 518 q 584 625 567 586 q 601 710 601 664 q 585 781 601 750 q 539 828 569 811 q 461 846 508 846 q 378 826 414 846 q 322 773 342 807 q 303 693 303 739 q 319 624 303 656 q 371 562 335 593 q 469 490 407 531 q 580 411 536 450 q 646 330 624 372 q 668 232 668 288 q 626 102 668 158 q 511 15 583 46 q 347 -17 439 -17 z "},"9":{"ha":758,"x_min":71,"x_max":733,"o":"m 69 40 q 299 121 201 68 q 463 246 397 174 q 561 409 529 318 q 594 604 593 500 q 576 738 594 685 q 524 817 558 790 q 442 843 490 843 q 371 826 404 843 q 313 779 338 810 q 274 708 288 749 q 260 619 260 668 q 282 515 260 556 q 346 456 304 475 q 443 436 388 436 q 528 450 489 436 q 604 489 567 464 l 613 435 l 576 439 q 481 379 531 401 q 368 357 431 357 q 244 386 300 357 q 156 469 189 415 q 122 597 122 522 q 148 726 122 668 q 219 825 174 783 q 326 889 265 867 q 453 911 386 911 q 601 875 538 911 q 699 769 664 839 q 733 600 733 700 q 688 375 733 479 q 556 189 642 271 q 349 53 471 107 q 76 -22 228 -1 l 69 40 z "}," ":{"ha":311,"x_min":0,"x_max":0,"o":""}," ":{"ha":311,"x_min":0,"x_max":0,"o":""},"A":{"ha":957,"x_min":-43,"x_max":894,"o":"m -43 0 l -29 74 l 113 85 l 146 85 l 286 74 l 272 0 l -43 0 m 35 0 l 540 926 l 656 926 l 792 0 l 636 0 l 531 810 l 533 810 l 482 682 l 125 0 l 35 0 m 267 319 l 279 392 l 664 392 l 658 319 l 267 319 m 492 0 l 504 74 l 675 85 l 736 85 l 894 74 l 881 0 l 492 0 z "},"B":{"ha":874,"x_min":4,"x_max":818,"o":"m 4 0 l 18 74 l 182 85 l 199 85 l 192 0 l 4 0 m 122 0 l 214 499 q 252 713 233 606 q 289 926 271 819 l 442 926 l 350 429 q 311 215 331 322 q 274 0 292 107 l 122 0 m 151 851 l 164 926 l 346 926 l 338 842 l 318 842 l 151 851 m 207 0 l 213 76 l 397 76 q 540 103 485 76 q 622 177 596 131 q 649 281 649 224 q 598 404 649 360 q 450 449 547 449 l 285 449 l 292 519 l 443 519 q 572 544 522 519 q 647 610 622 568 q 671 703 671 651 q 653 780 671 747 q 599 831 635 813 q 508 849 563 849 l 367 849 l 372 926 l 526 926 q 688 901 624 926 q 785 829 753 875 q 818 722 818 783 q 775 597 818 650 q 658 516 732 544 q 489 486 583 488 l 501 483 q 666 456 599 483 q 769 381 733 429 q 804 269 804 333 q 778 162 804 211 q 701 76 751 113 q 576 20 650 40 q 407 0 501 0 l 207 0 z "},"C":{"ha":856,"x_min":71,"x_max":857,"o":"m 478 -22 q 260 26 351 -22 q 120 165 169 75 q 71 383 71 256 q 97 563 71 478 q 172 717 124 647 q 286 840 219 788 q 435 920 353 892 q 608 949 517 949 q 708 940 663 949 q 791 915 753 931 q 857 883 829 900 l 824 678 l 735 678 l 731 875 l 793 814 q 714 853 761 838 q 611 868 667 868 q 485 844 543 868 q 378 774 426 819 q 297 669 331 729 q 244 536 263 608 q 226 383 226 464 q 263 203 226 276 q 365 94 300 131 q 518 57 431 57 q 610 69 567 57 q 693 100 653 81 l 611 40 l 681 250 l 772 250 l 738 36 q 630 -3 693 15 q 478 -22 567 -22 z "},"D":{"ha":982,"x_min":4,"x_max":958,"o":"m 4 0 l 18 74 l 181 85 l 199 85 l 192 0 l 4 0 m 122 0 l 214 499 q 252 713 233 606 q 289 926 271 819 l 442 926 l 350 429 q 311 215 331 322 q 274 0 292 107 l 122 0 m 151 851 l 164 926 l 347 926 l 340 842 l 318 842 l 151 851 m 208 0 l 214 76 l 407 76 q 577 117 504 76 q 699 224 650 157 q 774 374 749 290 q 799 543 799 457 q 724 772 799 696 q 503 849 649 849 l 360 849 l 367 926 l 542 926 q 765 881 671 926 q 908 749 858 835 q 958 540 958 664 q 917 324 958 422 q 803 152 876 225 q 627 40 729 79 q 403 0 525 0 l 208 0 z "},"E":{"ha":838,"x_min":4,"x_max":835,"o":"m 4 0 l 18 74 l 182 85 l 199 85 l 192 0 l 4 0 m 122 0 l 214 499 q 252 713 233 606 q 289 926 271 819 l 442 926 l 350 429 q 311 215 331 322 q 274 0 292 107 l 122 0 m 151 851 l 164 926 l 346 926 l 338 842 l 318 842 l 151 851 m 215 0 l 222 79 l 688 79 l 592 13 l 688 251 l 772 251 l 718 0 l 215 0 m 285 436 l 292 511 l 594 511 l 588 436 l 285 436 m 364 846 l 371 926 l 835 926 l 799 681 l 713 681 l 710 903 l 763 846 l 364 846 m 535 313 l 536 460 l 540 490 l 593 635 l 667 635 l 607 313 l 535 313 z "},"F":{"ha":796,"x_min":4,"x_max":843,"o":"m 4 0 l 18 74 l 194 85 l 239 85 l 431 74 l 417 0 l 4 0 m 122 0 l 214 499 q 252 713 233 606 q 289 926 271 819 l 442 926 l 350 429 q 311 215 331 322 q 274 0 292 107 l 122 0 m 151 851 l 164 926 l 346 926 l 338 842 l 318 842 l 151 851 m 285 433 l 292 508 l 594 508 l 588 433 l 285 433 m 364 846 l 371 926 l 843 926 l 804 681 l 718 681 l 715 903 l 771 846 l 364 846 m 535 304 l 536 457 l 540 489 l 593 632 l 667 632 l 607 304 l 535 304 z "},"G":{"ha":933,"x_min":71,"x_max":929,"o":"m 71 379 q 97 563 71 476 q 172 719 124 649 q 287 842 219 790 q 437 921 354 893 q 611 949 519 949 q 717 940 669 949 q 806 917 765 932 q 878 883 846 903 l 846 676 l 758 676 l 751 875 l 821 817 q 735 855 786 842 q 619 868 683 868 q 487 844 547 868 q 378 774 426 819 q 296 669 329 729 q 244 538 263 610 q 226 388 226 465 q 265 206 226 279 q 371 94 303 132 q 526 56 439 56 q 618 65 578 56 q 703 90 658 75 l 617 35 l 633 128 q 660 288 647 207 q 686 447 674 368 l 832 447 l 758 39 q 641 -4 707 14 q 486 -22 575 -22 q 265 26 358 -22 q 122 165 172 75 q 71 379 71 256 m 536 374 l 550 447 l 929 447 l 915 374 l 767 363 l 707 363 l 536 374 z "},"H":{"ha":1076,"x_min":4,"x_max":1117,"o":"m 4 0 l 19 74 l 196 85 l 238 85 l 413 74 l 399 0 l 4 0 m 122 0 l 214 499 q 252 713 233 606 q 289 926 271 819 l 442 926 l 350 429 q 311 215 331 322 q 274 0 292 107 l 122 0 m 151 851 l 164 926 l 557 926 l 544 851 l 371 842 l 328 842 l 151 851 m 279 436 l 279 511 l 844 511 l 844 436 l 279 436 m 565 0 l 578 74 l 754 85 l 797 85 l 972 74 l 958 0 l 565 0 m 681 0 l 772 499 q 810 713 792 606 q 847 926 829 819 l 1000 926 l 908 429 q 870 215 889 322 q 833 0 851 107 l 681 0 m 711 851 l 724 926 l 1117 926 l 1104 851 l 929 842 l 886 842 l 711 851 z "},"I":{"ha":517,"x_min":4,"x_max":558,"o":"m 4 0 l 18 74 l 194 85 l 238 85 l 413 74 l 399 0 l 4 0 m 122 0 l 214 499 q 252 713 233 606 q 289 926 271 819 l 442 926 l 350 429 q 311 215 331 322 q 274 0 292 107 l 122 0 m 151 851 l 164 926 l 558 926 l 544 851 l 371 842 l 328 842 l 151 851 z "},"J":{"ha":507,"x_min":-150,"x_max":575,"o":"m -150 -114 q -119 -65 -144 -85 q -53 -46 -93 -46 q -11 -54 -31 -46 q 31 -82 8 -62 q 85 -136 54 -101 l 61 -132 l 78 -132 l 60 -132 q 99 -77 82 -107 q 131 -9 117 -47 q 154 78 144 29 q 169 155 161 115 q 183 239 176 194 q 199 336 190 283 q 218 453 207 389 q 260 685 239 568 q 301 926 282 801 l 456 926 l 344 350 q 324 242 333 292 q 306 153 315 193 q 285 81 296 114 q 258 18 274 47 q 192 -84 232 -36 q 100 -161 151 -132 q -14 -190 49 -190 q -108 -170 -71 -190 q -150 -114 -144 -150 m 150 851 l 164 926 l 575 926 l 561 851 l 383 842 l 339 842 l 150 851 z "},"K":{"ha":965,"x_min":4,"x_max":1018,"o":"m 4 0 l 17 74 l 193 85 l 236 85 l 404 74 l 390 0 l 4 0 m 121 0 l 213 499 q 251 713 232 606 q 288 926 269 819 l 440 926 l 349 429 q 310 215 329 322 q 274 0 292 107 l 121 0 m 150 851 l 164 926 l 550 926 l 536 851 l 369 842 l 326 842 l 150 851 m 267 308 l 263 414 l 318 414 l 393 493 l 871 926 l 975 926 l 267 308 m 692 0 l 438 493 l 544 589 l 857 0 l 692 0 m 535 0 l 547 74 l 707 85 l 761 85 l 921 74 l 910 0 l 535 0 m 675 851 l 688 926 l 1018 926 l 1003 851 l 854 842 l 808 842 l 675 851 z "},"L":{"ha":811,"x_min":4,"x_max":761,"o":"m 4 0 l 18 74 l 181 85 l 199 85 l 192 0 l 4 0 m 122 0 l 214 499 q 252 713 233 606 q 289 926 271 819 l 442 926 l 350 429 q 311 215 331 322 q 274 0 292 107 l 122 0 m 151 851 l 164 926 l 572 926 l 558 851 l 376 842 l 326 842 l 151 851 m 215 0 l 222 79 l 675 79 l 574 13 l 674 274 l 761 274 l 707 0 l 215 0 z "},"M":{"ha":1292,"x_min":-19,"x_max":1306,"o":"m -19 0 l -6 74 l 139 85 l 176 85 l 335 74 l 321 0 l -19 0 m 101 0 l 315 911 l 385 911 l 285 438 l 185 0 l 101 0 m 500 0 l 357 800 l 336 808 l 333 843 l 181 851 l 194 926 l 490 926 l 618 157 l 604 157 l 697 351 l 1019 926 l 1090 926 l 1090 822 l 1036 822 l 943 636 l 583 0 l 500 0 m 792 0 l 803 75 l 981 85 l 1018 85 l 1196 75 l 1185 0 l 792 0 m 910 0 l 1033 872 l 1064 926 l 1185 926 l 1118 438 q 1088 219 1103 329 q 1061 0 1074 108 l 910 0 m 1103 842 l 1104 926 l 1306 926 l 1294 851 l 1129 842 l 1103 842 z "},"N":{"ha":1026,"x_min":-3,"x_max":1097,"o":"m -3 0 l 11 74 l 156 85 l 188 85 l 354 74 l 342 0 l -3 0 m 113 0 l 283 913 l 354 913 l 276 431 l 199 0 l 113 0 m 739 851 l 753 926 l 1097 926 l 1085 851 l 943 842 l 911 842 l 739 851 m 822 182 l 767 101 l 822 507 l 899 926 l 983 926 l 813 -6 l 707 -6 l 326 789 l 303 794 l 293 844 l 147 851 l 161 926 l 429 926 l 778 182 l 822 182 z "},"O":{"ha":943,"x_min":78,"x_max":924,"o":"m 422 -22 q 242 22 319 -22 q 121 149 164 65 q 78 353 78 233 q 101 535 78 447 q 168 697 124 622 q 274 828 213 772 q 413 917 336 885 q 576 949 489 949 q 758 904 681 949 q 880 776 836 860 q 924 574 924 693 q 900 392 924 479 q 832 228 876 304 q 726 97 788 153 q 588 9 664 40 q 422 -22 511 -22 m 436 57 q 528 77 485 57 q 608 133 572 97 q 674 217 644 168 q 724 325 704 265 q 756 452 744 385 q 767 590 767 519 q 744 743 767 681 q 677 837 722 806 q 564 868 632 868 q 472 849 515 868 q 392 794 429 829 q 326 710 354 758 q 276 602 297 661 q 244 476 256 543 q 233 338 233 408 q 256 185 233 247 q 323 90 278 122 q 436 57 368 57 z "},"P":{"ha":808,"x_min":4,"x_max":826,"o":"m 4 0 l 18 74 l 194 85 l 239 85 l 428 74 l 415 0 l 4 0 m 122 0 l 214 499 q 252 713 233 606 q 289 926 271 819 l 442 926 l 350 429 q 311 215 331 322 q 274 0 292 107 l 122 0 m 151 851 l 164 926 l 364 926 l 356 842 l 326 842 l 151 851 m 265 356 l 272 429 l 419 429 q 560 460 504 429 q 645 545 617 490 q 674 671 674 600 q 624 803 674 758 q 481 849 575 849 l 374 849 l 381 926 l 496 926 q 679 895 606 926 q 790 808 753 864 q 826 676 826 753 q 780 515 826 588 q 643 399 733 442 q 421 356 553 356 l 265 356 z "},"Q":{"ha":943,"x_min":78,"x_max":924,"o":"m 657 -328 q 478 -287 553 -328 q 364 -166 403 -246 q 333 31 325 -86 l 472 31 q 492 -115 465 -57 q 571 -202 518 -174 q 697 -231 624 -231 q 792 -219 753 -231 q 865 -192 832 -208 l 890 -246 q 788 -305 843 -282 q 657 -328 733 -328 m 422 -22 q 242 22 319 -22 q 121 149 164 65 q 78 353 78 233 q 101 535 78 447 q 168 697 124 622 q 274 828 213 772 q 413 917 336 885 q 576 949 489 949 q 758 904 681 949 q 880 776 836 860 q 924 574 924 693 q 900 392 924 479 q 832 228 876 304 q 726 97 788 153 q 588 9 664 40 q 422 -22 511 -22 m 436 57 q 528 77 485 57 q 608 133 572 97 q 674 217 644 168 q 724 325 704 265 q 756 452 744 385 q 767 590 767 519 q 744 743 767 681 q 677 837 722 806 q 564 868 632 868 q 472 849 515 868 q 392 794 429 829 q 326 710 354 758 q 276 602 297 661 q 244 476 256 543 q 233 338 233 408 q 256 185 233 247 q 323 90 278 122 q 436 57 368 57 z "},"R":{"ha":913,"x_min":4,"x_max":886,"o":"m 4 0 l 18 74 l 194 85 l 236 85 l 424 74 l 411 0 l 4 0 m 122 0 l 214 499 q 252 713 233 606 q 289 926 271 819 l 442 926 l 350 429 q 311 215 331 322 q 274 0 292 107 l 122 0 m 151 851 l 164 926 l 367 926 l 361 842 l 326 842 l 151 851 m 763 -14 q 681 -1 715 -14 q 626 40 647 11 q 590 115 604 68 l 533 301 q 504 374 519 347 q 465 413 489 401 q 403 425 442 425 l 285 425 l 290 497 l 449 497 q 586 524 533 497 q 664 597 639 551 q 689 701 689 643 q 647 811 689 774 q 521 849 604 849 l 372 849 l 376 926 l 539 926 q 762 869 681 926 q 843 707 843 811 q 820 608 843 653 q 753 529 797 563 q 642 476 708 496 q 490 453 576 457 l 485 453 q 566 436 533 449 q 622 403 599 424 q 660 353 644 383 q 692 278 676 322 l 768 46 l 661 94 l 886 71 l 874 0 q 844 -6 860 -3 q 808 -12 828 -10 q 763 -14 789 -14 z "},"S":{"ha":706,"x_min":36,"x_max":706,"o":"m 36 38 l 63 251 l 153 251 l 168 42 l 99 103 q 187 69 139 82 q 292 57 235 57 q 399 77 356 57 q 463 133 442 97 q 483 213 483 168 q 472 275 483 246 q 429 336 460 304 q 344 407 399 368 q 239 496 282 453 q 174 585 196 539 q 151 688 151 632 q 193 826 151 767 q 306 917 235 885 q 467 949 376 949 q 551 942 510 949 q 632 922 593 935 q 706 889 671 908 l 678 686 l 586 686 l 574 888 l 642 825 q 565 858 604 847 q 479 868 525 868 q 376 851 418 868 q 312 803 333 835 q 290 728 290 772 q 304 661 290 692 q 349 601 318 631 q 426 538 379 572 q 537 446 493 489 q 603 357 581 403 q 625 254 625 311 q 583 108 625 169 q 466 12 540 46 q 294 -22 392 -22 q 196 -15 244 -22 q 106 6 147 -7 q 36 38 65 19 z "},"T":{"ha":831,"x_min":93,"x_max":900,"o":"m 93 669 l 147 926 l 900 926 l 860 669 l 774 669 l 772 903 l 828 846 l 181 846 l 276 913 l 179 669 l 93 669 m 144 0 l 158 74 l 350 85 l 396 85 l 588 74 l 574 0 l 144 0 m 279 0 l 371 499 q 409 713 390 606 q 446 926 428 819 l 599 926 l 507 429 q 469 215 488 322 q 432 0 450 107 l 279 0 z "},"U":{"ha":999,"x_min":131,"x_max":1079,"o":"m 307 842 l 131 851 l 144 926 l 542 926 l 528 851 l 350 842 l 307 842 m 457 -22 q 293 11 360 -22 q 192 106 226 44 q 158 251 158 167 q 163 324 158 288 q 175 403 168 361 l 193 500 q 219 642 207 572 q 244 784 232 713 q 268 926 257 856 l 421 926 l 325 400 q 313 328 318 361 q 308 254 308 296 q 328 163 308 203 q 390 99 349 122 q 492 76 431 76 q 629 108 574 76 q 722 211 685 140 q 779 396 758 282 l 876 926 l 963 926 l 863 381 q 785 156 838 246 q 651 22 732 67 q 457 -22 569 -22 m 885 842 l 726 851 l 740 926 l 1079 926 l 1065 851 l 921 842 l 885 842 z "},"V":{"ha":910,"x_min":100,"x_max":1019,"o":"m 100 851 l 114 926 l 499 926 l 486 853 l 319 842 l 253 842 l 100 851 m 329 -6 l 190 926 l 349 926 l 449 124 l 444 124 l 519 307 l 849 926 l 942 926 l 435 -6 l 329 -6 m 690 853 l 704 926 l 1019 926 l 1007 851 l 868 842 l 838 842 l 690 853 z "},"W":{"ha":1285,"x_min":100,"x_max":1396,"o":"m 250 842 l 100 851 l 115 926 l 479 926 l 465 851 l 313 842 l 250 842 m 274 -6 l 192 926 l 349 926 l 392 140 l 389 140 l 449 319 l 728 926 l 835 926 l 906 140 l 904 140 l 961 318 l 1226 926 l 1317 926 l 894 -6 l 786 -6 l 710 765 l 722 765 l 663 597 l 381 -6 l 274 -6 m 742 842 l 575 851 l 590 926 l 965 926 l 951 851 l 788 842 l 742 842 m 1213 842 l 1082 851 l 1097 926 l 1396 926 l 1381 851 l 1246 842 l 1213 842 z "},"X":{"ha":924,"x_min":-15,"x_max":985,"o":"m -15 0 l -1 74 l 146 85 l 183 85 l 326 74 l 313 0 l -15 0 m 43 0 l 449 490 l 508 413 l 454 413 l 394 318 l 143 0 l 43 0 m 143 851 l 157 926 l 538 926 l 524 851 l 354 842 l 306 842 l 143 851 m 461 0 l 474 74 l 651 85 l 699 85 l 865 74 l 851 0 l 461 0 m 533 451 l 476 531 l 529 531 l 585 622 l 826 926 l 925 926 l 533 451 m 644 851 l 658 926 l 985 926 l 971 851 l 825 842 l 785 842 l 644 851 m 622 0 l 213 926 l 371 926 l 781 0 l 622 0 z "},"Y":{"ha":832,"x_min":92,"x_max":943,"o":"m 92 851 l 106 926 l 490 926 l 476 851 l 310 842 l 261 842 l 92 851 m 154 0 l 168 74 l 361 85 l 406 85 l 597 74 l 583 0 l 154 0 m 368 347 l 171 926 l 335 926 l 483 436 l 481 436 l 543 550 l 785 926 l 875 926 l 489 347 l 368 347 m 289 0 l 369 432 l 518 432 q 492 288 506 360 q 467 144 479 215 q 442 0 454 72 l 289 0 m 615 851 l 629 926 l 943 926 l 931 851 l 799 842 l 757 842 l 615 851 z "},"Z":{"ha":783,"x_min":1,"x_max":828,"o":"m 1 0 l 15 67 l 664 882 l 636 815 l 639 857 l 438 849 l 214 849 l 294 897 l 204 671 l 115 671 l 165 926 l 828 926 l 815 858 l 164 44 l 190 108 l 189 69 l 408 76 l 640 76 l 558 29 l 651 256 l 740 256 l 686 0 l 1 0 z "},"a":{"ha":789,"x_min":50,"x_max":783,"o":"m 200 -18 q 126 -1 160 -18 q 71 57 92 17 q 50 163 50 97 q 78 318 50 240 q 153 465 106 396 q 258 588 200 533 q 380 672 317 642 q 503 703 443 703 q 561 691 538 703 q 605 657 585 679 q 646 603 625 635 l 592 551 q 533 597 564 581 q 464 613 501 613 q 406 599 435 613 q 349 564 376 586 q 297 511 321 542 q 244 428 267 475 q 208 328 221 381 q 196 222 196 275 q 215 124 196 156 q 275 93 235 93 q 333 108 301 93 q 405 160 364 122 q 503 264 446 197 l 506 186 l 475 186 q 390 79 435 125 q 297 8 344 33 q 200 -18 250 -18 m 554 -18 q 478 8 506 -18 q 451 88 451 33 q 453 123 451 107 q 459 155 456 139 q 465 185 463 171 l 454 188 l 554 633 l 575 636 l 665 721 l 714 715 l 600 214 q 588 160 593 182 q 583 124 583 139 q 592 97 583 107 q 619 86 601 86 q 672 110 644 86 q 738 192 700 135 l 783 160 q 720 69 756 110 q 643 6 685 29 q 554 -18 601 -18 z "},"b":{"ha":747,"x_min":92,"x_max":719,"o":"m 249 -18 q 183 -8 213 -18 q 133 20 154 1 q 102 67 113 39 q 92 131 92 94 q 102 230 92 176 q 126 346 113 283 l 244 925 l 286 885 l 104 904 l 115 961 l 363 1022 l 400 1008 l 281 476 l 290 467 l 260 319 q 246 253 251 282 q 238 201 240 225 q 235 154 235 178 q 255 94 235 115 q 314 72 275 72 q 401 100 363 72 q 475 172 440 128 q 525 252 503 206 q 562 353 547 299 q 576 464 576 407 q 557 561 576 529 q 499 593 538 593 q 430 573 467 593 q 350 508 393 553 q 257 390 307 463 l 246 469 l 278 469 q 367 597 317 544 q 470 676 417 649 q 572 703 524 703 q 649 683 617 703 q 701 622 682 664 q 719 514 719 581 q 692 357 719 435 q 618 212 665 279 q 510 92 571 144 q 383 11 450 40 q 249 -18 315 -18 z "},"c":{"ha":622,"x_min":60,"x_max":621,"o":"m 294 -18 q 172 13 225 -18 q 90 103 119 43 q 60 250 60 163 q 92 424 60 342 q 180 569 125 506 q 303 667 235 632 q 444 703 372 703 q 532 690 496 703 q 590 653 568 676 q 621 600 613 631 q 597 551 617 571 q 544 532 578 532 q 494 549 517 532 q 450 597 472 565 l 394 672 l 468 672 l 468 650 l 424 650 q 345 603 385 638 q 272 517 306 569 q 219 403 239 465 q 200 275 200 342 q 242 136 200 181 q 350 92 283 92 q 421 107 389 92 q 480 147 453 122 q 531 201 507 172 l 574 167 q 524 97 553 131 q 458 37 494 63 q 381 -3 422 11 q 294 -18 340 -18 z "},"d":{"ha":793,"x_min":51,"x_max":788,"o":"m 199 -18 q 124 0 157 -18 q 71 59 90 18 q 51 167 51 100 q 78 321 51 244 q 151 466 106 397 q 256 588 197 535 q 377 672 314 642 q 501 703 440 703 q 555 694 532 703 q 599 666 578 685 q 643 617 619 647 l 585 550 q 528 598 557 583 q 464 613 499 613 q 401 599 432 613 q 342 563 369 586 q 292 508 315 539 q 253 449 271 482 q 222 378 235 415 q 203 301 210 340 q 196 225 196 263 q 217 125 196 157 q 276 93 238 93 q 335 108 304 93 q 406 160 365 122 q 501 264 447 197 l 511 186 l 475 186 q 391 79 436 125 q 297 8 346 33 q 199 -18 249 -18 m 558 -18 q 482 8 510 -18 q 454 86 454 35 q 457 126 454 106 q 464 175 460 146 l 454 181 l 546 619 l 560 642 l 618 929 l 651 885 l 468 904 l 479 961 l 728 1022 l 767 1008 l 603 213 q 592 158 596 179 q 589 122 589 138 q 598 96 589 106 q 624 86 607 86 q 677 110 649 86 q 742 192 706 135 l 788 160 q 726 69 761 110 q 649 6 690 29 q 558 -18 607 -18 z "},"e":{"ha":635,"x_min":60,"x_max":619,"o":"m 299 -18 q 174 12 228 -18 q 90 101 121 42 q 60 249 60 161 q 92 421 60 339 q 178 567 124 503 q 305 667 233 631 q 454 703 376 703 q 576 666 533 703 q 619 565 619 629 q 595 481 619 524 q 515 397 571 438 q 369 318 460 356 q 143 249 278 281 l 140 303 q 351 378 274 335 q 463 470 429 422 q 497 560 497 518 q 480 614 497 594 q 429 633 463 633 q 352 604 393 633 q 275 525 311 575 q 216 412 239 475 q 193 279 193 349 q 235 136 193 181 q 344 92 278 92 q 422 107 389 92 q 483 147 456 122 q 532 200 510 172 l 576 167 q 527 97 556 131 q 463 38 499 64 q 387 -3 428 11 q 299 -18 346 -18 z "},"f":{"ha":468,"x_min":-229,"x_max":675,"o":"m -79 -335 q -155 -322 -124 -335 q -205 -289 -186 -310 q -229 -243 -224 -268 q -206 -201 -225 -218 q -158 -185 -187 -185 q -119 -192 -136 -185 q -87 -215 -103 -200 q -51 -251 -71 -229 l -19 -287 l -43 -285 l -21 -285 l -32 -287 q 0 -253 -15 -272 q 31 -207 15 -235 q 57 -144 44 -181 q 81 -58 69 -108 q 101 60 92 -8 q 149 361 126 210 q 194 664 172 513 q 242 842 211 771 q 316 954 274 913 q 406 1014 358 996 q 500 1032 453 1032 q 587 1017 550 1032 q 647 978 624 1001 q 675 929 669 956 q 653 885 671 903 q 610 868 635 868 q 556 885 579 868 q 506 939 532 903 l 467 996 l 493 994 l 481 994 l 492 994 q 442 956 465 976 q 401 903 419 935 q 365 818 382 871 q 335 682 349 765 q 286 376 310 533 q 235 69 263 218 q 204 -67 222 -8 q 163 -167 186 -125 q 108 -242 139 -210 q 54 -291 83 -269 q -8 -324 25 -312 q -79 -335 -42 -335 m 51 607 l 64 672 l 240 693 l 240 685 l 515 685 l 499 601 l 236 611 l 51 607 z "},"g":{"ha":732,"x_min":-54,"x_max":763,"o":"m 211 -331 q 71 -310 131 -331 q -22 -255 11 -290 q -54 -172 -54 -219 q -25 -88 -54 -126 q 60 -20 4 -50 q 190 29 115 10 l 210 14 q 107 -56 140 -22 q 74 -137 74 -90 q 125 -224 74 -192 q 264 -257 176 -257 q 383 -240 331 -257 q 465 -190 435 -224 q 494 -114 494 -157 q 481 -69 494 -89 q 437 -35 468 -49 q 350 -15 406 -22 l 197 1 q 179 3 189 3 q 160 6 169 4 l 161 28 q 84 65 108 39 q 60 124 60 90 q 96 201 60 169 q 194 256 132 233 l 196 290 l 239 274 q 195 220 204 242 q 186 178 186 199 q 201 141 186 158 q 258 119 217 124 l 415 100 q 526 70 482 92 q 592 16 571 49 q 613 -61 613 -17 q 581 -172 613 -122 q 492 -258 549 -222 q 364 -312 436 -293 q 211 -331 292 -331 m 314 231 q 199 255 247 231 q 125 322 151 279 q 99 426 99 365 q 119 533 99 483 q 178 622 140 583 q 267 681 217 660 q 375 703 317 703 q 473 683 432 703 q 537 626 514 663 q 563 542 560 590 l 575 542 q 602 648 583 608 q 647 704 621 688 q 707 721 674 721 q 733 718 721 721 q 750 711 744 715 q 759 693 756 704 q 763 669 763 682 q 725 592 763 619 q 601 551 688 565 l 632 607 q 620 560 626 582 q 608 515 614 538 q 593 465 601 492 q 557 374 581 417 q 499 300 533 332 q 419 249 465 268 q 314 231 374 231 m 338 288 q 389 301 365 288 q 430 342 413 315 q 456 410 447 369 q 465 506 465 451 q 437 610 465 572 q 365 647 408 647 q 309 632 333 647 q 269 588 285 617 q 244 522 253 560 q 236 438 236 483 q 247 358 236 392 q 281 306 258 325 q 338 288 304 288 z "},"h":{"ha":822,"x_min":63,"x_max":813,"o":"m 94 -12 l 63 0 l 196 649 q 226 791 213 722 q 251 933 239 860 l 294 885 l 113 904 l 124 961 l 371 1022 l 408 1008 l 297 494 l 303 483 l 267 310 q 245 206 256 258 q 226 103 235 154 q 206 0 217 51 l 94 -12 m 575 -18 q 498 7 525 -18 q 471 71 471 32 q 478 130 471 100 q 493 196 485 160 l 546 414 q 560 478 554 447 q 567 532 567 508 q 553 576 567 563 q 511 590 539 590 q 449 575 482 590 q 374 526 415 560 q 279 442 333 493 l 279 513 l 310 513 q 401 611 354 568 q 497 678 447 654 q 597 703 546 703 q 687 673 656 703 q 718 588 718 643 q 711 522 718 557 q 696 453 704 486 l 638 211 q 624 158 629 182 q 618 119 618 135 q 626 95 618 104 q 650 86 635 86 q 701 109 674 86 q 767 186 729 132 l 813 156 q 750 70 786 110 q 670 6 714 31 q 575 -18 626 -18 z "},"i":{"ha":451,"x_min":61,"x_max":442,"o":"m 99 83 q 104 140 99 110 q 118 211 110 171 l 204 606 l 232 563 l 61 569 l 72 626 l 322 701 l 360 688 l 261 222 q 249 164 254 189 q 244 124 244 139 q 254 97 244 107 q 279 86 264 86 q 330 109 304 86 q 394 192 356 132 l 442 160 q 378 70 413 111 q 301 6 343 29 q 207 -18 258 -18 q 128 8 157 -18 q 99 83 99 35 m 333 853 q 274 876 299 853 q 250 935 250 899 q 278 1005 250 975 q 347 1035 306 1035 q 408 1012 385 1035 q 431 953 431 989 q 403 883 431 914 q 333 853 375 853 z "},"j":{"ha":394,"x_min":-107,"x_max":426,"o":"m -90 -335 l -107 -283 q -67 -265 -85 -275 q -32 -240 -49 -254 q -1 -208 -15 -225 q 35 -153 17 -185 q 72 -69 54 -121 q 103 61 89 -18 l 206 606 l 236 561 l 63 569 l 72 626 l 321 701 l 358 688 l 235 51 q 198 -78 219 -24 q 149 -172 176 -133 q 89 -242 121 -211 q 9 -299 54 -275 q -90 -335 -36 -324 m 329 853 q 270 876 294 853 q 246 935 246 899 q 274 1005 246 975 q 343 1035 301 1035 q 403 1012 381 1035 q 426 953 426 989 q 399 883 426 914 q 329 853 371 853 z "},"k":{"ha":714,"x_min":64,"x_max":714,"o":"m 64 0 l 197 647 q 227 790 213 721 q 254 933 242 860 l 294 885 l 113 904 l 122 961 l 368 1022 l 407 1008 l 264 296 q 243 197 253 246 q 224 99 233 147 q 206 0 215 50 l 96 -12 l 64 0 m 693 0 q 641 -12 671 -7 q 582 -18 611 -18 q 483 8 524 -18 q 413 110 443 33 l 369 218 q 340 278 354 256 q 309 313 326 300 q 265 333 292 325 l 240 342 l 240 382 l 275 382 l 357 458 l 653 696 q 696 671 678 690 q 714 624 714 651 q 688 569 714 592 q 610 524 663 547 l 275 361 l 276 363 l 319 358 q 402 338 368 353 q 461 298 436 324 q 504 233 486 272 l 544 146 q 592 76 569 93 q 647 54 615 58 l 701 49 l 693 0 z "},"l":{"ha":426,"x_min":82,"x_max":422,"o":"m 189 -18 q 110 9 138 -18 q 82 86 82 36 q 87 139 82 113 q 100 207 92 165 l 190 650 q 219 791 206 722 q 246 933 233 860 l 286 885 l 104 904 l 115 961 l 363 1022 l 401 1008 l 239 213 q 228 158 232 179 q 225 124 225 138 q 235 96 225 106 q 261 86 244 86 q 310 110 285 86 q 375 192 336 133 l 422 160 q 358 68 393 108 q 282 5 324 28 q 189 -18 240 -18 z "},"m":{"ha":1228,"x_min":67,"x_max":1218,"o":"m 111 -12 l 79 0 l 208 603 l 240 561 l 67 569 l 78 626 l 314 701 l 349 688 l 319 500 l 326 500 l 286 311 q 254 156 269 233 q 224 0 239 78 l 111 -12 m 507 -12 l 475 0 l 567 426 q 577 482 572 456 q 582 531 582 508 q 569 576 582 563 q 529 590 556 590 q 467 575 500 590 q 395 528 435 560 q 304 447 356 496 l 303 514 l 326 514 q 416 611 369 568 q 512 678 463 654 q 611 703 561 703 q 697 672 667 703 q 726 585 726 642 q 722 531 726 558 q 713 482 717 503 l 719 478 l 681 301 q 649 151 665 226 q 618 0 633 76 l 507 -12 m 981 -18 q 903 7 929 -18 q 876 71 876 32 q 883 130 876 100 q 899 196 890 160 l 951 414 q 966 478 960 447 q 972 532 972 508 q 958 576 972 563 q 918 590 944 590 q 858 574 890 590 q 787 526 826 558 q 694 442 747 493 l 693 514 l 721 514 q 810 611 764 568 q 905 678 856 654 q 1004 703 954 703 q 1093 673 1063 703 q 1124 588 1124 643 q 1117 522 1124 557 q 1101 453 1110 486 l 1043 211 q 1029 158 1035 182 q 1024 119 1024 135 q 1032 95 1024 104 q 1056 86 1040 86 q 1106 109 1081 86 q 1172 186 1132 132 l 1218 156 q 1154 70 1189 110 q 1076 6 1119 31 q 981 -18 1033 -18 z "},"n":{"ha":843,"x_min":67,"x_max":832,"o":"m 111 -12 l 79 0 l 208 603 l 240 561 l 67 569 l 78 626 l 314 701 l 349 688 l 319 500 l 325 493 l 286 311 q 254 156 269 233 q 224 0 239 78 l 111 -12 m 594 -18 q 517 7 544 -18 q 490 71 490 32 q 497 130 490 100 q 514 196 504 160 l 565 414 q 581 478 574 447 q 588 532 588 508 q 573 576 588 563 q 532 590 558 590 q 469 575 501 590 q 396 528 436 560 q 304 446 356 496 l 303 513 l 328 513 q 418 612 371 569 q 515 678 465 654 q 617 703 565 703 q 706 673 675 703 q 738 588 738 643 q 731 522 738 557 q 715 453 724 486 l 657 211 q 643 158 649 182 q 638 119 638 135 q 645 95 638 104 q 669 86 653 86 q 722 109 694 86 q 786 186 749 132 l 832 156 q 770 70 806 110 q 691 6 735 31 q 594 -18 647 -18 z "},"o":{"ha":749,"x_min":61,"x_max":703,"o":"m 318 -18 q 185 12 243 -18 q 94 101 128 42 q 61 244 61 160 q 90 420 61 338 q 172 567 119 503 q 296 667 225 631 q 449 703 367 703 q 582 673 525 703 q 671 585 639 643 q 703 442 703 526 q 674 268 703 351 q 592 120 644 185 q 470 19 540 56 q 318 -18 400 -18 m 332 50 q 407 72 372 50 q 469 132 442 94 q 517 219 497 169 q 547 327 536 269 q 557 443 557 385 q 523 590 557 546 q 435 635 489 635 q 361 613 396 635 q 298 555 326 592 q 249 468 269 518 q 218 360 229 418 q 207 242 207 303 q 242 95 207 140 q 332 50 278 50 z "},"p":{"ha":772,"x_min":-87,"x_max":744,"o":"m -87 -319 l -74 -257 l 82 -243 l 126 -243 l 299 -257 l 285 -319 l -87 -319 m 19 -319 l 208 594 l 240 561 l 67 569 l 78 626 l 314 701 l 349 688 l 318 497 l 329 493 l 236 56 l 226 43 q 200 -90 213 -28 q 177 -210 188 -153 q 158 -319 167 -267 l 19 -319 m 293 -18 q 218 -5 249 -18 q 160 33 188 8 l 197 138 q 265 90 228 106 q 342 74 301 74 q 404 88 375 74 q 460 126 433 101 q 508 181 486 150 q 554 260 533 215 q 588 357 575 306 q 600 461 600 408 q 580 561 600 529 q 519 593 560 593 q 456 577 490 593 q 381 524 422 561 q 292 422 340 486 l 283 485 l 310 485 q 394 601 346 553 q 494 676 442 650 q 597 703 547 703 q 672 684 639 703 q 725 624 706 665 q 744 514 744 582 q 717 356 744 433 q 644 211 690 279 q 540 92 599 143 q 418 11 482 40 q 293 -18 354 -18 z "},"q":{"ha":746,"x_min":51,"x_max":711,"o":"m 199 -18 q 124 0 157 -18 q 71 59 90 18 q 51 167 51 100 q 78 321 51 244 q 153 466 106 397 q 258 588 200 535 q 381 672 317 642 q 507 703 446 703 q 563 694 539 703 q 607 666 586 685 q 650 617 628 647 l 594 553 q 533 599 563 586 q 469 613 503 613 q 406 599 436 613 q 347 563 375 586 q 296 510 319 539 q 243 426 265 474 q 208 326 221 379 q 196 222 196 274 q 215 126 196 158 q 276 93 233 93 q 337 108 304 93 q 413 160 369 122 q 511 264 456 197 l 521 186 l 485 186 q 397 79 444 125 q 299 8 350 33 q 199 -18 249 -18 m 242 -319 l 256 -257 l 408 -243 l 476 -243 l 633 -257 l 619 -319 l 242 -319 m 364 -319 l 471 175 l 465 188 l 560 635 l 576 636 l 660 718 l 711 710 l 558 -26 q 530 -174 544 -99 q 501 -319 515 -249 l 364 -319 z "},"r":{"ha":614,"x_min":67,"x_max":640,"o":"m 283 322 l 275 439 l 306 439 q 371 573 336 513 q 447 668 406 633 q 538 703 489 703 q 605 687 579 703 q 640 640 631 671 q 616 578 638 603 q 557 553 594 553 q 506 566 528 553 q 460 604 483 579 l 438 628 l 513 618 l 472 614 q 412 544 442 585 q 351 449 382 503 q 283 322 319 394 m 79 0 l 208 603 l 240 561 l 67 569 l 78 626 l 314 701 l 346 688 l 303 453 l 314 442 l 286 314 q 254 156 269 235 q 224 0 239 78 l 111 -12 l 79 0 z "},"s":{"ha":551,"x_min":25,"x_max":553,"o":"m 226 -18 q 122 -1 164 -18 q 56 47 79 15 q 25 126 32 79 q 48 165 32 151 q 90 178 64 178 q 147 156 126 178 q 175 99 167 135 l 194 13 l 124 44 q 175 40 151 42 q 225 39 199 39 q 295 57 267 43 q 339 95 324 71 q 354 151 354 119 q 333 224 354 193 q 254 294 311 254 q 185 354 215 325 q 138 419 154 383 q 122 501 122 454 q 152 606 122 560 q 236 677 182 651 q 364 703 290 703 q 456 688 417 703 q 519 644 494 672 q 553 576 544 617 q 533 535 549 550 q 492 521 517 521 q 443 540 464 521 q 410 597 422 558 l 386 674 l 449 646 q 410 647 429 646 q 368 649 390 649 q 281 614 310 644 q 253 539 253 583 q 276 463 253 493 q 358 390 300 433 q 431 330 401 360 q 474 267 460 300 q 489 189 489 233 q 456 81 489 128 q 363 8 422 35 q 226 -18 304 -18 z "},"t":{"ha":501,"x_min":72,"x_max":533,"o":"m 72 606 l 86 672 l 276 694 l 276 685 l 533 685 l 515 601 l 268 611 l 264 610 l 72 606 m 206 -18 q 130 6 156 -18 q 104 79 104 29 q 108 135 104 107 q 121 203 113 164 l 214 638 l 314 875 l 403 875 l 263 213 q 253 161 257 182 q 249 126 249 140 q 260 99 249 108 q 288 89 271 89 q 324 99 306 89 q 363 134 342 110 q 415 199 385 158 l 463 167 q 389 72 428 114 q 305 6 350 31 q 206 -18 260 -18 z "},"u":{"ha":844,"x_min":69,"x_max":836,"o":"m 224 -18 q 158 -3 186 -18 q 116 38 131 11 q 101 100 101 64 q 110 175 101 133 q 126 253 118 217 l 208 608 l 239 565 l 69 571 l 79 628 l 332 701 l 368 688 l 272 276 q 262 231 267 253 q 254 190 257 210 q 251 154 251 171 q 267 110 251 125 q 310 96 282 96 q 376 111 343 96 q 449 160 408 126 q 546 246 490 194 l 553 181 l 522 181 q 424 74 472 118 q 328 6 376 29 q 224 -18 279 -18 m 604 -18 q 527 7 554 -18 q 500 82 500 32 q 504 128 500 104 q 515 181 508 151 l 508 181 l 558 417 q 585 547 572 482 q 610 676 597 611 l 721 700 l 756 688 l 656 218 q 644 163 649 189 q 639 121 639 136 q 648 96 639 106 q 672 86 657 86 q 723 109 697 86 q 789 186 749 132 l 836 156 q 772 69 807 108 q 697 6 738 29 q 604 -18 656 -18 z "},"v":{"ha":722,"x_min":21,"x_max":715,"o":"m 235 -1 q 226 196 232 101 q 211 374 219 290 q 193 524 203 457 q 178 578 188 564 q 153 592 169 592 q 115 572 135 592 q 64 503 96 551 l 21 535 q 113 661 68 619 q 215 703 158 703 q 294 672 268 703 q 331 572 321 642 q 344 435 338 514 q 352 267 350 357 q 354 86 354 178 l 356 86 l 390 153 q 440 219 415 185 q 487 291 464 254 q 532 367 510 328 q 575 449 554 406 q 594 492 586 469 q 608 535 603 514 l 600 433 l 579 501 q 561 549 568 525 q 554 597 554 572 q 580 677 554 650 q 647 704 606 704 q 684 699 669 704 q 707 689 699 694 q 713 668 711 681 q 715 636 715 656 q 709 578 715 610 q 686 508 703 547 q 642 417 669 469 q 585 322 618 374 q 512 215 553 271 q 425 104 471 160 q 331 -4 379 49 l 249 -14 l 235 -1 z "},"w":{"ha":1101,"x_min":22,"x_max":1097,"o":"m 233 -1 q 226 150 231 76 q 217 290 222 224 q 205 417 211 357 q 193 525 199 476 q 178 578 189 565 q 151 592 168 592 q 114 571 133 592 q 65 503 94 550 l 22 535 q 111 661 67 619 q 214 703 156 703 q 295 674 267 703 q 331 579 324 646 q 342 446 338 524 q 349 278 346 368 q 350 90 351 188 l 344 93 l 371 157 q 460 323 418 238 q 542 498 503 408 q 617 683 581 588 l 713 683 q 720 539 717 611 q 728 394 724 467 q 735 245 732 321 q 742 90 739 169 l 740 93 l 769 153 q 839 251 807 204 q 900 347 871 299 q 956 449 929 396 q 975 494 967 472 q 990 539 983 517 l 983 432 l 961 500 q 948 531 954 515 q 938 563 942 546 q 935 596 935 579 q 963 676 935 649 q 1032 704 990 704 q 1065 700 1051 704 q 1088 689 1079 696 q 1094 669 1092 682 q 1097 635 1097 656 q 1090 578 1097 610 q 1067 508 1083 547 q 1022 417 1050 469 q 967 321 999 372 q 894 215 935 269 q 809 104 854 160 q 715 -4 764 49 l 635 -14 l 622 -1 q 615 117 618 56 q 609 242 613 178 q 603 374 606 307 q 599 513 600 442 l 606 513 l 583 429 q 532 321 560 378 q 472 206 504 264 q 407 94 440 147 q 342 -4 374 40 l 247 -14 l 233 -1 z "},"x":{"ha":799,"x_min":-11,"x_max":826,"o":"m 543 -18 q 480 -3 506 -18 q 438 41 454 11 q 410 118 422 71 l 371 258 l 361 260 l 289 521 q 265 578 278 563 q 231 594 251 594 q 188 576 213 594 q 128 503 164 558 l 88 535 q 148 628 118 590 q 210 684 178 665 q 279 703 243 703 q 360 673 332 703 q 404 576 388 643 l 449 410 l 457 408 l 521 175 q 552 107 533 125 q 599 89 571 89 q 654 113 625 89 q 719 186 683 138 l 765 153 q 660 29 714 76 q 543 -18 606 -18 m -11 81 q 16 130 -4 111 q 64 149 36 149 q 116 131 97 149 q 149 75 135 113 l 171 19 l 128 39 l 151 49 q 176 73 164 61 q 199 99 188 85 q 265 189 233 143 q 329 283 297 235 q 392 379 361 331 l 415 344 q 319 169 364 240 q 239 51 275 99 q 185 0 213 18 q 113 -18 158 -18 q 28 8 61 -18 q -11 81 -6 35 m 439 313 l 413 347 q 511 524 467 454 q 585 632 556 594 q 643 685 614 668 q 714 703 672 703 q 791 679 764 703 q 826 618 818 656 q 803 563 824 585 q 754 540 783 540 q 706 557 724 540 q 672 608 689 574 l 646 660 l 701 642 l 675 638 q 653 616 664 628 q 631 590 642 604 q 567 505 600 549 q 501 413 533 461 q 439 313 469 365 z "},"y":{"ha":733,"x_min":-137,"x_max":738,"o":"m -14 -328 q -102 -304 -72 -328 q -137 -242 -132 -281 q -109 -192 -132 -211 q -47 -172 -86 -172 q 15 -188 -11 -172 q 67 -232 42 -204 l 99 -262 l 58 -262 l 82 -262 l 68 -262 q 116 -228 90 -249 q 169 -183 142 -208 q 221 -131 196 -158 q 299 -44 261 -89 q 368 39 336 0 q 435 183 406 117 q 489 310 465 250 q 531 428 513 369 q 567 549 550 486 q 599 647 583 613 q 631 694 614 681 q 674 707 649 707 q 719 691 701 707 q 738 647 738 675 q 726 595 736 622 q 696 526 717 568 q 643 421 671 474 q 578 304 615 368 q 538 237 558 272 q 495 165 517 201 q 449 92 474 129 q 399 17 425 56 q 351 -50 376 -17 q 300 -117 326 -83 q 243 -185 274 -151 q 168 -258 207 -225 q 84 -309 129 -290 q -14 -328 39 -328 m 261 -106 q 245 92 254 0 q 226 269 236 185 q 204 431 215 353 q 187 537 194 503 q 171 581 179 571 q 150 592 163 592 q 114 573 132 592 q 67 507 96 554 l 22 536 q 113 664 67 625 q 213 703 158 703 q 274 687 250 703 q 312 633 297 671 q 333 532 326 596 q 342 414 338 476 q 350 286 346 351 q 358 158 354 221 q 364 38 361 96 l 400 38 l 261 -106 z "},"z":{"ha":699,"x_min":1,"x_max":724,"o":"m 425 -35 q 324 -14 372 -35 q 230 50 275 7 q 143 160 185 93 l 182 206 q 289 138 238 164 q 388 101 340 113 q 479 90 435 90 q 532 94 508 90 q 576 106 556 99 q 614 124 596 114 l 608 89 l 597 114 q 539 156 560 135 q 518 210 518 178 q 542 272 518 249 q 599 297 565 296 q 644 263 629 289 q 658 197 658 236 q 640 111 658 153 q 589 37 621 69 q 515 -15 557 4 q 425 -35 472 -35 m 119 0 l 29 -14 l 1 3 q 50 85 22 43 q 132 178 78 126 q 238 272 185 226 q 344 363 290 318 q 449 455 397 408 q 551 553 501 501 l 607 685 l 694 703 l 724 683 q 675 598 710 644 q 582 496 640 551 q 478 401 531 446 q 375 314 426 357 q 274 227 324 271 q 174 135 224 183 l 119 0 m 90 396 l 115 618 l 232 704 q 360 667 297 688 q 484 622 422 646 q 606 567 546 597 l 535 486 q 412 521 472 506 q 290 549 351 536 q 157 576 228 563 l 233 647 l 153 390 l 90 396 z "},"À":{"ha":957,"x_min":-43,"x_max":894,"o":"m -43 0 l -29 74 l 113 85 l 146 85 l 286 74 l 272 0 l -43 0 m 35 0 l 540 926 l 656 926 l 792 0 l 636 0 l 531 810 l 533 810 l 482 682 l 125 0 l 35 0 m 267 319 l 279 392 l 664 392 l 658 319 l 267 319 m 492 0 l 504 74 l 675 85 l 736 85 l 894 74 l 881 0 l 492 0 m 660 1040 l 624 990 q 534 1036 579 1013 q 444 1082 489 1060 q 387 1124 404 1103 q 369 1165 369 1144 q 386 1206 369 1190 q 429 1221 403 1221 q 474 1208 453 1221 q 526 1167 496 1196 q 594 1103 560 1135 q 660 1040 628 1072 z "},"Á":{"ha":957,"x_min":-43,"x_max":894,"o":"m -43 0 l -29 74 l 113 85 l 146 85 l 286 74 l 272 0 l -43 0 m 35 0 l 540 926 l 656 926 l 792 0 l 636 0 l 531 810 l 533 810 l 482 682 l 125 0 l 35 0 m 267 319 l 279 392 l 664 392 l 658 319 l 267 319 m 492 0 l 504 74 l 675 85 l 736 85 l 894 74 l 881 0 l 492 0 m 497 1033 q 575 1099 536 1067 q 654 1163 614 1131 q 708 1203 688 1190 q 754 1215 729 1215 q 797 1200 781 1215 q 814 1160 814 1185 q 798 1118 814 1136 q 740 1081 782 1100 q 633 1033 686 1057 q 526 985 579 1010 l 497 1033 z "},"Â":{"ha":957,"x_min":-43,"x_max":894,"o":"m -43 0 l -29 74 l 113 85 l 146 85 l 286 74 l 272 0 l -43 0 m 35 0 l 540 926 l 656 926 l 792 0 l 636 0 l 531 810 l 533 810 l 482 682 l 125 0 l 35 0 m 267 319 l 279 392 l 664 392 l 658 319 l 267 319 m 492 0 l 504 74 l 675 85 l 736 85 l 894 74 l 881 0 l 492 0 m 674 1201 l 829 1025 l 786 985 l 579 1135 l 678 1135 l 426 985 l 396 1028 l 604 1201 l 674 1201 z "},"Ã":{"ha":957,"x_min":-43,"x_max":894,"o":"m -43 0 l -29 74 l 113 85 l 146 85 l 286 74 l 272 0 l -43 0 m 35 0 l 540 926 l 656 926 l 792 0 l 636 0 l 531 810 l 533 810 l 482 682 l 125 0 l 35 0 m 267 319 l 279 392 l 664 392 l 658 319 l 267 319 m 492 0 l 504 74 l 675 85 l 736 85 l 894 74 l 881 0 l 492 0 m 379 1018 q 448 1151 407 1107 q 544 1196 489 1196 q 600 1184 578 1196 q 642 1153 622 1172 q 681 1118 663 1136 q 725 1100 699 1100 q 777 1122 754 1100 q 821 1194 800 1144 l 869 1175 q 801 1044 842 1089 q 706 999 760 999 q 649 1010 672 999 q 607 1039 626 1022 q 567 1076 586 1058 q 522 1094 549 1094 q 472 1072 494 1094 q 428 1000 449 1050 l 379 1018 z "},"Ä":{"ha":957,"x_min":-43,"x_max":894,"o":"m -43 0 l -29 74 l 113 85 l 146 85 l 286 74 l 272 0 l -43 0 m 35 0 l 540 926 l 656 926 l 792 0 l 636 0 l 531 810 l 533 810 l 482 682 l 125 0 l 35 0 m 267 319 l 279 392 l 664 392 l 658 319 l 267 319 m 492 0 l 504 74 l 675 85 l 736 85 l 894 74 l 881 0 l 492 0 m 458 1024 q 406 1043 428 1024 q 385 1094 385 1063 q 410 1158 385 1132 q 472 1185 436 1185 q 526 1165 506 1185 q 546 1114 546 1144 q 521 1050 546 1076 q 458 1024 496 1024 m 768 1024 q 717 1043 739 1024 q 696 1094 696 1063 q 722 1158 696 1132 q 783 1185 747 1185 q 836 1165 815 1185 q 857 1114 857 1144 q 831 1050 857 1076 q 768 1024 806 1024 z "},"Ā":{"ha":957,"x_min":-43,"x_max":894,"o":"m -43 0 l -29 74 l 113 85 l 146 85 l 286 74 l 272 0 l -43 0 m 35 0 l 540 926 l 656 926 l 792 0 l 636 0 l 531 810 l 533 810 l 482 682 l 125 0 l 35 0 m 267 319 l 279 392 l 664 392 l 658 319 l 267 319 m 492 0 l 504 74 l 675 85 l 736 85 l 894 74 l 881 0 l 492 0 m 419 1042 l 440 1138 l 825 1138 l 804 1042 l 419 1042 z "},"Ă":{"ha":957,"x_min":-43,"x_max":894,"o":"m -43 0 l -29 74 l 113 85 l 146 85 l 286 74 l 272 0 l -43 0 m 35 0 l 540 926 l 656 926 l 792 0 l 636 0 l 531 810 l 533 810 l 482 682 l 125 0 l 35 0 m 267 319 l 279 392 l 664 392 l 658 319 l 267 319 m 492 0 l 504 74 l 675 85 l 736 85 l 894 74 l 881 0 l 492 0 m 603 1010 q 501 1033 542 1010 q 437 1098 460 1057 q 407 1189 414 1139 l 461 1211 q 518 1135 479 1167 q 618 1104 557 1104 q 721 1134 679 1104 q 793 1211 763 1164 l 843 1190 q 794 1104 825 1146 q 717 1036 764 1063 q 603 1010 669 1010 z "},"Ắ":{"ha":957,"x_min":-43,"x_max":894,"o":"m -43 0 l -29 74 l 113 85 l 146 85 l 286 74 l 272 0 l -43 0 m 35 0 l 540 926 l 656 926 l 792 0 l 636 0 l 531 810 l 533 810 l 482 682 l 125 0 l 35 0 m 267 319 l 279 392 l 664 392 l 658 319 l 267 319 m 492 0 l 504 74 l 675 85 l 736 85 l 894 74 l 881 0 l 492 0 m 601 1006 q 503 1028 543 1006 q 440 1090 464 1051 q 407 1176 415 1129 l 460 1199 q 516 1128 478 1157 q 614 1099 554 1099 q 714 1126 675 1099 q 779 1199 753 1154 l 831 1178 q 787 1097 815 1136 q 713 1031 758 1057 q 601 1006 667 1006 m 604 1169 l 563 1215 l 671 1342 q 719 1391 699 1375 q 765 1407 740 1407 q 806 1393 790 1407 q 822 1354 822 1379 q 817 1326 822 1339 q 797 1299 811 1313 q 757 1269 783 1286 l 604 1169 z "},"Ặ":{"ha":957,"x_min":-43,"x_max":894,"o":"m -43 0 l -29 74 l 113 85 l 146 85 l 286 74 l 272 0 l -43 0 m 35 0 l 540 926 l 656 926 l 792 0 l 636 0 l 531 810 l 533 810 l 482 682 l 125 0 l 35 0 m 267 319 l 279 392 l 664 392 l 658 319 l 267 319 m 492 0 l 504 74 l 675 85 l 736 85 l 894 74 l 881 0 l 492 0 m 603 1010 q 501 1033 542 1010 q 437 1098 460 1057 q 407 1189 414 1139 l 461 1211 q 518 1135 479 1167 q 618 1104 557 1104 q 721 1134 679 1104 q 793 1211 763 1164 l 843 1190 q 794 1104 825 1146 q 717 1036 764 1063 q 603 1010 669 1010 z "},"Ằ":{"ha":957,"x_min":-43,"x_max":894,"o":"m -43 0 l -29 74 l 113 85 l 146 85 l 286 74 l 272 0 l -43 0 m 35 0 l 540 926 l 656 926 l 792 0 l 636 0 l 531 810 l 533 810 l 482 682 l 125 0 l 35 0 m 267 319 l 279 392 l 664 392 l 658 319 l 267 319 m 492 0 l 504 74 l 675 85 l 736 85 l 894 74 l 881 0 l 492 0 m 601 1006 q 503 1028 543 1006 q 440 1090 464 1051 q 407 1176 415 1129 l 460 1199 q 516 1128 478 1157 q 614 1099 554 1099 q 714 1126 675 1099 q 779 1199 753 1154 l 831 1178 q 787 1097 815 1136 q 713 1031 758 1057 q 601 1006 667 1006 m 656 1169 l 504 1269 q 467 1296 482 1283 q 444 1322 451 1308 q 438 1353 438 1336 q 454 1392 438 1378 q 496 1407 471 1407 q 543 1392 524 1407 q 589 1344 563 1376 l 699 1217 l 656 1169 z "},"Ẳ":{"ha":957,"x_min":-43,"x_max":894,"o":"m -43 0 l -29 74 l 113 85 l 146 85 l 286 74 l 272 0 l -43 0 m 35 0 l 540 926 l 656 926 l 792 0 l 636 0 l 531 810 l 533 810 l 482 682 l 125 0 l 35 0 m 267 319 l 279 392 l 664 392 l 658 319 l 267 319 m 492 0 l 504 74 l 675 85 l 736 85 l 894 74 l 881 0 l 492 0 m 601 1006 q 503 1028 543 1006 q 440 1090 464 1051 q 407 1176 415 1129 l 460 1199 q 516 1128 478 1157 q 614 1099 554 1099 q 714 1126 675 1099 q 779 1199 753 1154 l 831 1178 q 787 1097 815 1136 q 713 1031 758 1057 q 601 1006 667 1006 m 590 1151 l 581 1201 q 635 1218 618 1208 q 653 1247 653 1228 q 629 1275 653 1265 q 550 1289 606 1285 l 575 1390 q 665 1370 629 1385 q 718 1332 700 1356 q 736 1275 736 1308 q 695 1191 736 1221 q 590 1151 654 1161 z "},"Ẵ":{"ha":957,"x_min":-43,"x_max":894,"o":"m -43 0 l -29 74 l 113 85 l 146 85 l 286 74 l 272 0 l -43 0 m 35 0 l 540 926 l 656 926 l 792 0 l 636 0 l 531 810 l 533 810 l 482 682 l 125 0 l 35 0 m 267 319 l 279 392 l 664 392 l 658 319 l 267 319 m 492 0 l 504 74 l 675 85 l 736 85 l 894 74 l 881 0 l 492 0 m 601 1006 q 503 1028 543 1006 q 440 1090 464 1051 q 407 1176 415 1129 l 460 1199 q 516 1128 478 1157 q 614 1099 554 1099 q 714 1126 675 1099 q 779 1199 753 1154 l 831 1178 q 787 1097 815 1136 q 713 1031 758 1057 q 601 1006 667 1006 m 453 1225 l 406 1243 q 454 1340 419 1304 q 543 1376 489 1376 q 599 1367 576 1376 q 644 1346 621 1358 q 690 1324 671 1332 q 732 1315 708 1315 q 780 1331 760 1315 q 813 1375 800 1346 l 860 1358 q 813 1261 846 1297 q 724 1225 779 1225 q 669 1234 692 1225 q 622 1256 646 1243 q 578 1278 597 1269 q 535 1286 558 1286 q 486 1271 506 1286 q 453 1225 467 1256 z "},"Ǎ":{"ha":957,"x_min":-43,"x_max":894,"o":"m -43 0 l -29 74 l 113 85 l 146 85 l 286 74 l 272 0 l -43 0 m 35 0 l 540 926 l 656 926 l 792 0 l 636 0 l 531 810 l 533 810 l 482 682 l 125 0 l 35 0 m 267 319 l 279 392 l 664 392 l 658 319 l 267 319 m 492 0 l 504 74 l 675 85 l 736 85 l 894 74 l 881 0 l 492 0 m 467 1222 l 650 1067 l 575 1067 l 819 1222 l 853 1181 l 644 999 l 569 999 l 421 1188 l 467 1222 z "},"Ấ":{"ha":957,"x_min":-43,"x_max":953,"o":"m -43 0 l -29 74 l 113 85 l 146 85 l 286 74 l 272 0 l -43 0 m 35 0 l 540 926 l 656 926 l 792 0 l 636 0 l 531 810 l 533 810 l 482 682 l 125 0 l 35 0 m 267 319 l 279 392 l 664 392 l 658 319 l 267 319 m 492 0 l 504 74 l 675 85 l 736 85 l 894 74 l 881 0 l 492 0 m 429 975 l 397 1018 l 599 1188 l 664 1188 l 824 1015 l 782 975 l 578 1118 l 674 1118 l 429 975 m 796 1113 l 757 1154 l 825 1244 q 866 1287 849 1275 q 903 1299 883 1299 q 939 1285 925 1299 q 953 1249 953 1271 q 941 1213 953 1231 q 901 1179 929 1196 l 796 1113 z "},"Ậ":{"ha":957,"x_min":-43,"x_max":894,"o":"m -43 0 l -29 74 l 113 85 l 146 85 l 286 74 l 272 0 l -43 0 m 35 0 l 540 926 l 656 926 l 792 0 l 636 0 l 531 810 l 533 810 l 482 682 l 125 0 l 35 0 m 267 319 l 279 392 l 664 392 l 658 319 l 267 319 m 492 0 l 504 74 l 675 85 l 736 85 l 894 74 l 881 0 l 492 0 m 674 1201 l 829 1025 l 786 985 l 579 1135 l 678 1135 l 426 985 l 396 1028 l 604 1201 l 674 1201 z "},"Ầ":{"ha":957,"x_min":-43,"x_max":894,"o":"m -43 0 l -29 74 l 113 85 l 146 85 l 286 74 l 272 0 l -43 0 m 35 0 l 540 926 l 656 926 l 792 0 l 636 0 l 531 810 l 533 810 l 482 682 l 125 0 l 35 0 m 267 319 l 279 392 l 664 392 l 658 319 l 267 319 m 492 0 l 504 74 l 675 85 l 736 85 l 894 74 l 881 0 l 492 0 m 429 975 l 397 1018 l 599 1188 l 664 1188 l 824 1015 l 782 975 l 578 1118 l 674 1118 l 429 975 m 457 1121 l 376 1168 q 327 1203 342 1188 q 313 1240 313 1219 q 328 1278 313 1264 q 365 1292 344 1292 q 405 1281 388 1292 q 439 1246 422 1271 l 499 1161 l 457 1121 z "},"Ẩ":{"ha":957,"x_min":-43,"x_max":931,"o":"m -43 0 l -29 74 l 113 85 l 146 85 l 286 74 l 272 0 l -43 0 m 35 0 l 540 926 l 656 926 l 792 0 l 636 0 l 531 810 l 533 810 l 482 682 l 125 0 l 35 0 m 267 319 l 279 392 l 664 392 l 658 319 l 267 319 m 492 0 l 504 74 l 675 85 l 736 85 l 894 74 l 881 0 l 492 0 m 429 975 l 397 1018 l 599 1188 l 664 1188 l 824 1015 l 782 975 l 578 1118 l 674 1118 l 429 975 m 792 1100 l 783 1150 q 835 1167 819 1157 q 851 1194 851 1176 q 829 1224 851 1214 q 754 1239 807 1233 l 781 1342 q 892 1304 854 1333 q 931 1219 931 1275 q 892 1139 931 1168 q 792 1100 853 1110 z "},"Ẫ":{"ha":957,"x_min":-43,"x_max":894,"o":"m -43 0 l -29 74 l 113 85 l 146 85 l 286 74 l 272 0 l -43 0 m 35 0 l 540 926 l 656 926 l 792 0 l 636 0 l 531 810 l 533 810 l 482 682 l 125 0 l 35 0 m 267 319 l 279 392 l 664 392 l 658 319 l 267 319 m 492 0 l 504 74 l 675 85 l 736 85 l 894 74 l 881 0 l 492 0 m 429 975 l 397 1018 l 599 1185 l 664 1185 l 824 1015 l 782 975 l 578 1114 l 674 1114 l 429 975 m 457 1200 l 410 1218 q 458 1315 424 1279 q 549 1351 493 1351 q 603 1343 581 1351 q 650 1321 626 1335 q 694 1299 675 1307 q 736 1290 713 1290 q 785 1306 765 1290 q 817 1351 804 1322 l 864 1335 q 817 1236 850 1272 q 728 1200 783 1200 q 674 1209 697 1200 q 626 1231 650 1218 q 582 1253 601 1244 q 539 1261 563 1261 q 490 1246 510 1261 q 457 1200 471 1231 z "},"Ạ":{"ha":957,"x_min":-43,"x_max":894,"o":"m -43 0 l -29 74 l 113 85 l 146 85 l 286 74 l 272 0 l -43 0 m 35 0 l 540 926 l 656 926 l 792 0 l 636 0 l 531 810 l 533 810 l 482 682 l 125 0 l 35 0 m 267 319 l 279 392 l 664 392 l 658 319 l 267 319 m 492 0 l 504 74 l 675 85 l 736 85 l 894 74 l 881 0 l 492 0 z "},"Ả":{"ha":957,"x_min":-43,"x_max":894,"o":"m -43 0 l -29 74 l 113 85 l 146 85 l 286 74 l 272 0 l -43 0 m 35 0 l 540 926 l 656 926 l 792 0 l 636 0 l 531 810 l 533 810 l 482 682 l 125 0 l 35 0 m 267 319 l 279 392 l 664 392 l 658 319 l 267 319 m 492 0 l 504 74 l 675 85 l 736 85 l 894 74 l 881 0 l 492 0 m 593 990 l 583 1040 q 642 1058 624 1047 q 661 1090 661 1069 q 635 1120 661 1110 q 553 1136 610 1131 l 579 1239 q 701 1201 660 1231 q 743 1118 743 1171 q 701 1031 743 1061 q 593 990 660 1000 z "},"Å":{"ha":957,"x_min":-43,"x_max":894,"o":"m -43 0 l -29 74 l 113 85 l 146 85 l 286 74 l 272 0 l -43 0 m 35 0 l 540 926 l 656 926 l 792 0 l 636 0 l 531 810 l 533 810 l 482 682 l 125 0 l 35 0 m 267 319 l 279 392 l 664 392 l 658 319 l 267 319 m 492 0 l 504 74 l 675 85 l 736 85 l 894 74 l 881 0 l 492 0 m 614 985 q 523 1016 560 985 q 486 1101 486 1047 q 508 1181 486 1147 q 564 1232 529 1214 q 639 1250 599 1250 q 731 1219 696 1250 q 767 1133 767 1188 q 746 1054 767 1088 q 690 1003 725 1021 q 614 985 656 985 m 619 1042 q 678 1067 657 1042 q 700 1128 700 1092 q 684 1174 700 1156 q 635 1193 668 1193 q 576 1169 600 1193 q 553 1107 553 1144 q 570 1060 553 1079 q 619 1042 588 1042 z "},"Ą":{"ha":957,"x_min":-43,"x_max":894,"o":"m -43 0 l -29 74 l 113 85 l 146 85 l 286 74 l 272 0 l -43 0 m 35 0 l 540 926 l 656 926 l 792 0 l 636 0 l 531 810 l 533 810 l 482 682 l 125 0 l 35 0 m 267 319 l 279 392 l 664 392 l 658 319 l 267 319 m 492 0 l 504 74 l 675 85 l 736 85 l 894 74 l 881 0 l 492 0 m 693 -322 q 592 -290 628 -322 q 557 -204 557 -258 q 578 -124 557 -160 q 634 -60 599 -89 q 711 -4 669 -31 l 711 15 l 771 15 q 713 -47 738 -17 q 673 -108 688 -78 q 658 -172 658 -139 q 678 -229 658 -211 q 731 -247 699 -247 q 760 -244 746 -247 q 788 -235 775 -242 l 807 -283 q 756 -311 783 -300 q 693 -322 728 -322 z "},"Æ":{"ha":1267,"x_min":-53,"x_max":1264,"o":"m 644 0 l 651 79 l 1115 79 l 1021 13 l 1117 251 l 1201 251 l 1147 0 l 644 0 m 1142 681 l 1139 903 l 1192 846 l 792 846 l 800 926 l 1264 926 l 1228 681 l 1142 681 m -53 0 l -37 74 l 103 85 l 136 85 l 278 74 l 264 0 l -53 0 m 550 0 l 642 499 q 661 606 651 553 q 681 713 671 658 q 699 819 690 767 q 718 926 708 872 l 869 926 l 778 429 q 740 215 758 322 q 703 0 721 107 l 550 0 m 963 313 l 965 460 l 971 490 l 1022 635 l 1096 635 l 1036 313 l 963 313 m 432 0 l 447 74 l 610 85 l 628 85 l 619 0 l 432 0 m 478 851 l 493 926 l 772 926 l 764 842 l 701 842 l 478 851 m 17 0 l 660 926 l 738 926 l 357 357 l 114 0 l 17 0 m 307 321 l 307 393 l 690 393 l 690 321 l 307 321 m 717 436 l 717 511 l 1021 511 l 1021 436 l 717 436 z "},"Ç":{"ha":856,"x_min":71,"x_max":857,"o":"m 478 -22 q 260 26 351 -22 q 120 165 169 75 q 71 383 71 256 q 97 563 71 478 q 172 717 124 647 q 286 840 219 788 q 435 920 353 892 q 608 949 517 949 q 708 940 663 949 q 791 915 753 931 q 857 883 829 900 l 824 678 l 735 678 l 731 875 l 793 814 q 714 853 761 838 q 611 868 667 868 q 485 844 543 868 q 378 774 426 819 q 297 669 331 729 q 244 536 263 608 q 226 383 226 464 q 263 203 226 276 q 365 94 300 131 q 518 57 431 57 q 610 69 567 57 q 693 100 653 81 l 611 40 l 681 250 l 772 250 l 738 36 q 630 -3 693 15 q 478 -22 567 -22 m 403 -121 l 460 0 l 511 0 l 458 -118 l 450 -82 q 563 -126 524 -100 q 603 -204 603 -153 q 560 -288 603 -254 q 439 -322 517 -322 q 371 -314 403 -322 q 322 -296 339 -306 l 343 -247 q 382 -260 361 -254 q 428 -267 403 -267 q 487 -249 465 -267 q 508 -201 508 -232 q 483 -150 508 -168 q 403 -121 458 -132 z "},"Ć":{"ha":856,"x_min":71,"x_max":857,"o":"m 478 -22 q 260 26 351 -22 q 120 165 169 75 q 71 383 71 256 q 97 563 71 478 q 172 717 124 647 q 286 840 219 788 q 435 920 353 892 q 608 949 517 949 q 708 940 663 949 q 791 915 753 931 q 857 883 829 900 l 824 678 l 735 678 l 731 875 l 793 814 q 714 853 761 838 q 611 868 667 868 q 485 844 543 868 q 378 774 426 819 q 297 669 331 729 q 244 536 263 608 q 226 383 226 464 q 263 203 226 276 q 365 94 300 131 q 518 57 431 57 q 610 69 567 57 q 693 100 653 81 l 611 40 l 681 250 l 772 250 l 738 36 q 630 -3 693 15 q 478 -22 567 -22 m 510 1033 q 588 1099 549 1067 q 667 1163 626 1131 q 721 1203 700 1190 q 767 1215 742 1215 q 810 1200 793 1215 q 826 1160 826 1185 q 810 1118 826 1136 q 753 1081 794 1100 q 645 1033 699 1057 q 539 985 592 1010 l 510 1033 z "},"Č":{"ha":856,"x_min":71,"x_max":865,"o":"m 478 -22 q 260 26 351 -22 q 120 165 169 75 q 71 383 71 256 q 97 563 71 478 q 172 717 124 647 q 286 840 219 788 q 435 920 353 892 q 608 949 517 949 q 708 940 663 949 q 791 915 753 931 q 857 883 829 900 l 824 678 l 735 678 l 731 875 l 793 814 q 714 853 761 838 q 611 868 667 868 q 485 844 543 868 q 378 774 426 819 q 297 669 331 729 q 244 536 263 608 q 226 383 226 464 q 263 203 226 276 q 365 94 300 131 q 518 57 431 57 q 610 69 567 57 q 693 100 653 81 l 611 40 l 681 250 l 772 250 l 738 36 q 630 -3 693 15 q 478 -22 567 -22 m 479 1222 l 663 1067 l 588 1067 l 832 1222 l 865 1181 l 657 999 l 582 999 l 433 1188 l 479 1222 z "},"Ĉ":{"ha":856,"x_min":71,"x_max":857,"o":"m 478 -22 q 260 26 351 -22 q 120 165 169 75 q 71 383 71 256 q 97 563 71 478 q 172 717 124 647 q 286 840 219 788 q 435 920 353 892 q 608 949 517 949 q 708 940 663 949 q 791 915 753 931 q 857 883 829 900 l 824 678 l 735 678 l 731 875 l 793 814 q 714 853 761 838 q 611 868 667 868 q 485 844 543 868 q 378 774 426 819 q 297 669 331 729 q 244 536 263 608 q 226 383 226 464 q 263 203 226 276 q 365 94 300 131 q 518 57 431 57 q 610 69 567 57 q 693 100 653 81 l 611 40 l 681 250 l 772 250 l 738 36 q 630 -3 693 15 q 478 -22 567 -22 m 686 1201 l 842 1025 l 799 985 l 592 1135 l 690 1135 l 439 985 l 408 1028 l 617 1201 l 686 1201 z "},"Ċ":{"ha":856,"x_min":71,"x_max":857,"o":"m 478 -22 q 260 26 351 -22 q 120 165 169 75 q 71 383 71 256 q 97 563 71 478 q 172 717 124 647 q 286 840 219 788 q 435 920 353 892 q 608 949 517 949 q 708 940 663 949 q 791 915 753 931 q 857 883 829 900 l 824 678 l 735 678 l 731 875 l 793 814 q 714 853 761 838 q 611 868 667 868 q 485 844 543 868 q 378 774 426 819 q 297 669 331 729 q 244 536 263 608 q 226 383 226 464 q 263 203 226 276 q 365 94 300 131 q 518 57 431 57 q 610 69 567 57 q 693 100 653 81 l 611 40 l 681 250 l 772 250 l 738 36 q 630 -3 693 15 q 478 -22 567 -22 m 629 1007 q 570 1030 593 1007 q 547 1090 547 1053 q 575 1160 547 1129 q 643 1190 603 1190 q 703 1167 681 1190 q 726 1108 726 1144 q 699 1038 726 1068 q 629 1007 671 1007 z "},"Ď":{"ha":982,"x_min":4,"x_max":958,"o":"m 4 0 l 18 74 l 181 85 l 199 85 l 192 0 l 4 0 m 122 0 l 214 499 q 252 713 233 606 q 289 926 271 819 l 442 926 l 350 429 q 311 215 331 322 q 274 0 292 107 l 122 0 m 151 851 l 164 926 l 347 926 l 340 842 l 318 842 l 151 851 m 208 0 l 214 76 l 407 76 q 577 117 504 76 q 699 224 650 157 q 774 374 749 290 q 799 543 799 457 q 724 772 799 696 q 503 849 649 849 l 360 849 l 367 926 l 542 926 q 765 881 671 926 q 908 749 858 835 q 958 540 958 664 q 917 324 958 422 q 803 152 876 225 q 627 40 729 79 q 403 0 525 0 l 208 0 m 418 1222 l 601 1067 l 526 1067 l 771 1222 l 804 1181 l 596 999 l 521 999 l 372 1188 l 418 1222 z "},"Đ":{"ha":982,"x_min":4,"x_max":958,"o":"m 560 439 l 69 439 l 81 511 l 572 511 l 560 439 m 4 0 l 18 74 l 181 85 l 199 85 l 192 0 l 4 0 m 122 0 l 214 499 q 252 713 233 606 q 289 926 271 819 l 442 926 l 350 429 q 311 215 331 322 q 274 0 292 107 l 122 0 m 151 851 l 164 926 l 347 926 l 340 842 l 318 842 l 151 851 m 208 0 l 214 76 l 407 76 q 577 117 504 76 q 699 224 650 157 q 774 374 749 290 q 799 543 799 457 q 724 772 799 696 q 503 849 649 849 l 360 849 l 367 926 l 542 926 q 765 881 671 926 q 908 749 858 835 q 958 540 958 664 q 917 324 958 422 q 803 152 876 225 q 627 40 729 79 q 403 0 525 0 l 208 0 z "},"Ḍ":{"ha":982,"x_min":4,"x_max":958,"o":"m 4 0 l 18 74 l 181 85 l 199 85 l 192 0 l 4 0 m 122 0 l 214 499 q 252 713 233 606 q 289 926 271 819 l 442 926 l 350 429 q 311 215 331 322 q 274 0 292 107 l 122 0 m 151 851 l 164 926 l 347 926 l 340 842 l 318 842 l 151 851 m 208 0 l 214 76 l 407 76 q 577 117 504 76 q 699 224 650 157 q 774 374 749 290 q 799 543 799 457 q 724 772 799 696 q 503 849 649 849 l 360 849 l 367 926 l 542 926 q 765 881 671 926 q 908 749 858 835 q 958 540 958 664 q 917 324 958 422 q 803 152 876 225 q 627 40 729 79 q 403 0 525 0 l 208 0 z "},"Ḏ":{"ha":982,"x_min":4,"x_max":958,"o":"m 4 0 l 18 74 l 181 85 l 199 85 l 192 0 l 4 0 m 122 0 l 214 499 q 252 713 233 606 q 289 926 271 819 l 442 926 l 350 429 q 311 215 331 322 q 274 0 292 107 l 122 0 m 151 851 l 164 926 l 347 926 l 340 842 l 318 842 l 151 851 m 208 0 l 214 76 l 407 76 q 577 117 504 76 q 699 224 650 157 q 774 374 749 290 q 799 543 799 457 q 724 772 799 696 q 503 849 649 849 l 360 849 l 367 926 l 542 926 q 765 881 671 926 q 908 749 858 835 q 958 540 958 664 q 917 324 958 422 q 803 152 876 225 q 627 40 729 79 q 403 0 525 0 l 208 0 z "},"È":{"ha":838,"x_min":4,"x_max":835,"o":"m 4 0 l 18 74 l 182 85 l 199 85 l 192 0 l 4 0 m 122 0 l 214 499 q 252 713 233 606 q 289 926 271 819 l 442 926 l 350 429 q 311 215 331 322 q 274 0 292 107 l 122 0 m 151 851 l 164 926 l 346 926 l 338 842 l 318 842 l 151 851 m 215 0 l 222 79 l 688 79 l 592 13 l 688 251 l 772 251 l 718 0 l 215 0 m 285 436 l 292 511 l 594 511 l 588 436 l 285 436 m 364 846 l 371 926 l 835 926 l 799 681 l 713 681 l 710 903 l 763 846 l 364 846 m 535 313 l 536 460 l 540 490 l 593 635 l 667 635 l 607 313 l 535 313 m 596 1040 l 560 990 q 470 1036 515 1013 q 381 1082 425 1060 q 323 1124 340 1103 q 306 1165 306 1144 q 322 1206 306 1190 q 365 1221 339 1221 q 410 1208 389 1221 q 463 1167 432 1196 q 530 1103 496 1135 q 596 1040 564 1072 z "},"É":{"ha":838,"x_min":4,"x_max":835,"o":"m 4 0 l 18 74 l 182 85 l 199 85 l 192 0 l 4 0 m 122 0 l 214 499 q 252 713 233 606 q 289 926 271 819 l 442 926 l 350 429 q 311 215 331 322 q 274 0 292 107 l 122 0 m 151 851 l 164 926 l 346 926 l 338 842 l 318 842 l 151 851 m 215 0 l 222 79 l 688 79 l 592 13 l 688 251 l 772 251 l 718 0 l 215 0 m 285 436 l 292 511 l 594 511 l 588 436 l 285 436 m 364 846 l 371 926 l 835 926 l 799 681 l 713 681 l 710 903 l 763 846 l 364 846 m 535 313 l 536 460 l 540 490 l 593 635 l 667 635 l 607 313 l 535 313 m 433 1033 q 511 1099 472 1067 q 590 1163 550 1131 q 644 1203 624 1190 q 690 1215 665 1215 q 733 1200 717 1215 q 750 1160 750 1185 q 734 1118 750 1136 q 676 1081 718 1100 q 569 1033 622 1057 q 463 985 515 1010 l 433 1033 z "},"Ê":{"ha":838,"x_min":4,"x_max":835,"o":"m 4 0 l 18 74 l 182 85 l 199 85 l 192 0 l 4 0 m 122 0 l 214 499 q 252 713 233 606 q 289 926 271 819 l 442 926 l 350 429 q 311 215 331 322 q 274 0 292 107 l 122 0 m 151 851 l 164 926 l 346 926 l 338 842 l 318 842 l 151 851 m 215 0 l 222 79 l 688 79 l 592 13 l 688 251 l 772 251 l 718 0 l 215 0 m 285 436 l 292 511 l 594 511 l 588 436 l 285 436 m 364 846 l 371 926 l 835 926 l 799 681 l 713 681 l 710 903 l 763 846 l 364 846 m 535 313 l 536 460 l 540 490 l 593 635 l 667 635 l 607 313 l 535 313 m 610 1201 l 765 1025 l 722 985 l 515 1135 l 614 1135 l 363 985 l 332 1028 l 540 1201 l 610 1201 z "},"Ě":{"ha":838,"x_min":4,"x_max":835,"o":"m 4 0 l 18 74 l 182 85 l 199 85 l 192 0 l 4 0 m 122 0 l 214 499 q 252 713 233 606 q 289 926 271 819 l 442 926 l 350 429 q 311 215 331 322 q 274 0 292 107 l 122 0 m 151 851 l 164 926 l 346 926 l 338 842 l 318 842 l 151 851 m 215 0 l 222 79 l 688 79 l 592 13 l 688 251 l 772 251 l 718 0 l 215 0 m 285 436 l 292 511 l 594 511 l 588 436 l 285 436 m 364 846 l 371 926 l 835 926 l 799 681 l 713 681 l 710 903 l 763 846 l 364 846 m 535 313 l 536 460 l 540 490 l 593 635 l 667 635 l 607 313 l 535 313 m 403 1222 l 586 1067 l 511 1067 l 756 1222 l 789 1181 l 581 999 l 506 999 l 357 1188 l 403 1222 z "},"Ë":{"ha":838,"x_min":4,"x_max":835,"o":"m 4 0 l 18 74 l 182 85 l 199 85 l 192 0 l 4 0 m 122 0 l 214 499 q 252 713 233 606 q 289 926 271 819 l 442 926 l 350 429 q 311 215 331 322 q 274 0 292 107 l 122 0 m 151 851 l 164 926 l 346 926 l 338 842 l 318 842 l 151 851 m 215 0 l 222 79 l 688 79 l 592 13 l 688 251 l 772 251 l 718 0 l 215 0 m 285 436 l 292 511 l 594 511 l 588 436 l 285 436 m 364 846 l 371 926 l 835 926 l 799 681 l 713 681 l 710 903 l 763 846 l 364 846 m 535 313 l 536 460 l 540 490 l 593 635 l 667 635 l 607 313 l 535 313 m 394 1024 q 342 1043 364 1024 q 321 1094 321 1063 q 347 1158 321 1132 q 408 1185 372 1185 q 462 1165 442 1185 q 482 1114 482 1144 q 457 1050 482 1076 q 394 1024 432 1024 m 704 1024 q 653 1043 675 1024 q 632 1094 632 1063 q 658 1158 632 1132 q 719 1185 683 1185 q 772 1165 751 1185 q 793 1114 793 1144 q 767 1050 793 1076 q 704 1024 742 1024 z "},"Ē":{"ha":838,"x_min":4,"x_max":835,"o":"m 4 0 l 18 74 l 182 85 l 199 85 l 192 0 l 4 0 m 122 0 l 214 499 q 252 713 233 606 q 289 926 271 819 l 442 926 l 350 429 q 311 215 331 322 q 274 0 292 107 l 122 0 m 151 851 l 164 926 l 346 926 l 338 842 l 318 842 l 151 851 m 215 0 l 222 79 l 688 79 l 592 13 l 688 251 l 772 251 l 718 0 l 215 0 m 285 436 l 292 511 l 594 511 l 588 436 l 285 436 m 364 846 l 371 926 l 835 926 l 799 681 l 713 681 l 710 903 l 763 846 l 364 846 m 535 313 l 536 460 l 540 490 l 593 635 l 667 635 l 607 313 l 535 313 m 356 1042 l 376 1138 l 761 1138 l 740 1042 l 356 1042 z "},"Ė":{"ha":838,"x_min":4,"x_max":835,"o":"m 4 0 l 18 74 l 182 85 l 199 85 l 192 0 l 4 0 m 122 0 l 214 499 q 252 713 233 606 q 289 926 271 819 l 442 926 l 350 429 q 311 215 331 322 q 274 0 292 107 l 122 0 m 151 851 l 164 926 l 346 926 l 338 842 l 318 842 l 151 851 m 215 0 l 222 79 l 688 79 l 592 13 l 688 251 l 772 251 l 718 0 l 215 0 m 285 436 l 292 511 l 594 511 l 588 436 l 285 436 m 364 846 l 371 926 l 835 926 l 799 681 l 713 681 l 710 903 l 763 846 l 364 846 m 535 313 l 536 460 l 540 490 l 593 635 l 667 635 l 607 313 l 535 313 m 553 1007 q 494 1030 517 1007 q 471 1090 471 1053 q 499 1160 471 1129 q 567 1190 526 1190 q 627 1167 604 1190 q 650 1108 650 1144 q 622 1038 650 1068 q 553 1007 594 1007 z "},"Ę":{"ha":838,"x_min":4,"x_max":835,"o":"m 4 0 l 18 74 l 182 85 l 199 85 l 192 0 l 4 0 m 122 0 l 214 499 q 252 713 233 606 q 289 926 271 819 l 442 926 l 350 429 q 311 215 331 322 q 274 0 292 107 l 122 0 m 151 851 l 164 926 l 346 926 l 338 842 l 318 842 l 151 851 m 215 0 l 222 79 l 688 79 l 592 13 l 688 251 l 772 251 l 718 0 l 215 0 m 285 436 l 292 511 l 594 511 l 588 436 l 285 436 m 364 846 l 371 926 l 835 926 l 799 681 l 713 681 l 710 903 l 763 846 l 364 846 m 535 313 l 536 460 l 540 490 l 593 635 l 667 635 l 607 313 l 535 313 m 544 -322 q 444 -290 479 -322 q 408 -204 408 -258 q 429 -124 408 -160 q 485 -60 450 -89 q 563 -4 521 -31 l 563 15 l 622 15 q 564 -47 589 -17 q 524 -108 539 -78 q 510 -172 510 -139 q 530 -229 510 -211 q 582 -247 550 -247 q 612 -244 597 -247 q 639 -235 626 -242 l 658 -283 q 607 -311 635 -300 q 544 -322 579 -322 z "},"Ĕ":{"ha":838,"x_min":4,"x_max":835,"o":"m 4 0 l 18 74 l 182 85 l 199 85 l 192 0 l 4 0 m 122 0 l 214 499 q 252 713 233 606 q 289 926 271 819 l 442 926 l 350 429 q 311 215 331 322 q 274 0 292 107 l 122 0 m 151 851 l 164 926 l 346 926 l 338 842 l 318 842 l 151 851 m 215 0 l 222 79 l 688 79 l 592 13 l 688 251 l 772 251 l 718 0 l 215 0 m 285 436 l 292 511 l 594 511 l 588 436 l 285 436 m 364 846 l 371 926 l 835 926 l 799 681 l 713 681 l 710 903 l 763 846 l 364 846 m 535 313 l 536 460 l 540 490 l 593 635 l 667 635 l 607 313 l 535 313 m 539 1010 q 437 1033 478 1010 q 373 1098 396 1057 q 343 1189 350 1139 l 397 1211 q 454 1135 415 1167 q 554 1104 493 1104 q 657 1134 615 1104 q 729 1211 699 1164 l 779 1190 q 731 1104 761 1146 q 653 1036 700 1063 q 539 1010 606 1010 z "},"Ế":{"ha":838,"x_min":4,"x_max":889,"o":"m 4 0 l 18 74 l 182 85 l 199 85 l 192 0 l 4 0 m 122 0 l 214 499 q 252 713 233 606 q 289 926 271 819 l 442 926 l 350 429 q 311 215 331 322 q 274 0 292 107 l 122 0 m 151 851 l 164 926 l 346 926 l 338 842 l 318 842 l 151 851 m 215 0 l 222 79 l 688 79 l 592 13 l 688 251 l 772 251 l 718 0 l 215 0 m 285 436 l 292 511 l 594 511 l 588 436 l 285 436 m 364 846 l 371 926 l 835 926 l 799 681 l 713 681 l 710 903 l 763 846 l 364 846 m 535 313 l 536 460 l 540 490 l 593 635 l 667 635 l 607 313 l 535 313 m 365 975 l 333 1018 l 535 1188 l 600 1188 l 760 1015 l 718 975 l 514 1118 l 610 1118 l 365 975 m 732 1113 l 693 1154 l 761 1244 q 802 1287 785 1275 q 839 1299 819 1299 q 875 1285 861 1299 q 889 1249 889 1271 q 877 1213 889 1231 q 838 1179 865 1196 l 732 1113 z "},"Ệ":{"ha":838,"x_min":4,"x_max":835,"o":"m 4 0 l 18 74 l 182 85 l 199 85 l 192 0 l 4 0 m 122 0 l 214 499 q 252 713 233 606 q 289 926 271 819 l 442 926 l 350 429 q 311 215 331 322 q 274 0 292 107 l 122 0 m 151 851 l 164 926 l 346 926 l 338 842 l 318 842 l 151 851 m 215 0 l 222 79 l 688 79 l 592 13 l 688 251 l 772 251 l 718 0 l 215 0 m 285 436 l 292 511 l 594 511 l 588 436 l 285 436 m 364 846 l 371 926 l 835 926 l 799 681 l 713 681 l 710 903 l 763 846 l 364 846 m 535 313 l 536 460 l 540 490 l 593 635 l 667 635 l 607 313 l 535 313 m 610 1201 l 765 1025 l 722 985 l 515 1135 l 614 1135 l 363 985 l 332 1028 l 540 1201 l 610 1201 z "},"Ề":{"ha":838,"x_min":4,"x_max":835,"o":"m 4 0 l 18 74 l 182 85 l 199 85 l 192 0 l 4 0 m 122 0 l 214 499 q 252 713 233 606 q 289 926 271 819 l 442 926 l 350 429 q 311 215 331 322 q 274 0 292 107 l 122 0 m 151 851 l 164 926 l 346 926 l 338 842 l 318 842 l 151 851 m 215 0 l 222 79 l 688 79 l 592 13 l 688 251 l 772 251 l 718 0 l 215 0 m 285 436 l 292 511 l 594 511 l 588 436 l 285 436 m 364 846 l 371 926 l 835 926 l 799 681 l 713 681 l 710 903 l 763 846 l 364 846 m 535 313 l 536 460 l 540 490 l 593 635 l 667 635 l 607 313 l 535 313 m 365 975 l 333 1018 l 535 1188 l 600 1188 l 760 1015 l 718 975 l 514 1118 l 610 1118 l 365 975 m 393 1121 l 313 1168 q 263 1203 278 1188 q 249 1240 249 1219 q 265 1278 249 1264 q 301 1292 281 1292 q 341 1281 324 1292 q 375 1246 358 1271 l 435 1161 l 393 1121 z "},"Ể":{"ha":838,"x_min":4,"x_max":867,"o":"m 4 0 l 18 74 l 182 85 l 199 85 l 192 0 l 4 0 m 122 0 l 214 499 q 252 713 233 606 q 289 926 271 819 l 442 926 l 350 429 q 311 215 331 322 q 274 0 292 107 l 122 0 m 151 851 l 164 926 l 346 926 l 338 842 l 318 842 l 151 851 m 215 0 l 222 79 l 688 79 l 592 13 l 688 251 l 772 251 l 718 0 l 215 0 m 285 436 l 292 511 l 594 511 l 588 436 l 285 436 m 364 846 l 371 926 l 835 926 l 799 681 l 713 681 l 710 903 l 763 846 l 364 846 m 535 313 l 536 460 l 540 490 l 593 635 l 667 635 l 607 313 l 535 313 m 365 975 l 333 1018 l 535 1188 l 600 1188 l 760 1015 l 718 975 l 514 1118 l 610 1118 l 365 975 m 728 1100 l 719 1150 q 772 1167 756 1157 q 788 1194 788 1176 q 765 1224 788 1214 q 690 1239 743 1233 l 717 1342 q 828 1304 790 1333 q 867 1219 867 1275 q 828 1139 867 1168 q 728 1100 789 1110 z "},"Ễ":{"ha":838,"x_min":4,"x_max":835,"o":"m 4 0 l 18 74 l 182 85 l 199 85 l 192 0 l 4 0 m 122 0 l 214 499 q 252 713 233 606 q 289 926 271 819 l 442 926 l 350 429 q 311 215 331 322 q 274 0 292 107 l 122 0 m 151 851 l 164 926 l 346 926 l 338 842 l 318 842 l 151 851 m 215 0 l 222 79 l 688 79 l 592 13 l 688 251 l 772 251 l 718 0 l 215 0 m 285 436 l 292 511 l 594 511 l 588 436 l 285 436 m 364 846 l 371 926 l 835 926 l 799 681 l 713 681 l 710 903 l 763 846 l 364 846 m 535 313 l 536 460 l 540 490 l 593 635 l 667 635 l 607 313 l 535 313 m 365 975 l 333 1018 l 535 1185 l 600 1185 l 760 1015 l 718 975 l 514 1114 l 610 1114 l 365 975 m 393 1200 l 346 1218 q 394 1315 360 1279 q 485 1351 429 1351 q 540 1343 517 1351 q 586 1321 563 1335 q 630 1299 611 1307 q 672 1290 649 1290 q 721 1306 701 1290 q 753 1351 740 1322 l 800 1335 q 753 1236 786 1272 q 664 1200 719 1200 q 610 1209 633 1200 q 563 1231 586 1218 q 518 1253 538 1244 q 475 1261 499 1261 q 426 1246 446 1261 q 393 1200 407 1231 z "},"Ẹ":{"ha":838,"x_min":4,"x_max":835,"o":"m 4 0 l 18 74 l 182 85 l 199 85 l 192 0 l 4 0 m 122 0 l 214 499 q 252 713 233 606 q 289 926 271 819 l 442 926 l 350 429 q 311 215 331 322 q 274 0 292 107 l 122 0 m 151 851 l 164 926 l 346 926 l 338 842 l 318 842 l 151 851 m 215 0 l 222 79 l 688 79 l 592 13 l 688 251 l 772 251 l 718 0 l 215 0 m 285 436 l 292 511 l 594 511 l 588 436 l 285 436 m 364 846 l 371 926 l 835 926 l 799 681 l 713 681 l 710 903 l 763 846 l 364 846 m 535 313 l 536 460 l 540 490 l 593 635 l 667 635 l 607 313 l 535 313 z "},"Ẻ":{"ha":838,"x_min":4,"x_max":835,"o":"m 4 0 l 18 74 l 182 85 l 199 85 l 192 0 l 4 0 m 122 0 l 214 499 q 252 713 233 606 q 289 926 271 819 l 442 926 l 350 429 q 311 215 331 322 q 274 0 292 107 l 122 0 m 151 851 l 164 926 l 346 926 l 338 842 l 318 842 l 151 851 m 215 0 l 222 79 l 688 79 l 592 13 l 688 251 l 772 251 l 718 0 l 215 0 m 285 436 l 292 511 l 594 511 l 588 436 l 285 436 m 364 846 l 371 926 l 835 926 l 799 681 l 713 681 l 710 903 l 763 846 l 364 846 m 535 313 l 536 460 l 540 490 l 593 635 l 667 635 l 607 313 l 535 313 m 529 990 l 519 1040 q 578 1058 560 1047 q 597 1090 597 1069 q 572 1120 597 1110 q 489 1136 546 1131 l 515 1239 q 638 1201 596 1231 q 679 1118 679 1171 q 638 1031 679 1061 q 529 990 596 1000 z "},"Ẽ":{"ha":838,"x_min":4,"x_max":835,"o":"m 4 0 l 18 74 l 182 85 l 199 85 l 192 0 l 4 0 m 122 0 l 214 499 q 252 713 233 606 q 289 926 271 819 l 442 926 l 350 429 q 311 215 331 322 q 274 0 292 107 l 122 0 m 151 851 l 164 926 l 346 926 l 338 842 l 318 842 l 151 851 m 215 0 l 222 79 l 688 79 l 592 13 l 688 251 l 772 251 l 718 0 l 215 0 m 285 436 l 292 511 l 594 511 l 588 436 l 285 436 m 364 846 l 371 926 l 835 926 l 799 681 l 713 681 l 710 903 l 763 846 l 364 846 m 535 313 l 536 460 l 540 490 l 593 635 l 667 635 l 607 313 l 535 313 m 315 1018 q 384 1151 343 1107 q 481 1196 425 1196 q 536 1184 514 1196 q 578 1153 558 1172 q 617 1118 599 1136 q 661 1100 635 1100 q 713 1122 690 1100 q 757 1194 736 1144 l 806 1175 q 737 1044 778 1089 q 642 999 696 999 q 585 1010 608 999 q 543 1039 563 1022 q 503 1076 522 1058 q 458 1094 485 1094 q 408 1072 431 1094 q 364 1000 385 1050 l 315 1018 z "},"Ğ":{"ha":933,"x_min":71,"x_max":929,"o":"m 71 379 q 97 563 71 476 q 172 719 124 649 q 287 842 219 790 q 437 921 354 893 q 611 949 519 949 q 717 940 669 949 q 806 917 765 932 q 878 883 846 903 l 846 676 l 758 676 l 751 875 l 821 817 q 735 855 786 842 q 619 868 683 868 q 487 844 547 868 q 378 774 426 819 q 296 669 329 729 q 244 538 263 610 q 226 388 226 465 q 265 206 226 279 q 371 94 303 132 q 526 56 439 56 q 618 65 578 56 q 703 90 658 75 l 617 35 l 633 128 q 660 288 647 207 q 686 447 674 368 l 832 447 l 758 39 q 641 -4 707 14 q 486 -22 575 -22 q 265 26 358 -22 q 122 165 172 75 q 71 379 71 256 m 536 374 l 550 447 l 929 447 l 915 374 l 767 363 l 707 363 l 536 374 m 617 1010 q 515 1033 556 1010 q 451 1098 474 1057 q 421 1189 428 1139 l 475 1211 q 532 1135 493 1167 q 632 1104 571 1104 q 735 1134 693 1104 q 807 1211 776 1164 l 857 1190 q 808 1104 839 1146 q 731 1036 778 1063 q 617 1010 683 1010 z "},"Ġ":{"ha":933,"x_min":71,"x_max":929,"o":"m 71 379 q 97 563 71 476 q 172 719 124 649 q 287 842 219 790 q 437 921 354 893 q 611 949 519 949 q 717 940 669 949 q 806 917 765 932 q 878 883 846 903 l 846 676 l 758 676 l 751 875 l 821 817 q 735 855 786 842 q 619 868 683 868 q 487 844 547 868 q 378 774 426 819 q 296 669 329 729 q 244 538 263 610 q 226 388 226 465 q 265 206 226 279 q 371 94 303 132 q 526 56 439 56 q 618 65 578 56 q 703 90 658 75 l 617 35 l 633 128 q 660 288 647 207 q 686 447 674 368 l 832 447 l 758 39 q 641 -4 707 14 q 486 -22 575 -22 q 265 26 358 -22 q 122 165 172 75 q 71 379 71 256 m 536 374 l 550 447 l 929 447 l 915 374 l 767 363 l 707 363 l 536 374 m 631 1007 q 572 1030 594 1007 q 549 1090 549 1053 q 576 1160 549 1129 q 644 1190 604 1190 q 705 1167 682 1190 q 728 1108 728 1144 q 700 1038 728 1068 q 631 1007 672 1007 z "},"Ģ":{"ha":933,"x_min":71,"x_max":929,"o":"m 71 379 q 97 563 71 476 q 172 719 124 649 q 287 842 219 790 q 437 921 354 893 q 611 949 519 949 q 717 940 669 949 q 806 917 765 932 q 878 883 846 903 l 846 676 l 758 676 l 751 875 l 821 817 q 735 855 786 842 q 619 868 683 868 q 487 844 547 868 q 378 774 426 819 q 296 669 329 729 q 244 538 263 610 q 226 388 226 465 q 265 206 226 279 q 371 94 303 132 q 526 56 439 56 q 618 65 578 56 q 703 90 658 75 l 617 35 l 633 128 q 660 288 647 207 q 686 447 674 368 l 832 447 l 758 39 q 641 -4 707 14 q 486 -22 575 -22 q 265 26 358 -22 q 122 165 172 75 q 71 379 71 256 m 536 374 l 550 447 l 929 447 l 915 374 l 767 363 l 707 363 l 536 374 m 533 -164 q 513 -258 533 -218 q 453 -327 492 -299 q 360 -372 414 -356 l 336 -324 q 394 -295 371 -310 q 433 -263 418 -281 q 461 -224 449 -246 l 467 -264 q 405 -224 426 -250 q 383 -167 383 -199 q 406 -110 383 -133 q 469 -86 428 -86 q 500 -91 488 -86 q 521 -103 513 -96 q 530 -131 526 -115 q 533 -164 533 -146 z "},"Ǧ":{"ha":933,"x_min":71,"x_max":929,"o":"m 71 379 q 97 563 71 476 q 172 719 124 649 q 287 842 219 790 q 437 921 354 893 q 611 949 519 949 q 717 940 669 949 q 806 917 765 932 q 878 883 846 903 l 846 676 l 758 676 l 751 875 l 821 817 q 735 855 786 842 q 619 868 683 868 q 487 844 547 868 q 378 774 426 819 q 296 669 329 729 q 244 538 263 610 q 226 388 226 465 q 265 206 226 279 q 371 94 303 132 q 526 56 439 56 q 618 65 578 56 q 703 90 658 75 l 617 35 l 633 128 q 660 288 647 207 q 686 447 674 368 l 832 447 l 758 39 q 641 -4 707 14 q 486 -22 575 -22 q 265 26 358 -22 q 122 165 172 75 q 71 379 71 256 m 536 374 l 550 447 l 929 447 l 915 374 l 767 363 l 707 363 l 536 374 m 481 1222 l 664 1067 l 589 1067 l 833 1222 l 867 1181 l 658 999 l 583 999 l 435 1188 l 481 1222 z "},"Ĝ":{"ha":933,"x_min":71,"x_max":929,"o":"m 71 379 q 97 563 71 476 q 172 719 124 649 q 287 842 219 790 q 437 921 354 893 q 611 949 519 949 q 717 940 669 949 q 806 917 765 932 q 878 883 846 903 l 846 676 l 758 676 l 751 875 l 821 817 q 735 855 786 842 q 619 868 683 868 q 487 844 547 868 q 378 774 426 819 q 296 669 329 729 q 244 538 263 610 q 226 388 226 465 q 265 206 226 279 q 371 94 303 132 q 526 56 439 56 q 618 65 578 56 q 703 90 658 75 l 617 35 l 633 128 q 660 288 647 207 q 686 447 674 368 l 832 447 l 758 39 q 641 -4 707 14 q 486 -22 575 -22 q 265 26 358 -22 q 122 165 172 75 q 71 379 71 256 m 536 374 l 550 447 l 929 447 l 915 374 l 767 363 l 707 363 l 536 374 m 688 1201 l 843 1025 l 800 985 l 593 1135 l 692 1135 l 440 985 l 410 1028 l 618 1201 l 688 1201 z "},"Ḡ":{"ha":933,"x_min":71,"x_max":929,"o":"m 71 379 q 97 563 71 476 q 172 719 124 649 q 287 842 219 790 q 437 921 354 893 q 611 949 519 949 q 717 940 669 949 q 806 917 765 932 q 878 883 846 903 l 846 676 l 758 676 l 751 875 l 821 817 q 735 855 786 842 q 619 868 683 868 q 487 844 547 868 q 378 774 426 819 q 296 669 329 729 q 244 538 263 610 q 226 388 226 465 q 265 206 226 279 q 371 94 303 132 q 526 56 439 56 q 618 65 578 56 q 703 90 658 75 l 617 35 l 633 128 q 660 288 647 207 q 686 447 674 368 l 832 447 l 758 39 q 641 -4 707 14 q 486 -22 575 -22 q 265 26 358 -22 q 122 165 172 75 q 71 379 71 256 m 536 374 l 550 447 l 929 447 l 915 374 l 767 363 l 707 363 l 536 374 m 433 1042 l 454 1138 l 839 1138 l 818 1042 l 433 1042 z "},"Ħ":{"ha":1076,"x_min":4,"x_max":1117,"o":"m 4 0 l 19 74 l 196 85 l 238 85 l 413 74 l 399 0 l 4 0 m 122 0 l 214 499 q 252 713 233 606 q 289 926 271 819 l 442 926 l 350 429 q 311 215 331 322 q 274 0 292 107 l 122 0 m 151 851 l 164 926 l 557 926 l 544 851 l 371 842 l 328 842 l 151 851 m 565 0 l 578 74 l 754 85 l 797 85 l 972 74 l 958 0 l 565 0 m 681 0 l 772 499 q 810 713 792 606 q 847 926 829 819 l 1000 926 l 908 429 q 870 215 889 322 q 833 0 851 107 l 681 0 m 711 851 l 724 926 l 1117 926 l 1104 851 l 929 842 l 886 842 l 711 851 m 278 401 l 278 476 l 835 476 l 835 401 l 278 401 m 99 633 l 111 703 l 1104 703 l 1090 633 l 99 633 z "},"Ḫ":{"ha":1076,"x_min":4,"x_max":1117,"o":"m 4 0 l 19 74 l 196 85 l 238 85 l 413 74 l 399 0 l 4 0 m 122 0 l 214 499 q 252 713 233 606 q 289 926 271 819 l 442 926 l 350 429 q 311 215 331 322 q 274 0 292 107 l 122 0 m 151 851 l 164 926 l 557 926 l 544 851 l 371 842 l 328 842 l 151 851 m 279 436 l 279 511 l 844 511 l 844 436 l 279 436 m 565 0 l 578 74 l 754 85 l 797 85 l 972 74 l 958 0 l 565 0 m 681 0 l 772 499 q 810 713 792 606 q 847 926 829 819 l 1000 926 l 908 429 q 870 215 889 322 q 833 0 851 107 l 681 0 m 711 851 l 724 926 l 1117 926 l 1104 851 l 929 842 l 886 842 l 711 851 z "},"Ĥ":{"ha":1076,"x_min":4,"x_max":1117,"o":"m 4 0 l 19 74 l 196 85 l 238 85 l 413 74 l 399 0 l 4 0 m 122 0 l 214 499 q 252 713 233 606 q 289 926 271 819 l 442 926 l 350 429 q 311 215 331 322 q 274 0 292 107 l 122 0 m 151 851 l 164 926 l 557 926 l 544 851 l 371 842 l 328 842 l 151 851 m 279 436 l 279 511 l 844 511 l 844 436 l 279 436 m 565 0 l 578 74 l 754 85 l 797 85 l 972 74 l 958 0 l 565 0 m 681 0 l 772 499 q 810 713 792 606 q 847 926 829 819 l 1000 926 l 908 429 q 870 215 889 322 q 833 0 851 107 l 681 0 m 711 851 l 724 926 l 1117 926 l 1104 851 l 929 842 l 886 842 l 711 851 m 714 1201 l 869 1025 l 826 985 l 619 1135 l 718 1135 l 467 985 l 436 1028 l 644 1201 l 714 1201 z "},"Ḥ":{"ha":1076,"x_min":4,"x_max":1117,"o":"m 4 0 l 19 74 l 196 85 l 238 85 l 413 74 l 399 0 l 4 0 m 122 0 l 214 499 q 252 713 233 606 q 289 926 271 819 l 442 926 l 350 429 q 311 215 331 322 q 274 0 292 107 l 122 0 m 151 851 l 164 926 l 557 926 l 544 851 l 371 842 l 328 842 l 151 851 m 279 436 l 279 511 l 844 511 l 844 436 l 279 436 m 565 0 l 578 74 l 754 85 l 797 85 l 972 74 l 958 0 l 565 0 m 681 0 l 772 499 q 810 713 792 606 q 847 926 829 819 l 1000 926 l 908 429 q 870 215 889 322 q 833 0 851 107 l 681 0 m 711 851 l 724 926 l 1117 926 l 1104 851 l 929 842 l 886 842 l 711 851 z "},"Ì":{"ha":517,"x_min":4,"x_max":558,"o":"m 4 0 l 18 74 l 194 85 l 238 85 l 413 74 l 399 0 l 4 0 m 122 0 l 214 499 q 252 713 233 606 q 289 926 271 819 l 442 926 l 350 429 q 311 215 331 322 q 274 0 292 107 l 122 0 m 151 851 l 164 926 l 558 926 l 544 851 l 371 842 l 328 842 l 151 851 m 431 1040 l 394 990 q 305 1036 350 1013 q 215 1082 260 1060 q 158 1124 175 1103 q 140 1165 140 1144 q 157 1206 140 1190 q 200 1221 174 1221 q 245 1208 224 1221 q 297 1167 267 1196 q 365 1103 331 1135 q 431 1040 399 1072 z "},"Í":{"ha":517,"x_min":4,"x_max":585,"o":"m 4 0 l 18 74 l 194 85 l 238 85 l 413 74 l 399 0 l 4 0 m 122 0 l 214 499 q 252 713 233 606 q 289 926 271 819 l 442 926 l 350 429 q 311 215 331 322 q 274 0 292 107 l 122 0 m 151 851 l 164 926 l 558 926 l 544 851 l 371 842 l 328 842 l 151 851 m 268 1033 q 346 1099 307 1067 q 425 1163 385 1131 q 479 1203 458 1190 q 525 1215 500 1215 q 568 1200 551 1215 q 585 1160 585 1185 q 569 1118 585 1136 q 511 1081 553 1100 q 403 1033 457 1057 q 297 985 350 1010 l 268 1033 z "},"Î":{"ha":517,"x_min":4,"x_max":600,"o":"m 4 0 l 18 74 l 194 85 l 238 85 l 413 74 l 399 0 l 4 0 m 122 0 l 214 499 q 252 713 233 606 q 289 926 271 819 l 442 926 l 350 429 q 311 215 331 322 q 274 0 292 107 l 122 0 m 151 851 l 164 926 l 558 926 l 544 851 l 371 842 l 328 842 l 151 851 m 444 1201 l 600 1025 l 557 985 l 350 1135 l 449 1135 l 197 985 l 167 1028 l 375 1201 l 444 1201 z "},"Ï":{"ha":517,"x_min":4,"x_max":604,"o":"m 260 1024 q 208 1043 229 1024 q 188 1094 188 1063 q 213 1158 188 1132 q 275 1185 238 1185 q 327 1165 307 1185 q 347 1114 347 1144 q 322 1050 347 1076 q 260 1024 297 1024 m 515 1024 q 465 1043 486 1024 q 443 1094 443 1063 q 468 1158 443 1132 q 531 1185 493 1185 q 583 1165 563 1185 q 604 1114 604 1144 q 578 1050 604 1076 q 515 1024 553 1024 m 4 0 l 18 74 l 194 85 l 238 85 l 413 74 l 399 0 l 4 0 m 122 0 l 214 499 q 252 713 233 606 q 289 926 271 819 l 442 926 l 350 429 q 311 215 331 322 q 274 0 292 107 l 122 0 m 151 851 l 164 926 l 558 926 l 544 851 l 371 842 l 328 842 l 151 851 z "},"Ī":{"ha":517,"x_min":4,"x_max":594,"o":"m 4 0 l 18 74 l 194 85 l 238 85 l 413 74 l 399 0 l 4 0 m 122 0 l 214 499 q 252 713 233 606 q 289 926 271 819 l 442 926 l 350 429 q 311 215 331 322 q 274 0 292 107 l 122 0 m 151 851 l 164 926 l 558 926 l 544 851 l 371 842 l 328 842 l 151 851 m 190 1042 l 211 1138 l 596 1138 l 575 1042 l 190 1042 z "},"İ":{"ha":517,"x_min":4,"x_max":558,"o":"m 4 0 l 18 74 l 194 85 l 238 85 l 413 74 l 399 0 l 4 0 m 122 0 l 214 499 q 252 713 233 606 q 289 926 271 819 l 442 926 l 350 429 q 311 215 331 322 q 274 0 292 107 l 122 0 m 151 851 l 164 926 l 558 926 l 544 851 l 371 842 l 328 842 l 151 851 m 388 1007 q 328 1030 351 1007 q 306 1090 306 1053 q 333 1160 306 1129 q 401 1190 361 1190 q 462 1167 439 1190 q 485 1108 485 1144 q 457 1038 485 1068 q 388 1007 429 1007 z "},"Į":{"ha":517,"x_min":4,"x_max":558,"o":"m 4 0 l 18 74 l 194 85 l 238 85 l 413 74 l 399 0 l 4 0 m 122 0 l 214 499 q 252 713 233 606 q 289 926 271 819 l 442 926 l 350 429 q 311 215 331 322 q 274 0 292 107 l 122 0 m 151 851 l 164 926 l 558 926 l 544 851 l 371 842 l 328 842 l 151 851 m 201 -322 q 101 -290 136 -322 q 65 -204 65 -258 q 86 -124 65 -160 q 142 -60 107 -89 q 219 -4 178 -31 l 219 15 l 279 15 q 221 -47 246 -17 q 181 -108 196 -78 q 167 -172 167 -139 q 187 -229 167 -211 q 239 -247 207 -247 q 269 -244 254 -247 q 296 -235 283 -242 l 315 -283 q 264 -311 292 -300 q 201 -322 236 -322 z "},"Ǐ":{"ha":517,"x_min":4,"x_max":624,"o":"m 4 0 l 18 74 l 194 85 l 238 85 l 413 74 l 399 0 l 4 0 m 122 0 l 214 499 q 252 713 233 606 q 289 926 271 819 l 442 926 l 350 429 q 311 215 331 322 q 274 0 292 107 l 122 0 m 151 851 l 164 926 l 558 926 l 544 851 l 371 842 l 328 842 l 151 851 m 238 1222 l 421 1067 l 346 1067 l 590 1222 l 624 1181 l 415 999 l 340 999 l 192 1188 l 238 1222 z "},"Ị":{"ha":517,"x_min":4,"x_max":558,"o":"m 4 0 l 18 74 l 194 85 l 238 85 l 413 74 l 399 0 l 4 0 m 122 0 l 214 499 q 252 713 233 606 q 289 926 271 819 l 442 926 l 350 429 q 311 215 331 322 q 274 0 292 107 l 122 0 m 151 851 l 164 926 l 558 926 l 544 851 l 371 842 l 328 842 l 151 851 z "},"Ỉ":{"ha":517,"x_min":4,"x_max":558,"o":"m 4 0 l 18 74 l 194 85 l 238 85 l 413 74 l 399 0 l 4 0 m 122 0 l 214 499 q 252 713 233 606 q 289 926 271 819 l 442 926 l 350 429 q 311 215 331 322 q 274 0 292 107 l 122 0 m 151 851 l 164 926 l 558 926 l 544 851 l 371 842 l 328 842 l 151 851 m 364 990 l 354 1040 q 413 1058 394 1047 q 432 1090 432 1069 q 406 1120 432 1110 q 324 1136 381 1131 l 350 1239 q 472 1201 431 1231 q 514 1118 514 1171 q 472 1031 514 1061 q 364 990 431 1000 z "},"Ĩ":{"ha":517,"x_min":4,"x_max":640,"o":"m 4 0 l 18 74 l 194 85 l 238 85 l 413 74 l 399 0 l 4 0 m 122 0 l 214 499 q 252 713 233 606 q 289 926 271 819 l 442 926 l 350 429 q 311 215 331 322 q 274 0 292 107 l 122 0 m 151 851 l 164 926 l 558 926 l 544 851 l 371 842 l 328 842 l 151 851 m 150 1018 q 219 1151 178 1107 q 315 1196 260 1196 q 371 1184 349 1196 q 413 1153 393 1172 q 451 1118 433 1136 q 496 1100 469 1100 q 548 1122 525 1100 q 592 1194 571 1144 l 640 1175 q 572 1044 613 1089 q 476 999 531 999 q 420 1010 443 999 q 378 1039 397 1022 q 338 1076 357 1058 q 293 1094 319 1094 q 242 1072 265 1094 q 199 1000 219 1050 l 150 1018 z "},"Ĵ":{"ha":507,"x_min":-150,"x_max":610,"o":"m -150 -114 q -119 -65 -144 -85 q -53 -46 -93 -46 q -11 -54 -31 -46 q 31 -82 8 -62 q 85 -136 54 -101 l 61 -132 l 78 -132 l 60 -132 q 99 -77 82 -107 q 131 -9 117 -47 q 154 78 144 29 q 169 155 161 115 q 183 239 176 194 q 199 336 190 283 q 218 453 207 389 q 260 685 239 568 q 301 926 282 801 l 456 926 l 344 350 q 324 242 333 292 q 306 153 315 193 q 285 81 296 114 q 258 18 274 47 q 192 -84 232 -36 q 100 -161 151 -132 q -14 -190 49 -190 q -108 -170 -71 -190 q -150 -114 -144 -150 m 150 851 l 164 926 l 575 926 l 561 851 l 383 842 l 339 842 l 150 851 m 454 1201 l 610 1025 l 567 985 l 360 1135 l 458 1135 l 207 985 l 176 1028 l 385 1201 l 454 1201 z "},"Ķ":{"ha":965,"x_min":4,"x_max":1018,"o":"m 4 0 l 17 74 l 193 85 l 236 85 l 404 74 l 390 0 l 4 0 m 121 0 l 213 499 q 251 713 232 606 q 288 926 269 819 l 440 926 l 349 429 q 310 215 329 322 q 274 0 292 107 l 121 0 m 150 851 l 164 926 l 550 926 l 536 851 l 369 842 l 326 842 l 150 851 m 267 308 l 263 414 l 318 414 l 393 493 l 871 926 l 975 926 l 267 308 m 692 0 l 438 493 l 544 589 l 857 0 l 692 0 m 535 0 l 547 74 l 707 85 l 761 85 l 921 74 l 910 0 l 535 0 m 675 851 l 688 926 l 1018 926 l 1003 851 l 854 842 l 808 842 l 675 851 m 507 -164 q 486 -258 507 -218 q 426 -327 465 -299 q 333 -372 388 -356 l 310 -324 q 368 -295 344 -310 q 407 -263 392 -281 q 435 -224 422 -246 l 440 -264 q 378 -224 400 -250 q 357 -167 357 -199 q 379 -110 357 -133 q 443 -86 401 -86 q 474 -91 461 -86 q 494 -103 486 -96 q 503 -131 500 -115 q 507 -164 507 -146 z "},"Ĺ":{"ha":811,"x_min":4,"x_max":761,"o":"m 4 0 l 18 74 l 181 85 l 199 85 l 192 0 l 4 0 m 122 0 l 214 499 q 252 713 233 606 q 289 926 271 819 l 442 926 l 350 429 q 311 215 331 322 q 274 0 292 107 l 122 0 m 151 851 l 164 926 l 572 926 l 558 851 l 376 842 l 326 842 l 151 851 m 215 0 l 222 79 l 675 79 l 574 13 l 674 274 l 761 274 l 707 0 l 215 0 m 263 1033 q 340 1099 301 1067 q 419 1163 379 1131 q 474 1203 453 1190 q 519 1215 494 1215 q 563 1200 546 1215 q 579 1160 579 1185 q 563 1118 579 1136 q 506 1081 547 1100 q 398 1033 451 1057 q 292 985 344 1010 l 263 1033 z "},"Ľ":{"ha":811,"x_min":4,"x_max":843,"o":"m 786 978 q 830 964 817 978 q 843 929 843 950 q 834 883 843 910 q 810 824 825 856 q 775 760 794 793 l 721 661 l 671 664 l 733 969 q 757 976 744 975 q 786 978 769 978 m 4 0 l 18 74 l 181 85 l 199 85 l 192 0 l 4 0 m 122 0 l 214 499 q 252 713 233 606 q 289 926 271 819 l 442 926 l 350 429 q 311 215 331 322 q 274 0 292 107 l 122 0 m 151 851 l 164 926 l 572 926 l 558 851 l 376 842 l 326 842 l 151 851 m 215 0 l 222 79 l 675 79 l 574 13 l 674 274 l 761 274 l 707 0 l 215 0 z "},"Ļ":{"ha":811,"x_min":4,"x_max":761,"o":"m 4 0 l 18 74 l 181 85 l 199 85 l 192 0 l 4 0 m 122 0 l 214 499 q 252 713 233 606 q 289 926 271 819 l 442 926 l 350 429 q 311 215 331 322 q 274 0 292 107 l 122 0 m 151 851 l 164 926 l 572 926 l 558 851 l 376 842 l 326 842 l 151 851 m 215 0 l 222 79 l 675 79 l 574 13 l 674 274 l 761 274 l 707 0 l 215 0 m 436 -164 q 415 -258 436 -218 q 356 -327 394 -299 q 263 -372 317 -356 l 239 -324 q 297 -295 274 -310 q 336 -263 321 -281 q 364 -224 351 -246 l 369 -264 q 308 -224 329 -250 q 286 -167 286 -199 q 308 -110 286 -133 q 372 -86 331 -86 q 403 -91 390 -86 q 424 -103 415 -96 q 433 -131 429 -115 q 436 -164 436 -146 z "},"Ŀ":{"ha":811,"x_min":4,"x_max":788,"o":"m 4 0 l 18 74 l 181 85 l 199 85 l 192 0 l 4 0 m 122 0 l 214 499 q 252 713 233 606 q 289 926 271 819 l 442 926 l 350 429 q 311 215 331 322 q 274 0 292 107 l 122 0 m 151 851 l 164 926 l 572 926 l 558 851 l 376 842 l 326 842 l 151 851 m 215 0 l 222 79 l 675 79 l 574 13 l 674 274 l 761 274 l 707 0 l 215 0 z "},"Ḷ":{"ha":811,"x_min":4,"x_max":761,"o":"m 4 0 l 18 74 l 181 85 l 199 85 l 192 0 l 4 0 m 122 0 l 214 499 q 252 713 233 606 q 289 926 271 819 l 442 926 l 350 429 q 311 215 331 322 q 274 0 292 107 l 122 0 m 151 851 l 164 926 l 572 926 l 558 851 l 376 842 l 326 842 l 151 851 m 215 0 l 222 79 l 675 79 l 574 13 l 674 274 l 761 274 l 707 0 l 215 0 z "},"Ḹ":{"ha":811,"x_min":4,"x_max":761,"o":"m 4 0 l 18 74 l 181 85 l 199 85 l 192 0 l 4 0 m 122 0 l 214 499 q 252 713 233 606 q 289 926 271 819 l 442 926 l 350 429 q 311 215 331 322 q 274 0 292 107 l 122 0 m 151 851 l 164 926 l 572 926 l 558 851 l 376 842 l 326 842 l 151 851 m 215 0 l 222 79 l 675 79 l 574 13 l 674 274 l 761 274 l 707 0 l 215 0 m 185 1042 l 206 1138 l 590 1138 l 569 1042 l 185 1042 z "},"Ḻ":{"ha":811,"x_min":4,"x_max":761,"o":"m 4 0 l 18 74 l 181 85 l 199 85 l 192 0 l 4 0 m 122 0 l 214 499 q 252 713 233 606 q 289 926 271 819 l 442 926 l 350 429 q 311 215 331 322 q 274 0 292 107 l 122 0 m 151 851 l 164 926 l 572 926 l 558 851 l 376 842 l 326 842 l 151 851 m 215 0 l 222 79 l 675 79 l 574 13 l 674 274 l 761 274 l 707 0 l 215 0 z "},"Ł":{"ha":811,"x_min":4,"x_max":761,"o":"m 611 663 l 593 574 l 276 413 l 296 501 l 611 663 m 281 504 l 261 415 l 43 304 l 60 393 l 281 504 m 4 0 l 18 74 l 181 85 l 199 85 l 192 0 l 4 0 m 122 0 l 214 499 q 252 713 233 606 q 289 926 271 819 l 442 926 l 350 429 q 311 215 331 322 q 274 0 292 107 l 122 0 m 151 851 l 164 926 l 572 926 l 558 851 l 376 842 l 326 842 l 151 851 m 215 0 l 222 79 l 675 79 l 574 13 l 674 274 l 761 274 l 707 0 l 215 0 z "},"Ḿ":{"ha":1292,"x_min":-19,"x_max":1306,"o":"m -19 0 l -6 74 l 139 85 l 176 85 l 335 74 l 321 0 l -19 0 m 101 0 l 315 911 l 385 911 l 285 438 l 185 0 l 101 0 m 500 0 l 357 800 l 336 808 l 333 843 l 181 851 l 194 926 l 490 926 l 618 157 l 604 157 l 697 351 l 1019 926 l 1090 926 l 1090 822 l 1036 822 l 943 636 l 583 0 l 500 0 m 792 0 l 803 75 l 981 85 l 1018 85 l 1196 75 l 1185 0 l 792 0 m 910 0 l 1033 872 l 1064 926 l 1185 926 l 1118 438 q 1088 219 1103 329 q 1061 0 1074 108 l 910 0 m 1103 842 l 1104 926 l 1306 926 l 1294 851 l 1129 842 l 1103 842 m 651 1033 q 729 1099 690 1067 q 808 1163 768 1131 q 863 1203 842 1190 q 908 1215 883 1215 q 951 1200 935 1215 q 968 1160 968 1185 q 952 1118 968 1136 q 894 1081 936 1100 q 787 1033 840 1057 q 681 985 733 1010 l 651 1033 z "},"Ṃ":{"ha":1292,"x_min":-19,"x_max":1306,"o":"m -19 0 l -6 74 l 139 85 l 176 85 l 335 74 l 321 0 l -19 0 m 101 0 l 315 911 l 385 911 l 285 438 l 185 0 l 101 0 m 500 0 l 357 800 l 336 808 l 333 843 l 181 851 l 194 926 l 490 926 l 618 157 l 604 157 l 697 351 l 1019 926 l 1090 926 l 1090 822 l 1036 822 l 943 636 l 583 0 l 500 0 m 792 0 l 803 75 l 981 85 l 1018 85 l 1196 75 l 1185 0 l 792 0 m 910 0 l 1033 872 l 1064 926 l 1185 926 l 1118 438 q 1088 219 1103 329 q 1061 0 1074 108 l 910 0 m 1103 842 l 1104 926 l 1306 926 l 1294 851 l 1129 842 l 1103 842 z "},"Ń":{"ha":1026,"x_min":-3,"x_max":1097,"o":"m -3 0 l 11 74 l 156 85 l 188 85 l 354 74 l 342 0 l -3 0 m 113 0 l 283 913 l 354 913 l 276 431 l 199 0 l 113 0 m 739 851 l 753 926 l 1097 926 l 1085 851 l 943 842 l 911 842 l 739 851 m 822 182 l 767 101 l 822 507 l 899 926 l 983 926 l 813 -6 l 707 -6 l 326 789 l 303 794 l 293 844 l 147 851 l 161 926 l 429 926 l 778 182 l 822 182 m 517 1033 q 594 1099 556 1067 q 674 1163 633 1131 q 728 1203 707 1190 q 774 1215 749 1215 q 817 1200 800 1215 q 833 1160 833 1185 q 817 1118 833 1136 q 760 1081 801 1100 q 652 1033 706 1057 q 546 985 599 1010 l 517 1033 z "},"Ň":{"ha":1026,"x_min":-3,"x_max":1097,"o":"m -3 0 l 11 74 l 156 85 l 188 85 l 354 74 l 342 0 l -3 0 m 113 0 l 283 913 l 354 913 l 276 431 l 199 0 l 113 0 m 739 851 l 753 926 l 1097 926 l 1085 851 l 943 842 l 911 842 l 739 851 m 822 182 l 767 101 l 822 507 l 899 926 l 983 926 l 813 -6 l 707 -6 l 326 789 l 303 794 l 293 844 l 147 851 l 161 926 l 429 926 l 778 182 l 822 182 m 486 1222 l 669 1067 l 594 1067 l 839 1222 l 872 1181 l 664 999 l 589 999 l 440 1188 l 486 1222 z "},"Ǹ":{"ha":1026,"x_min":-3,"x_max":1097,"o":"m -3 0 l 11 74 l 156 85 l 188 85 l 354 74 l 342 0 l -3 0 m 113 0 l 283 913 l 354 913 l 276 431 l 199 0 l 113 0 m 739 851 l 753 926 l 1097 926 l 1085 851 l 943 842 l 911 842 l 739 851 m 822 182 l 767 101 l 822 507 l 899 926 l 983 926 l 813 -6 l 707 -6 l 326 789 l 303 794 l 293 844 l 147 851 l 161 926 l 429 926 l 778 182 l 822 182 m 679 1040 l 643 990 q 553 1036 599 1013 q 464 1082 508 1060 q 406 1124 424 1103 q 389 1165 389 1144 q 406 1206 389 1190 q 449 1221 422 1221 q 494 1208 472 1221 q 546 1167 515 1196 q 613 1103 579 1135 q 679 1040 647 1072 z "},"Ñ":{"ha":1026,"x_min":-3,"x_max":1097,"o":"m -3 0 l 11 74 l 156 85 l 188 85 l 354 74 l 342 0 l -3 0 m 113 0 l 283 913 l 354 913 l 276 431 l 199 0 l 113 0 m 739 851 l 753 926 l 1097 926 l 1085 851 l 943 842 l 911 842 l 739 851 m 822 182 l 767 101 l 822 507 l 899 926 l 983 926 l 813 -6 l 707 -6 l 326 789 l 303 794 l 293 844 l 147 851 l 161 926 l 429 926 l 778 182 l 822 182 m 399 1018 q 467 1151 426 1107 q 564 1196 508 1196 q 619 1184 597 1196 q 661 1153 642 1172 q 700 1118 682 1136 q 744 1100 718 1100 q 797 1122 774 1100 q 840 1194 819 1144 l 889 1175 q 820 1044 861 1089 q 725 999 779 999 q 669 1010 692 999 q 626 1039 646 1022 q 587 1076 606 1058 q 542 1094 568 1094 q 491 1072 514 1094 q 447 1000 468 1050 l 399 1018 z "},"Ņ":{"ha":1026,"x_min":-3,"x_max":1097,"o":"m -3 0 l 11 74 l 156 85 l 188 85 l 354 74 l 342 0 l -3 0 m 113 0 l 283 913 l 354 913 l 276 431 l 199 0 l 113 0 m 739 851 l 753 926 l 1097 926 l 1085 851 l 943 842 l 911 842 l 739 851 m 822 182 l 767 101 l 822 507 l 899 926 l 983 926 l 813 -6 l 707 -6 l 326 789 l 303 794 l 293 844 l 147 851 l 161 926 l 429 926 l 778 182 l 822 182 m 538 -164 q 517 -258 538 -218 q 457 -327 496 -299 q 364 -372 418 -356 l 340 -324 q 399 -295 375 -310 q 438 -263 422 -281 q 465 -224 453 -246 l 471 -264 q 409 -224 431 -250 q 388 -167 388 -199 q 410 -110 388 -133 q 474 -86 432 -86 q 504 -91 492 -86 q 525 -103 517 -96 q 534 -131 531 -115 q 538 -164 538 -146 z "},"Ṅ":{"ha":1026,"x_min":-3,"x_max":1097,"o":"m -3 0 l 11 74 l 156 85 l 188 85 l 354 74 l 342 0 l -3 0 m 113 0 l 283 913 l 354 913 l 276 431 l 199 0 l 113 0 m 739 851 l 753 926 l 1097 926 l 1085 851 l 943 842 l 911 842 l 739 851 m 822 182 l 767 101 l 822 507 l 899 926 l 983 926 l 813 -6 l 707 -6 l 326 789 l 303 794 l 293 844 l 147 851 l 161 926 l 429 926 l 778 182 l 822 182 m 636 1007 q 577 1030 600 1007 q 554 1090 554 1053 q 582 1160 554 1129 q 650 1190 610 1190 q 710 1167 688 1190 q 733 1108 733 1144 q 706 1038 733 1068 q 636 1007 678 1007 z "},"Ṇ":{"ha":1026,"x_min":-3,"x_max":1097,"o":"m -3 0 l 11 74 l 156 85 l 188 85 l 354 74 l 342 0 l -3 0 m 113 0 l 283 913 l 354 913 l 276 431 l 199 0 l 113 0 m 739 851 l 753 926 l 1097 926 l 1085 851 l 943 842 l 911 842 l 739 851 m 822 182 l 767 101 l 822 507 l 899 926 l 983 926 l 813 -6 l 707 -6 l 326 789 l 303 794 l 293 844 l 147 851 l 161 926 l 429 926 l 778 182 l 822 182 z "},"Ṉ":{"ha":1026,"x_min":-3,"x_max":1097,"o":"m -3 0 l 11 74 l 156 85 l 188 85 l 354 74 l 342 0 l -3 0 m 113 0 l 283 913 l 354 913 l 276 431 l 199 0 l 113 0 m 739 851 l 753 926 l 1097 926 l 1085 851 l 943 842 l 911 842 l 739 851 m 822 182 l 767 101 l 822 507 l 899 926 l 983 926 l 813 -6 l 707 -6 l 326 789 l 303 794 l 293 844 l 147 851 l 161 926 l 429 926 l 778 182 l 822 182 z "},"Ò":{"ha":943,"x_min":78,"x_max":924,"o":"m 422 -22 q 242 22 319 -22 q 121 149 164 65 q 78 353 78 233 q 101 535 78 447 q 168 697 124 622 q 274 828 213 772 q 413 917 336 885 q 576 949 489 949 q 758 904 681 949 q 880 776 836 860 q 924 574 924 693 q 900 392 924 479 q 832 228 876 304 q 726 97 788 153 q 588 9 664 40 q 422 -22 511 -22 m 436 57 q 528 77 485 57 q 608 133 572 97 q 674 217 644 168 q 724 325 704 265 q 756 452 744 385 q 767 590 767 519 q 744 743 767 681 q 677 837 722 806 q 564 868 632 868 q 472 849 515 868 q 392 794 429 829 q 326 710 354 758 q 276 602 297 661 q 244 476 256 543 q 233 338 233 408 q 256 185 233 247 q 323 90 278 122 q 436 57 368 57 m 636 1040 l 600 990 q 510 1036 556 1013 q 421 1082 465 1060 q 363 1124 381 1103 q 346 1165 346 1144 q 363 1206 346 1190 q 406 1221 379 1221 q 451 1208 429 1221 q 503 1167 472 1196 q 570 1103 536 1135 q 636 1040 604 1072 z "},"Ó":{"ha":943,"x_min":78,"x_max":924,"o":"m 422 -22 q 242 22 319 -22 q 121 149 164 65 q 78 353 78 233 q 101 535 78 447 q 168 697 124 622 q 274 828 213 772 q 413 917 336 885 q 576 949 489 949 q 758 904 681 949 q 880 776 836 860 q 924 574 924 693 q 900 392 924 479 q 832 228 876 304 q 726 97 788 153 q 588 9 664 40 q 422 -22 511 -22 m 436 57 q 528 77 485 57 q 608 133 572 97 q 674 217 644 168 q 724 325 704 265 q 756 452 744 385 q 767 590 767 519 q 744 743 767 681 q 677 837 722 806 q 564 868 632 868 q 472 849 515 868 q 392 794 429 829 q 326 710 354 758 q 276 602 297 661 q 244 476 256 543 q 233 338 233 408 q 256 185 233 247 q 323 90 278 122 q 436 57 368 57 m 474 1033 q 551 1099 513 1067 q 631 1163 590 1131 q 685 1203 664 1190 q 731 1215 706 1215 q 774 1200 757 1215 q 790 1160 790 1185 q 774 1118 790 1136 q 717 1081 758 1100 q 609 1033 663 1057 q 503 985 556 1010 l 474 1033 z "},"Ŏ":{"ha":943,"x_min":78,"x_max":924,"o":"m 422 -22 q 242 22 319 -22 q 121 149 164 65 q 78 353 78 233 q 101 535 78 447 q 168 697 124 622 q 274 828 213 772 q 413 917 336 885 q 576 949 489 949 q 758 904 681 949 q 880 776 836 860 q 924 574 924 693 q 900 392 924 479 q 832 228 876 304 q 726 97 788 153 q 588 9 664 40 q 422 -22 511 -22 m 436 57 q 528 77 485 57 q 608 133 572 97 q 674 217 644 168 q 724 325 704 265 q 756 452 744 385 q 767 590 767 519 q 744 743 767 681 q 677 837 722 806 q 564 868 632 868 q 472 849 515 868 q 392 794 429 829 q 326 710 354 758 q 276 602 297 661 q 244 476 256 543 q 233 338 233 408 q 256 185 233 247 q 323 90 278 122 q 436 57 368 57 m 579 1010 q 477 1033 518 1010 q 413 1098 436 1057 q 383 1189 390 1139 l 438 1211 q 494 1135 456 1167 q 594 1104 533 1104 q 697 1134 656 1104 q 769 1211 739 1164 l 819 1190 q 771 1104 801 1146 q 693 1036 740 1063 q 579 1010 646 1010 z "},"Ô":{"ha":943,"x_min":78,"x_max":924,"o":"m 422 -22 q 242 22 319 -22 q 121 149 164 65 q 78 353 78 233 q 101 535 78 447 q 168 697 124 622 q 274 828 213 772 q 413 917 336 885 q 576 949 489 949 q 758 904 681 949 q 880 776 836 860 q 924 574 924 693 q 900 392 924 479 q 832 228 876 304 q 726 97 788 153 q 588 9 664 40 q 422 -22 511 -22 m 436 57 q 528 77 485 57 q 608 133 572 97 q 674 217 644 168 q 724 325 704 265 q 756 452 744 385 q 767 590 767 519 q 744 743 767 681 q 677 837 722 806 q 564 868 632 868 q 472 849 515 868 q 392 794 429 829 q 326 710 354 758 q 276 602 297 661 q 244 476 256 543 q 233 338 233 408 q 256 185 233 247 q 323 90 278 122 q 436 57 368 57 m 650 1201 l 806 1025 l 763 985 l 556 1135 l 654 1135 l 403 985 l 372 1028 l 581 1201 l 650 1201 z "},"Õ":{"ha":943,"x_min":78,"x_max":924,"o":"m 422 -22 q 242 22 319 -22 q 121 149 164 65 q 78 353 78 233 q 101 535 78 447 q 168 697 124 622 q 274 828 213 772 q 413 917 336 885 q 576 949 489 949 q 758 904 681 949 q 880 776 836 860 q 924 574 924 693 q 900 392 924 479 q 832 228 876 304 q 726 97 788 153 q 588 9 664 40 q 422 -22 511 -22 m 436 57 q 528 77 485 57 q 608 133 572 97 q 674 217 644 168 q 724 325 704 265 q 756 452 744 385 q 767 590 767 519 q 744 743 767 681 q 677 837 722 806 q 564 868 632 868 q 472 849 515 868 q 392 794 429 829 q 326 710 354 758 q 276 602 297 661 q 244 476 256 543 q 233 338 233 408 q 256 185 233 247 q 323 90 278 122 q 436 57 368 57 m 356 1018 q 424 1151 383 1107 q 521 1196 465 1196 q 576 1184 554 1196 q 618 1153 599 1172 q 657 1118 639 1136 q 701 1100 675 1100 q 753 1122 731 1100 q 797 1194 776 1144 l 846 1175 q 777 1044 818 1089 q 682 999 736 999 q 626 1010 649 999 q 583 1039 603 1022 q 544 1076 563 1058 q 499 1094 525 1094 q 448 1072 471 1094 q 404 1000 425 1050 l 356 1018 z "},"Ö":{"ha":943,"x_min":78,"x_max":924,"o":"m 422 -22 q 242 22 319 -22 q 121 149 164 65 q 78 353 78 233 q 101 535 78 447 q 168 697 124 622 q 274 828 213 772 q 413 917 336 885 q 576 949 489 949 q 758 904 681 949 q 880 776 836 860 q 924 574 924 693 q 900 392 924 479 q 832 228 876 304 q 726 97 788 153 q 588 9 664 40 q 422 -22 511 -22 m 436 57 q 528 77 485 57 q 608 133 572 97 q 674 217 644 168 q 724 325 704 265 q 756 452 744 385 q 767 590 767 519 q 744 743 767 681 q 677 837 722 806 q 564 868 632 868 q 472 849 515 868 q 392 794 429 829 q 326 710 354 758 q 276 602 297 661 q 244 476 256 543 q 233 338 233 408 q 256 185 233 247 q 323 90 278 122 q 436 57 368 57 m 435 1024 q 383 1043 404 1024 q 361 1094 361 1063 q 387 1158 361 1132 q 449 1185 413 1185 q 502 1165 482 1185 q 522 1114 522 1144 q 497 1050 522 1076 q 435 1024 472 1024 m 744 1024 q 694 1043 715 1024 q 672 1094 672 1063 q 698 1158 672 1132 q 760 1185 724 1185 q 813 1165 792 1185 q 833 1114 833 1144 q 808 1050 833 1076 q 744 1024 782 1024 z "},"Ō":{"ha":943,"x_min":78,"x_max":924,"o":"m 422 -22 q 242 22 319 -22 q 121 149 164 65 q 78 353 78 233 q 101 535 78 447 q 168 697 124 622 q 274 828 213 772 q 413 917 336 885 q 576 949 489 949 q 758 904 681 949 q 880 776 836 860 q 924 574 924 693 q 900 392 924 479 q 832 228 876 304 q 726 97 788 153 q 588 9 664 40 q 422 -22 511 -22 m 436 57 q 528 77 485 57 q 608 133 572 97 q 674 217 644 168 q 724 325 704 265 q 756 452 744 385 q 767 590 767 519 q 744 743 767 681 q 677 837 722 806 q 564 868 632 868 q 472 849 515 868 q 392 794 429 829 q 326 710 354 758 q 276 602 297 661 q 244 476 256 543 q 233 338 233 408 q 256 185 233 247 q 323 90 278 122 q 436 57 368 57 m 396 1042 l 417 1138 l 801 1138 l 781 1042 l 396 1042 z "},"Ő":{"ha":943,"x_min":78,"x_max":924,"o":"m 422 -22 q 242 22 319 -22 q 121 149 164 65 q 78 353 78 233 q 101 535 78 447 q 168 697 124 622 q 274 828 213 772 q 413 917 336 885 q 576 949 489 949 q 758 904 681 949 q 880 776 836 860 q 924 574 924 693 q 900 392 924 479 q 832 228 876 304 q 726 97 788 153 q 588 9 664 40 q 422 -22 511 -22 m 436 57 q 528 77 485 57 q 608 133 572 97 q 674 217 644 168 q 724 325 704 265 q 756 452 744 385 q 767 590 767 519 q 744 743 767 681 q 677 837 722 806 q 564 868 632 868 q 472 849 515 868 q 392 794 429 829 q 326 710 354 758 q 276 602 297 661 q 244 476 256 543 q 233 338 233 408 q 256 185 233 247 q 323 90 278 122 q 436 57 368 57 m 406 1025 l 514 1175 q 556 1220 536 1206 q 597 1235 575 1235 q 635 1223 621 1235 q 650 1189 650 1211 q 638 1151 650 1168 q 601 1111 626 1133 l 451 988 l 406 1025 m 643 1025 l 750 1175 q 792 1220 772 1206 q 833 1235 811 1235 q 871 1223 856 1235 q 886 1189 886 1211 q 874 1151 886 1168 q 838 1111 863 1133 l 688 988 l 643 1025 z "},"Ǒ":{"ha":943,"x_min":78,"x_max":924,"o":"m 422 -22 q 242 22 319 -22 q 121 149 164 65 q 78 353 78 233 q 101 535 78 447 q 168 697 124 622 q 274 828 213 772 q 413 917 336 885 q 576 949 489 949 q 758 904 681 949 q 880 776 836 860 q 924 574 924 693 q 900 392 924 479 q 832 228 876 304 q 726 97 788 153 q 588 9 664 40 q 422 -22 511 -22 m 436 57 q 528 77 485 57 q 608 133 572 97 q 674 217 644 168 q 724 325 704 265 q 756 452 744 385 q 767 590 767 519 q 744 743 767 681 q 677 837 722 806 q 564 868 632 868 q 472 849 515 868 q 392 794 429 829 q 326 710 354 758 q 276 602 297 661 q 244 476 256 543 q 233 338 233 408 q 256 185 233 247 q 323 90 278 122 q 436 57 368 57 m 443 1222 l 626 1067 l 551 1067 l 796 1222 l 829 1181 l 621 999 l 546 999 l 397 1188 l 443 1222 z "},"Ố":{"ha":943,"x_min":78,"x_max":931,"o":"m 422 -22 q 242 22 319 -22 q 121 149 164 65 q 78 353 78 233 q 101 535 78 447 q 168 697 124 622 q 274 828 213 772 q 413 917 336 885 q 576 949 489 949 q 758 904 681 949 q 880 776 836 860 q 924 574 924 693 q 900 392 924 479 q 832 228 876 304 q 726 97 788 153 q 588 9 664 40 q 422 -22 511 -22 m 436 57 q 528 77 485 57 q 608 133 572 97 q 674 217 644 168 q 724 325 704 265 q 756 452 744 385 q 767 590 767 519 q 744 743 767 681 q 677 837 722 806 q 564 868 632 868 q 472 849 515 868 q 392 794 429 829 q 326 710 354 758 q 276 602 297 661 q 244 476 256 543 q 233 338 233 408 q 256 185 233 247 q 323 90 278 122 q 436 57 368 57 m 406 975 l 374 1018 l 575 1188 l 640 1188 l 800 1015 l 758 975 l 554 1118 l 650 1118 l 406 975 m 772 1113 l 733 1154 l 801 1244 q 842 1287 825 1275 q 879 1299 860 1299 q 915 1285 901 1299 q 929 1249 929 1271 q 917 1213 929 1231 q 878 1179 906 1196 l 772 1113 z "},"Ộ":{"ha":943,"x_min":78,"x_max":924,"o":"m 422 -22 q 242 22 319 -22 q 121 149 164 65 q 78 353 78 233 q 101 535 78 447 q 168 697 124 622 q 274 828 213 772 q 413 917 336 885 q 576 949 489 949 q 758 904 681 949 q 880 776 836 860 q 924 574 924 693 q 900 392 924 479 q 832 228 876 304 q 726 97 788 153 q 588 9 664 40 q 422 -22 511 -22 m 436 57 q 528 77 485 57 q 608 133 572 97 q 674 217 644 168 q 724 325 704 265 q 756 452 744 385 q 767 590 767 519 q 744 743 767 681 q 677 837 722 806 q 564 868 632 868 q 472 849 515 868 q 392 794 429 829 q 326 710 354 758 q 276 602 297 661 q 244 476 256 543 q 233 338 233 408 q 256 185 233 247 q 323 90 278 122 q 436 57 368 57 m 650 1201 l 806 1025 l 763 985 l 556 1135 l 654 1135 l 403 985 l 372 1028 l 581 1201 l 650 1201 z "},"Ồ":{"ha":943,"x_min":78,"x_max":924,"o":"m 422 -22 q 242 22 319 -22 q 121 149 164 65 q 78 353 78 233 q 101 535 78 447 q 168 697 124 622 q 274 828 213 772 q 413 917 336 885 q 576 949 489 949 q 758 904 681 949 q 880 776 836 860 q 924 574 924 693 q 900 392 924 479 q 832 228 876 304 q 726 97 788 153 q 588 9 664 40 q 422 -22 511 -22 m 436 57 q 528 77 485 57 q 608 133 572 97 q 674 217 644 168 q 724 325 704 265 q 756 452 744 385 q 767 590 767 519 q 744 743 767 681 q 677 837 722 806 q 564 868 632 868 q 472 849 515 868 q 392 794 429 829 q 326 710 354 758 q 276 602 297 661 q 244 476 256 543 q 233 338 233 408 q 256 185 233 247 q 323 90 278 122 q 436 57 368 57 m 406 975 l 374 1018 l 575 1188 l 640 1188 l 800 1015 l 758 975 l 554 1118 l 650 1118 l 406 975 m 433 1121 l 353 1168 q 303 1203 318 1188 q 289 1240 289 1219 q 305 1278 289 1264 q 342 1292 321 1292 q 381 1281 364 1292 q 415 1246 399 1271 l 475 1161 l 433 1121 z "},"Ổ":{"ha":943,"x_min":78,"x_max":924,"o":"m 422 -22 q 242 22 319 -22 q 121 149 164 65 q 78 353 78 233 q 101 535 78 447 q 168 697 124 622 q 274 828 213 772 q 413 917 336 885 q 576 949 489 949 q 758 904 681 949 q 880 776 836 860 q 924 574 924 693 q 900 392 924 479 q 832 228 876 304 q 726 97 788 153 q 588 9 664 40 q 422 -22 511 -22 m 436 57 q 528 77 485 57 q 608 133 572 97 q 674 217 644 168 q 724 325 704 265 q 756 452 744 385 q 767 590 767 519 q 744 743 767 681 q 677 837 722 806 q 564 868 632 868 q 472 849 515 868 q 392 794 429 829 q 326 710 354 758 q 276 602 297 661 q 244 476 256 543 q 233 338 233 408 q 256 185 233 247 q 323 90 278 122 q 436 57 368 57 m 406 975 l 374 1018 l 575 1188 l 640 1188 l 800 1015 l 758 975 l 554 1118 l 650 1118 l 406 975 m 768 1100 l 760 1150 q 812 1167 796 1157 q 828 1194 828 1176 q 806 1224 828 1214 q 731 1239 783 1233 l 757 1342 q 869 1304 831 1333 q 907 1219 907 1275 q 868 1139 907 1168 q 768 1100 829 1110 z "},"Ỗ":{"ha":943,"x_min":78,"x_max":924,"o":"m 422 -22 q 242 22 319 -22 q 121 149 164 65 q 78 353 78 233 q 101 535 78 447 q 168 697 124 622 q 274 828 213 772 q 413 917 336 885 q 576 949 489 949 q 758 904 681 949 q 880 776 836 860 q 924 574 924 693 q 900 392 924 479 q 832 228 876 304 q 726 97 788 153 q 588 9 664 40 q 422 -22 511 -22 m 436 57 q 528 77 485 57 q 608 133 572 97 q 674 217 644 168 q 724 325 704 265 q 756 452 744 385 q 767 590 767 519 q 744 743 767 681 q 677 837 722 806 q 564 868 632 868 q 472 849 515 868 q 392 794 429 829 q 326 710 354 758 q 276 602 297 661 q 244 476 256 543 q 233 338 233 408 q 256 185 233 247 q 323 90 278 122 q 436 57 368 57 m 406 975 l 374 1018 l 575 1185 l 640 1185 l 800 1015 l 758 975 l 554 1114 l 650 1114 l 406 975 m 433 1200 l 386 1218 q 435 1315 400 1279 q 525 1351 469 1351 q 580 1343 557 1351 q 626 1321 603 1335 q 670 1299 651 1307 q 713 1290 689 1290 q 761 1306 742 1290 q 793 1351 781 1322 l 840 1335 q 793 1236 826 1272 q 704 1200 760 1200 q 650 1209 674 1200 q 603 1231 626 1218 q 558 1253 578 1244 q 515 1261 539 1261 q 467 1246 486 1261 q 433 1200 447 1231 z "},"Ọ":{"ha":943,"x_min":78,"x_max":924,"o":"m 422 -22 q 242 22 319 -22 q 121 149 164 65 q 78 353 78 233 q 101 535 78 447 q 168 697 124 622 q 274 828 213 772 q 413 917 336 885 q 576 949 489 949 q 758 904 681 949 q 880 776 836 860 q 924 574 924 693 q 900 392 924 479 q 832 228 876 304 q 726 97 788 153 q 588 9 664 40 q 422 -22 511 -22 m 436 57 q 528 77 485 57 q 608 133 572 97 q 674 217 644 168 q 724 325 704 265 q 756 452 744 385 q 767 590 767 519 q 744 743 767 681 q 677 837 722 806 q 564 868 632 868 q 472 849 515 868 q 392 794 429 829 q 326 710 354 758 q 276 602 297 661 q 244 476 256 543 q 233 338 233 408 q 256 185 233 247 q 323 90 278 122 q 436 57 368 57 z "},"Ỏ":{"ha":943,"x_min":78,"x_max":924,"o":"m 422 -22 q 242 22 319 -22 q 121 149 164 65 q 78 353 78 233 q 101 535 78 447 q 168 697 124 622 q 274 828 213 772 q 413 917 336 885 q 576 949 489 949 q 758 904 681 949 q 880 776 836 860 q 924 574 924 693 q 900 392 924 479 q 832 228 876 304 q 726 97 788 153 q 588 9 664 40 q 422 -22 511 -22 m 436 57 q 528 77 485 57 q 608 133 572 97 q 674 217 644 168 q 724 325 704 265 q 756 452 744 385 q 767 590 767 519 q 744 743 767 681 q 677 837 722 806 q 564 868 632 868 q 472 849 515 868 q 392 794 429 829 q 326 710 354 758 q 276 602 297 661 q 244 476 256 543 q 233 338 233 408 q 256 185 233 247 q 323 90 278 122 q 436 57 368 57 m 569 990 l 560 1040 q 619 1058 600 1047 q 638 1090 638 1069 q 612 1120 638 1110 q 529 1136 586 1131 l 556 1239 q 678 1201 636 1231 q 719 1118 719 1171 q 678 1031 719 1061 q 569 990 636 1000 z "},"Ơ":{"ha":943,"x_min":78,"x_max":1010,"o":"m 422 -22 q 242 22 319 -22 q 121 149 164 65 q 78 353 78 233 q 101 535 78 447 q 168 697 124 622 q 274 828 213 772 q 413 917 336 885 q 576 949 489 949 q 758 904 681 949 q 880 776 836 860 q 924 574 924 693 q 900 392 924 479 q 832 228 876 304 q 726 97 788 153 q 588 9 664 40 q 422 -22 511 -22 m 436 57 q 528 77 485 57 q 608 133 572 97 q 674 217 644 168 q 724 325 704 265 q 756 452 744 385 q 767 590 767 519 q 744 743 767 681 q 677 837 722 806 q 564 868 632 868 q 472 849 515 868 q 392 794 429 829 q 326 710 354 758 q 276 602 297 661 q 244 476 256 543 q 233 338 233 408 q 256 185 233 247 q 323 90 278 122 q 436 57 368 57 m 790 793 l 790 839 q 848 858 824 844 q 887 894 872 872 q 901 943 901 917 q 897 978 901 964 q 887 1008 892 993 q 882 1040 882 1022 q 901 1093 882 1072 q 953 1114 921 1114 q 980 1110 969 1114 q 1000 1099 990 1107 q 1008 1072 1006 1085 q 1010 1047 1010 1060 q 979 922 1010 976 q 899 833 949 867 q 790 793 849 799 z "},"Ớ":{"ha":943,"x_min":78,"x_max":1010,"o":"m 422 -22 q 242 22 319 -22 q 121 149 164 65 q 78 353 78 233 q 101 535 78 447 q 168 697 124 622 q 274 828 213 772 q 413 917 336 885 q 576 949 489 949 q 758 904 681 949 q 880 776 836 860 q 924 574 924 693 q 900 392 924 479 q 832 228 876 304 q 726 97 788 153 q 588 9 664 40 q 422 -22 511 -22 m 436 57 q 528 77 485 57 q 608 133 572 97 q 674 217 644 168 q 724 325 704 265 q 756 452 744 385 q 767 590 767 519 q 744 743 767 681 q 677 837 722 806 q 564 868 632 868 q 472 849 515 868 q 392 794 429 829 q 326 710 354 758 q 276 602 297 661 q 244 476 256 543 q 233 338 233 408 q 256 185 233 247 q 323 90 278 122 q 436 57 368 57 m 790 793 l 790 839 q 848 858 824 844 q 887 894 872 872 q 901 943 901 917 q 897 978 901 964 q 887 1008 892 993 q 882 1040 882 1022 q 901 1093 882 1072 q 953 1114 921 1114 q 980 1110 969 1114 q 1000 1099 990 1107 q 1008 1072 1006 1085 q 1010 1047 1010 1060 q 979 922 1010 976 q 899 833 949 867 q 790 793 849 799 m 474 1033 q 551 1099 513 1067 q 631 1163 590 1131 q 685 1203 664 1190 q 731 1215 706 1215 q 774 1200 757 1215 q 790 1160 790 1185 q 774 1118 790 1136 q 717 1081 758 1100 q 609 1033 663 1057 q 503 985 556 1010 l 474 1033 z "},"Ợ":{"ha":943,"x_min":78,"x_max":1010,"o":"m 422 -22 q 242 22 319 -22 q 121 149 164 65 q 78 353 78 233 q 101 535 78 447 q 168 697 124 622 q 274 828 213 772 q 413 917 336 885 q 576 949 489 949 q 758 904 681 949 q 880 776 836 860 q 924 574 924 693 q 900 392 924 479 q 832 228 876 304 q 726 97 788 153 q 588 9 664 40 q 422 -22 511 -22 m 436 57 q 528 77 485 57 q 608 133 572 97 q 674 217 644 168 q 724 325 704 265 q 756 452 744 385 q 767 590 767 519 q 744 743 767 681 q 677 837 722 806 q 564 868 632 868 q 472 849 515 868 q 392 794 429 829 q 326 710 354 758 q 276 602 297 661 q 244 476 256 543 q 233 338 233 408 q 256 185 233 247 q 323 90 278 122 q 436 57 368 57 m 790 793 l 790 839 q 848 858 824 844 q 887 894 872 872 q 901 943 901 917 q 897 978 901 964 q 887 1008 892 993 q 882 1040 882 1022 q 901 1093 882 1072 q 953 1114 921 1114 q 980 1110 969 1114 q 1000 1099 990 1107 q 1008 1072 1006 1085 q 1010 1047 1010 1060 q 979 922 1010 976 q 899 833 949 867 q 790 793 849 799 z "},"Ờ":{"ha":943,"x_min":78,"x_max":1010,"o":"m 422 -22 q 242 22 319 -22 q 121 149 164 65 q 78 353 78 233 q 101 535 78 447 q 168 697 124 622 q 274 828 213 772 q 413 917 336 885 q 576 949 489 949 q 758 904 681 949 q 880 776 836 860 q 924 574 924 693 q 900 392 924 479 q 832 228 876 304 q 726 97 788 153 q 588 9 664 40 q 422 -22 511 -22 m 436 57 q 528 77 485 57 q 608 133 572 97 q 674 217 644 168 q 724 325 704 265 q 756 452 744 385 q 767 590 767 519 q 744 743 767 681 q 677 837 722 806 q 564 868 632 868 q 472 849 515 868 q 392 794 429 829 q 326 710 354 758 q 276 602 297 661 q 244 476 256 543 q 233 338 233 408 q 256 185 233 247 q 323 90 278 122 q 436 57 368 57 m 790 793 l 790 839 q 848 858 824 844 q 887 894 872 872 q 901 943 901 917 q 897 978 901 964 q 887 1008 892 993 q 882 1040 882 1022 q 901 1093 882 1072 q 953 1114 921 1114 q 980 1110 969 1114 q 1000 1099 990 1107 q 1008 1072 1006 1085 q 1010 1047 1010 1060 q 979 922 1010 976 q 899 833 949 867 q 790 793 849 799 m 636 1040 l 600 990 q 510 1036 556 1013 q 421 1082 465 1060 q 363 1124 381 1103 q 346 1165 346 1144 q 363 1206 346 1190 q 406 1221 379 1221 q 451 1208 429 1221 q 503 1167 472 1196 q 570 1103 536 1135 q 636 1040 604 1072 z "},"Ở":{"ha":943,"x_min":78,"x_max":1010,"o":"m 422 -22 q 242 22 319 -22 q 121 149 164 65 q 78 353 78 233 q 101 535 78 447 q 168 697 124 622 q 274 828 213 772 q 413 917 336 885 q 576 949 489 949 q 758 904 681 949 q 880 776 836 860 q 924 574 924 693 q 900 392 924 479 q 832 228 876 304 q 726 97 788 153 q 588 9 664 40 q 422 -22 511 -22 m 436 57 q 528 77 485 57 q 608 133 572 97 q 674 217 644 168 q 724 325 704 265 q 756 452 744 385 q 767 590 767 519 q 744 743 767 681 q 677 837 722 806 q 564 868 632 868 q 472 849 515 868 q 392 794 429 829 q 326 710 354 758 q 276 602 297 661 q 244 476 256 543 q 233 338 233 408 q 256 185 233 247 q 323 90 278 122 q 436 57 368 57 m 790 793 l 790 839 q 848 858 824 844 q 887 894 872 872 q 901 943 901 917 q 897 978 901 964 q 887 1008 892 993 q 882 1040 882 1022 q 901 1093 882 1072 q 953 1114 921 1114 q 980 1110 969 1114 q 1000 1099 990 1107 q 1008 1072 1006 1085 q 1010 1047 1010 1060 q 979 922 1010 976 q 899 833 949 867 q 790 793 849 799 m 569 990 l 560 1040 q 619 1058 600 1047 q 638 1090 638 1069 q 612 1120 638 1110 q 529 1136 586 1131 l 556 1239 q 678 1201 636 1231 q 719 1118 719 1171 q 678 1031 719 1061 q 569 990 636 1000 z "},"Ỡ":{"ha":943,"x_min":78,"x_max":1010,"o":"m 422 -22 q 242 22 319 -22 q 121 149 164 65 q 78 353 78 233 q 101 535 78 447 q 168 697 124 622 q 274 828 213 772 q 413 917 336 885 q 576 949 489 949 q 758 904 681 949 q 880 776 836 860 q 924 574 924 693 q 900 392 924 479 q 832 228 876 304 q 726 97 788 153 q 588 9 664 40 q 422 -22 511 -22 m 436 57 q 528 77 485 57 q 608 133 572 97 q 674 217 644 168 q 724 325 704 265 q 756 452 744 385 q 767 590 767 519 q 744 743 767 681 q 677 837 722 806 q 564 868 632 868 q 472 849 515 868 q 392 794 429 829 q 326 710 354 758 q 276 602 297 661 q 244 476 256 543 q 233 338 233 408 q 256 185 233 247 q 323 90 278 122 q 436 57 368 57 m 790 793 l 790 839 q 848 858 824 844 q 887 894 872 872 q 901 943 901 917 q 897 978 901 964 q 887 1008 892 993 q 882 1040 882 1022 q 901 1093 882 1072 q 953 1114 921 1114 q 980 1110 969 1114 q 1000 1099 990 1107 q 1008 1072 1006 1085 q 1010 1047 1010 1060 q 979 922 1010 976 q 899 833 949 867 q 790 793 849 799 m 356 1018 q 424 1151 383 1107 q 521 1196 465 1196 q 576 1184 554 1196 q 618 1153 599 1172 q 657 1118 639 1136 q 701 1100 675 1100 q 753 1122 731 1100 q 797 1194 776 1144 l 846 1175 q 777 1044 818 1089 q 682 999 736 999 q 626 1010 649 999 q 583 1039 603 1022 q 544 1076 563 1058 q 499 1094 525 1094 q 448 1072 471 1094 q 404 1000 425 1050 l 356 1018 z "},"Ø":{"ha":943,"x_min":1,"x_max":967,"o":"m 967 904 l 56 -29 l 1 22 l 913 956 l 967 904 m 421 -22 q 242 22 319 -22 q 121 149 164 65 q 78 353 78 233 q 101 535 78 447 q 170 697 125 622 q 278 828 215 772 q 416 917 340 885 q 578 949 492 949 q 759 904 682 949 q 880 776 836 860 q 924 574 924 692 q 899 392 924 479 q 830 228 875 304 q 723 97 785 153 q 585 9 661 40 q 421 -22 508 -22 m 433 57 q 526 76 482 57 q 609 132 571 96 q 678 217 647 168 q 731 325 710 265 q 764 451 751 385 q 776 589 776 518 q 753 748 776 686 q 683 840 729 810 q 567 869 636 869 q 474 850 518 869 q 391 795 429 831 q 322 710 353 760 q 270 602 292 661 q 236 476 249 543 q 224 339 224 410 q 247 179 224 242 q 317 87 271 117 q 433 57 364 57 z "},"Œ":{"ha":1253,"x_min":78,"x_max":1249,"o":"m 603 3 q 533 -13 571 -7 q 449 -19 496 -19 q 256 23 340 -19 q 125 148 172 65 q 78 354 78 231 q 103 535 78 447 q 174 697 128 622 q 285 828 221 772 q 431 917 350 885 q 601 949 511 949 q 695 941 651 949 q 774 921 739 933 l 765 838 q 725 853 749 846 q 672 864 701 860 q 610 868 643 868 q 485 842 543 868 q 381 767 428 815 q 301 652 335 718 q 251 508 268 586 q 233 344 233 429 q 262 186 233 249 q 344 92 290 124 q 469 60 397 60 q 518 63 494 60 q 565 72 542 67 q 608 83 588 76 l 603 3 m 543 0 l 635 499 q 673 713 654 606 q 710 926 692 819 l 863 926 l 769 429 q 731 215 750 322 q 694 0 713 107 l 543 0 m 633 0 l 640 79 l 1103 79 l 1006 13 l 1103 251 l 1188 251 l 1132 0 l 633 0 m 703 436 l 710 511 l 1013 511 l 1006 436 l 703 436 m 781 846 l 789 926 l 1249 926 l 1214 681 l 1126 681 l 1124 903 l 1178 846 l 781 846 m 953 311 l 954 460 l 958 490 l 1011 635 l 1085 635 l 1025 311 l 953 311 z "},"Ŕ":{"ha":913,"x_min":4,"x_max":886,"o":"m 4 0 l 18 74 l 194 85 l 236 85 l 424 74 l 411 0 l 4 0 m 122 0 l 214 499 q 252 713 233 606 q 289 926 271 819 l 442 926 l 350 429 q 311 215 331 322 q 274 0 292 107 l 122 0 m 151 851 l 164 926 l 367 926 l 361 842 l 326 842 l 151 851 m 763 -14 q 681 -1 715 -14 q 626 40 647 11 q 590 115 604 68 l 533 301 q 504 374 519 347 q 465 413 489 401 q 403 425 442 425 l 285 425 l 290 497 l 449 497 q 586 524 533 497 q 664 597 639 551 q 689 701 689 643 q 647 811 689 774 q 521 849 604 849 l 372 849 l 376 926 l 539 926 q 762 869 681 926 q 843 707 843 811 q 820 608 843 653 q 753 529 797 563 q 642 476 708 496 q 490 453 576 457 l 485 453 q 566 436 533 449 q 622 403 599 424 q 660 353 644 383 q 692 278 676 322 l 768 46 l 661 94 l 886 71 l 874 0 q 844 -6 860 -3 q 808 -12 828 -10 q 763 -14 789 -14 m 414 1033 q 492 1099 453 1067 q 571 1163 531 1131 q 625 1203 604 1190 q 671 1215 646 1215 q 714 1200 697 1215 q 731 1160 731 1185 q 715 1118 731 1136 q 657 1081 699 1100 q 549 1033 603 1057 q 443 985 496 1010 l 414 1033 z "},"Ř":{"ha":913,"x_min":4,"x_max":886,"o":"m 4 0 l 18 74 l 194 85 l 236 85 l 424 74 l 411 0 l 4 0 m 122 0 l 214 499 q 252 713 233 606 q 289 926 271 819 l 442 926 l 350 429 q 311 215 331 322 q 274 0 292 107 l 122 0 m 151 851 l 164 926 l 367 926 l 361 842 l 326 842 l 151 851 m 763 -14 q 681 -1 715 -14 q 626 40 647 11 q 590 115 604 68 l 533 301 q 504 374 519 347 q 465 413 489 401 q 403 425 442 425 l 285 425 l 290 497 l 449 497 q 586 524 533 497 q 664 597 639 551 q 689 701 689 643 q 647 811 689 774 q 521 849 604 849 l 372 849 l 376 926 l 539 926 q 762 869 681 926 q 843 707 843 811 q 820 608 843 653 q 753 529 797 563 q 642 476 708 496 q 490 453 576 457 l 485 453 q 566 436 533 449 q 622 403 599 424 q 660 353 644 383 q 692 278 676 322 l 768 46 l 661 94 l 886 71 l 874 0 q 844 -6 860 -3 q 808 -12 828 -10 q 763 -14 789 -14 m 383 1222 l 567 1067 l 492 1067 l 736 1222 l 769 1181 l 561 999 l 486 999 l 338 1188 l 383 1222 z "},"Ŗ":{"ha":913,"x_min":4,"x_max":886,"o":"m 4 0 l 18 74 l 194 85 l 236 85 l 424 74 l 411 0 l 4 0 m 122 0 l 214 499 q 252 713 233 606 q 289 926 271 819 l 442 926 l 350 429 q 311 215 331 322 q 274 0 292 107 l 122 0 m 151 851 l 164 926 l 367 926 l 361 842 l 326 842 l 151 851 m 763 -14 q 681 -1 715 -14 q 626 40 647 11 q 590 115 604 68 l 533 301 q 504 374 519 347 q 465 413 489 401 q 403 425 442 425 l 285 425 l 290 497 l 449 497 q 586 524 533 497 q 664 597 639 551 q 689 701 689 643 q 647 811 689 774 q 521 849 604 849 l 372 849 l 376 926 l 539 926 q 762 869 681 926 q 843 707 843 811 q 820 608 843 653 q 753 529 797 563 q 642 476 708 496 q 490 453 576 457 l 485 453 q 566 436 533 449 q 622 403 599 424 q 660 353 644 383 q 692 278 676 322 l 768 46 l 661 94 l 886 71 l 874 0 q 844 -6 860 -3 q 808 -12 828 -10 q 763 -14 789 -14 m 518 -164 q 497 -258 518 -218 q 438 -327 476 -299 q 344 -372 399 -356 l 321 -324 q 379 -295 356 -310 q 418 -263 403 -281 q 446 -224 433 -246 l 451 -264 q 390 -224 411 -250 q 368 -167 368 -199 q 390 -110 368 -133 q 454 -86 413 -86 q 485 -91 472 -86 q 506 -103 497 -96 q 515 -131 511 -115 q 518 -164 518 -146 z "},"Ṛ":{"ha":913,"x_min":4,"x_max":886,"o":"m 4 0 l 18 74 l 194 85 l 236 85 l 424 74 l 411 0 l 4 0 m 122 0 l 214 499 q 252 713 233 606 q 289 926 271 819 l 442 926 l 350 429 q 311 215 331 322 q 274 0 292 107 l 122 0 m 151 851 l 164 926 l 367 926 l 361 842 l 326 842 l 151 851 m 763 -14 q 681 -1 715 -14 q 626 40 647 11 q 590 115 604 68 l 533 301 q 504 374 519 347 q 465 413 489 401 q 403 425 442 425 l 285 425 l 290 497 l 449 497 q 586 524 533 497 q 664 597 639 551 q 689 701 689 643 q 647 811 689 774 q 521 849 604 849 l 372 849 l 376 926 l 539 926 q 762 869 681 926 q 843 707 843 811 q 820 608 843 653 q 753 529 797 563 q 642 476 708 496 q 490 453 576 457 l 485 453 q 566 436 533 449 q 622 403 599 424 q 660 353 644 383 q 692 278 676 322 l 768 46 l 661 94 l 886 71 l 874 0 q 844 -6 860 -3 q 808 -12 828 -10 q 763 -14 789 -14 z "},"Ṝ":{"ha":913,"x_min":4,"x_max":886,"o":"m 4 0 l 18 74 l 194 85 l 236 85 l 424 74 l 411 0 l 4 0 m 122 0 l 214 499 q 252 713 233 606 q 289 926 271 819 l 442 926 l 350 429 q 311 215 331 322 q 274 0 292 107 l 122 0 m 151 851 l 164 926 l 367 926 l 361 842 l 326 842 l 151 851 m 763 -14 q 681 -1 715 -14 q 626 40 647 11 q 590 115 604 68 l 533 301 q 504 374 519 347 q 465 413 489 401 q 403 425 442 425 l 285 425 l 290 497 l 449 497 q 586 524 533 497 q 664 597 639 551 q 689 701 689 643 q 647 811 689 774 q 521 849 604 849 l 372 849 l 376 926 l 539 926 q 762 869 681 926 q 843 707 843 811 q 820 608 843 653 q 753 529 797 563 q 642 476 708 496 q 490 453 576 457 l 485 453 q 566 436 533 449 q 622 403 599 424 q 660 353 644 383 q 692 278 676 322 l 768 46 l 661 94 l 886 71 l 874 0 q 844 -6 860 -3 q 808 -12 828 -10 q 763 -14 789 -14 m 336 1042 l 357 1138 l 742 1138 l 721 1042 l 336 1042 z "},"Ṟ":{"ha":913,"x_min":4,"x_max":886,"o":"m 4 0 l 18 74 l 194 85 l 236 85 l 424 74 l 411 0 l 4 0 m 122 0 l 214 499 q 252 713 233 606 q 289 926 271 819 l 442 926 l 350 429 q 311 215 331 322 q 274 0 292 107 l 122 0 m 151 851 l 164 926 l 367 926 l 361 842 l 326 842 l 151 851 m 763 -14 q 681 -1 715 -14 q 626 40 647 11 q 590 115 604 68 l 533 301 q 504 374 519 347 q 465 413 489 401 q 403 425 442 425 l 285 425 l 290 497 l 449 497 q 586 524 533 497 q 664 597 639 551 q 689 701 689 643 q 647 811 689 774 q 521 849 604 849 l 372 849 l 376 926 l 539 926 q 762 869 681 926 q 843 707 843 811 q 820 608 843 653 q 753 529 797 563 q 642 476 708 496 q 490 453 576 457 l 485 453 q 566 436 533 449 q 622 403 599 424 q 660 353 644 383 q 692 278 676 322 l 768 46 l 661 94 l 886 71 l 874 0 q 844 -6 860 -3 q 808 -12 828 -10 q 763 -14 789 -14 z "},"Ś":{"ha":706,"x_min":36,"x_max":706,"o":"m 36 38 l 63 251 l 153 251 l 168 42 l 99 103 q 187 69 139 82 q 292 57 235 57 q 399 77 356 57 q 463 133 442 97 q 483 213 483 168 q 472 275 483 246 q 429 336 460 304 q 344 407 399 368 q 239 496 282 453 q 174 585 196 539 q 151 688 151 632 q 193 826 151 767 q 306 917 235 885 q 467 949 376 949 q 551 942 510 949 q 632 922 593 935 q 706 889 671 908 l 678 686 l 586 686 l 574 888 l 642 825 q 565 858 604 847 q 479 868 525 868 q 376 851 418 868 q 312 803 333 835 q 290 728 290 772 q 304 661 290 692 q 349 601 318 631 q 426 538 379 572 q 537 446 493 489 q 603 357 581 403 q 625 254 625 311 q 583 108 625 169 q 466 12 540 46 q 294 -22 392 -22 q 196 -15 244 -22 q 106 6 147 -7 q 36 38 65 19 m 378 1033 q 456 1099 417 1067 q 535 1163 494 1131 q 589 1203 568 1190 q 635 1215 610 1215 q 678 1200 661 1215 q 694 1160 694 1185 q 678 1118 694 1136 q 621 1081 663 1100 q 513 1033 567 1057 q 407 985 460 1010 l 378 1033 z "},"Š":{"ha":706,"x_min":36,"x_max":735,"o":"m 36 38 l 63 251 l 153 251 l 168 42 l 99 103 q 187 69 139 82 q 292 57 235 57 q 399 77 356 57 q 463 133 442 97 q 483 213 483 168 q 472 275 483 246 q 429 336 460 304 q 344 407 399 368 q 239 496 282 453 q 174 585 196 539 q 151 688 151 632 q 193 826 151 767 q 306 917 235 885 q 467 949 376 949 q 551 942 510 949 q 632 922 593 935 q 706 889 671 908 l 678 686 l 586 686 l 574 888 l 642 825 q 565 858 604 847 q 479 868 525 868 q 376 851 418 868 q 312 803 333 835 q 290 728 290 772 q 304 661 290 692 q 349 601 318 631 q 426 538 379 572 q 537 446 493 489 q 603 357 581 403 q 625 254 625 311 q 583 108 625 169 q 466 12 540 46 q 294 -22 392 -22 q 196 -15 244 -22 q 106 6 147 -7 q 36 38 65 19 m 347 1222 l 531 1067 l 456 1067 l 700 1222 l 733 1181 l 525 999 l 450 999 l 301 1188 l 347 1222 z "},"Ş":{"ha":706,"x_min":36,"x_max":706,"o":"m 36 38 l 63 251 l 153 251 l 168 42 l 99 103 q 187 69 139 82 q 292 57 235 57 q 399 77 356 57 q 463 133 442 97 q 483 213 483 168 q 472 275 483 246 q 429 336 460 304 q 344 407 399 368 q 239 496 282 453 q 174 585 196 539 q 151 688 151 632 q 193 826 151 767 q 306 917 235 885 q 467 949 376 949 q 551 942 510 949 q 632 922 593 935 q 706 889 671 908 l 678 686 l 586 686 l 574 888 l 642 825 q 565 858 604 847 q 479 868 525 868 q 376 851 418 868 q 312 803 333 835 q 290 728 290 772 q 304 661 290 692 q 349 601 318 631 q 426 538 379 572 q 537 446 493 489 q 603 357 581 403 q 625 254 625 311 q 583 108 625 169 q 466 12 540 46 q 294 -22 392 -22 q 196 -15 244 -22 q 106 6 147 -7 q 36 38 65 19 m 222 -121 l 279 0 l 331 0 l 278 -118 l 269 -82 q 383 -126 343 -100 q 422 -204 422 -153 q 379 -288 422 -254 q 258 -322 336 -322 q 190 -314 222 -322 q 142 -296 158 -306 l 163 -247 q 201 -260 181 -254 q 247 -267 222 -267 q 306 -249 285 -267 q 328 -201 328 -232 q 303 -150 328 -168 q 222 -121 278 -132 z "},"Ș":{"ha":706,"x_min":36,"x_max":706,"o":"m 36 38 l 63 251 l 153 251 l 168 42 l 99 103 q 187 69 139 82 q 292 57 235 57 q 399 77 356 57 q 463 133 442 97 q 483 213 483 168 q 472 275 483 246 q 429 336 460 304 q 344 407 399 368 q 239 496 282 453 q 174 585 196 539 q 151 688 151 632 q 193 826 151 767 q 306 917 235 885 q 467 949 376 949 q 551 942 510 949 q 632 922 593 935 q 706 889 671 908 l 678 686 l 586 686 l 574 888 l 642 825 q 565 858 604 847 q 479 868 525 868 q 376 851 418 868 q 312 803 333 835 q 290 728 290 772 q 304 661 290 692 q 349 601 318 631 q 426 538 379 572 q 537 446 493 489 q 603 357 581 403 q 625 254 625 311 q 583 108 625 169 q 466 12 540 46 q 294 -22 392 -22 q 196 -15 244 -22 q 106 6 147 -7 q 36 38 65 19 m 363 -164 q 342 -258 363 -218 q 282 -327 321 -299 q 189 -372 243 -356 l 165 -324 q 224 -295 200 -310 q 263 -263 247 -281 q 290 -224 278 -246 l 296 -264 q 234 -224 256 -250 q 213 -167 213 -199 q 235 -110 213 -133 q 299 -86 257 -86 q 329 -91 317 -86 q 350 -103 342 -96 q 359 -131 356 -115 q 363 -164 363 -146 z "},"Ŝ":{"ha":706,"x_min":36,"x_max":710,"o":"m 36 38 l 63 251 l 153 251 l 168 42 l 99 103 q 187 69 139 82 q 292 57 235 57 q 399 77 356 57 q 463 133 442 97 q 483 213 483 168 q 472 275 483 246 q 429 336 460 304 q 344 407 399 368 q 239 496 282 453 q 174 585 196 539 q 151 688 151 632 q 193 826 151 767 q 306 917 235 885 q 467 949 376 949 q 551 942 510 949 q 632 922 593 935 q 706 889 671 908 l 678 686 l 586 686 l 574 888 l 642 825 q 565 858 604 847 q 479 868 525 868 q 376 851 418 868 q 312 803 333 835 q 290 728 290 772 q 304 661 290 692 q 349 601 318 631 q 426 538 379 572 q 537 446 493 489 q 603 357 581 403 q 625 254 625 311 q 583 108 625 169 q 466 12 540 46 q 294 -22 392 -22 q 196 -15 244 -22 q 106 6 147 -7 q 36 38 65 19 m 554 1201 l 710 1025 l 667 985 l 460 1135 l 558 1135 l 307 985 l 276 1028 l 485 1201 l 554 1201 z "},"Ṡ":{"ha":706,"x_min":36,"x_max":706,"o":"m 36 38 l 63 251 l 153 251 l 168 42 l 99 103 q 187 69 139 82 q 292 57 235 57 q 399 77 356 57 q 463 133 442 97 q 483 213 483 168 q 472 275 483 246 q 429 336 460 304 q 344 407 399 368 q 239 496 282 453 q 174 585 196 539 q 151 688 151 632 q 193 826 151 767 q 306 917 235 885 q 467 949 376 949 q 551 942 510 949 q 632 922 593 935 q 706 889 671 908 l 678 686 l 586 686 l 574 888 l 642 825 q 565 858 604 847 q 479 868 525 868 q 376 851 418 868 q 312 803 333 835 q 290 728 290 772 q 304 661 290 692 q 349 601 318 631 q 426 538 379 572 q 537 446 493 489 q 603 357 581 403 q 625 254 625 311 q 583 108 625 169 q 466 12 540 46 q 294 -22 392 -22 q 196 -15 244 -22 q 106 6 147 -7 q 36 38 65 19 m 497 1007 q 438 1030 461 1007 q 415 1090 415 1053 q 443 1160 415 1129 q 511 1190 471 1190 q 572 1167 549 1190 q 594 1108 594 1144 q 567 1038 594 1068 q 497 1007 539 1007 z "},"Ṣ":{"ha":706,"x_min":36,"x_max":706,"o":"m 36 38 l 63 251 l 153 251 l 168 42 l 99 103 q 187 69 139 82 q 292 57 235 57 q 399 77 356 57 q 463 133 442 97 q 483 213 483 168 q 472 275 483 246 q 429 336 460 304 q 344 407 399 368 q 239 496 282 453 q 174 585 196 539 q 151 688 151 632 q 193 826 151 767 q 306 917 235 885 q 467 949 376 949 q 551 942 510 949 q 632 922 593 935 q 706 889 671 908 l 678 686 l 586 686 l 574 888 l 642 825 q 565 858 604 847 q 479 868 525 868 q 376 851 418 868 q 312 803 333 835 q 290 728 290 772 q 304 661 290 692 q 349 601 318 631 q 426 538 379 572 q 537 446 493 489 q 603 357 581 403 q 625 254 625 311 q 583 108 625 169 q 466 12 540 46 q 294 -22 392 -22 q 196 -15 244 -22 q 106 6 147 -7 q 36 38 65 19 z "},"ẞ":{"ha":983,"x_min":-6,"x_max":933,"o":"m -6 0 l 7 74 l 183 85 l 208 85 l 200 0 l -6 0 m 111 0 l 218 583 q 299 792 240 711 q 444 910 357 872 q 642 949 531 949 q 738 941 690 949 q 828 920 785 933 q 903 889 871 907 l 894 824 q 801 782 838 807 q 747 726 764 757 q 731 661 731 696 q 740 601 731 628 q 769 544 749 574 q 826 474 790 515 q 883 398 860 435 q 920 322 907 361 q 933 233 933 282 q 897 102 933 160 q 796 11 861 44 q 640 -22 731 -22 q 520 -6 575 -22 q 429 35 465 10 l 447 246 l 535 246 l 556 18 l 497 90 q 564 63 531 72 q 635 54 597 54 q 719 73 685 54 q 772 124 754 92 q 790 199 790 157 q 783 257 790 231 q 756 313 775 283 q 703 379 736 342 q 649 449 672 415 q 613 520 625 482 q 600 604 600 558 q 630 721 600 671 q 718 806 660 771 q 861 860 776 840 l 853 846 q 765 867 810 858 q 669 875 719 875 q 526 844 586 875 q 427 751 465 814 q 371 589 389 688 l 339 424 q 301 214 319 321 q 264 0 282 107 l 111 0 z "},"Ť":{"ha":831,"x_min":93,"x_max":900,"o":"m 93 669 l 147 926 l 900 926 l 860 669 l 774 669 l 772 903 l 828 846 l 181 846 l 276 913 l 179 669 l 93 669 m 144 0 l 158 74 l 350 85 l 396 85 l 588 74 l 574 0 l 144 0 m 279 0 l 371 499 q 409 713 390 606 q 446 926 428 819 l 599 926 l 507 429 q 469 215 488 322 q 432 0 450 107 l 279 0 m 393 1222 l 576 1067 l 501 1067 l 746 1222 l 779 1181 l 571 999 l 496 999 l 347 1188 l 393 1222 z "},"Ţ":{"ha":831,"x_min":93,"x_max":900,"o":"m 93 669 l 147 926 l 900 926 l 860 669 l 774 669 l 772 903 l 828 846 l 181 846 l 276 913 l 179 669 l 93 669 m 144 0 l 158 74 l 350 85 l 396 85 l 588 74 l 574 0 l 144 0 m 279 0 l 371 499 q 409 713 390 606 q 446 926 428 819 l 599 926 l 507 429 q 469 215 488 322 q 432 0 450 107 l 279 0 m 286 -121 l 343 0 l 394 0 l 342 -118 l 333 -82 q 447 -126 407 -100 q 486 -204 486 -153 q 443 -288 486 -254 q 322 -322 400 -322 q 254 -314 286 -322 q 206 -296 222 -306 l 226 -247 q 265 -260 244 -254 q 311 -267 286 -267 q 370 -249 349 -267 q 392 -201 392 -232 q 367 -150 392 -168 q 286 -121 342 -132 z "},"Ț":{"ha":831,"x_min":93,"x_max":900,"o":"m 93 669 l 147 926 l 900 926 l 860 669 l 774 669 l 772 903 l 828 846 l 181 846 l 276 913 l 179 669 l 93 669 m 144 0 l 158 74 l 350 85 l 396 85 l 588 74 l 574 0 l 144 0 m 279 0 l 371 499 q 409 713 390 606 q 446 926 428 819 l 599 926 l 507 429 q 469 215 488 322 q 432 0 450 107 l 279 0 m 419 -164 q 399 -258 419 -218 q 339 -327 378 -299 q 246 -372 300 -356 l 222 -324 q 281 -295 257 -310 q 319 -263 304 -281 q 347 -224 335 -246 l 353 -264 q 291 -224 313 -250 q 269 -167 269 -199 q 292 -110 269 -133 q 356 -86 314 -86 q 386 -91 374 -86 q 407 -103 399 -96 q 416 -131 413 -115 q 419 -164 419 -146 z "},"Ṭ":{"ha":831,"x_min":93,"x_max":900,"o":"m 93 669 l 147 926 l 900 926 l 860 669 l 774 669 l 772 903 l 828 846 l 181 846 l 276 913 l 179 669 l 93 669 m 144 0 l 158 74 l 350 85 l 396 85 l 588 74 l 574 0 l 144 0 m 279 0 l 371 499 q 409 713 390 606 q 446 926 428 819 l 599 926 l 507 429 q 469 215 488 322 q 432 0 450 107 l 279 0 z "},"Ṯ":{"ha":831,"x_min":93,"x_max":900,"o":"m 93 669 l 147 926 l 900 926 l 860 669 l 774 669 l 772 903 l 828 846 l 181 846 l 276 913 l 179 669 l 93 669 m 144 0 l 158 74 l 350 85 l 396 85 l 588 74 l 574 0 l 144 0 m 279 0 l 371 499 q 409 713 390 606 q 446 926 428 819 l 599 926 l 507 429 q 469 215 488 322 q 432 0 450 107 l 279 0 z "},"Ù":{"ha":999,"x_min":131,"x_max":1079,"o":"m 307 842 l 131 851 l 144 926 l 542 926 l 528 851 l 350 842 l 307 842 m 457 -22 q 293 11 360 -22 q 192 106 226 44 q 158 251 158 167 q 163 324 158 288 q 175 403 168 361 l 193 500 q 219 642 207 572 q 244 784 232 713 q 268 926 257 856 l 421 926 l 325 400 q 313 328 318 361 q 308 254 308 296 q 328 163 308 203 q 390 99 349 122 q 492 76 431 76 q 629 108 574 76 q 722 211 685 140 q 779 396 758 282 l 876 926 l 963 926 l 863 381 q 785 156 838 246 q 651 22 732 67 q 457 -22 569 -22 m 885 842 l 726 851 l 740 926 l 1079 926 l 1065 851 l 921 842 l 885 842 m 701 1040 l 665 990 q 576 1036 621 1013 q 486 1082 531 1060 q 428 1124 446 1103 q 411 1165 411 1144 q 428 1206 411 1190 q 471 1221 444 1221 q 516 1208 494 1221 q 568 1167 538 1196 q 635 1103 601 1135 q 701 1040 669 1072 z "},"Ú":{"ha":999,"x_min":131,"x_max":1079,"o":"m 307 842 l 131 851 l 144 926 l 542 926 l 528 851 l 350 842 l 307 842 m 457 -22 q 293 11 360 -22 q 192 106 226 44 q 158 251 158 167 q 163 324 158 288 q 175 403 168 361 l 193 500 q 219 642 207 572 q 244 784 232 713 q 268 926 257 856 l 421 926 l 325 400 q 313 328 318 361 q 308 254 308 296 q 328 163 308 203 q 390 99 349 122 q 492 76 431 76 q 629 108 574 76 q 722 211 685 140 q 779 396 758 282 l 876 926 l 963 926 l 863 381 q 785 156 838 246 q 651 22 732 67 q 457 -22 569 -22 m 885 842 l 726 851 l 740 926 l 1079 926 l 1065 851 l 921 842 l 885 842 m 539 1033 q 617 1099 578 1067 q 696 1163 656 1131 q 750 1203 729 1190 q 796 1215 771 1215 q 839 1200 822 1215 q 856 1160 856 1185 q 840 1118 856 1136 q 782 1081 824 1100 q 674 1033 728 1057 q 568 985 621 1010 l 539 1033 z "},"Û":{"ha":999,"x_min":131,"x_max":1079,"o":"m 307 842 l 131 851 l 144 926 l 542 926 l 528 851 l 350 842 l 307 842 m 457 -22 q 293 11 360 -22 q 192 106 226 44 q 158 251 158 167 q 163 324 158 288 q 175 403 168 361 l 193 500 q 219 642 207 572 q 244 784 232 713 q 268 926 257 856 l 421 926 l 325 400 q 313 328 318 361 q 308 254 308 296 q 328 163 308 203 q 390 99 349 122 q 492 76 431 76 q 629 108 574 76 q 722 211 685 140 q 779 396 758 282 l 876 926 l 963 926 l 863 381 q 785 156 838 246 q 651 22 732 67 q 457 -22 569 -22 m 885 842 l 726 851 l 740 926 l 1079 926 l 1065 851 l 921 842 l 885 842 m 715 1201 l 871 1025 l 828 985 l 621 1135 l 719 1135 l 468 985 l 438 1028 l 646 1201 l 715 1201 z "},"Ü":{"ha":999,"x_min":131,"x_max":1079,"o":"m 307 842 l 131 851 l 144 926 l 542 926 l 528 851 l 350 842 l 307 842 m 457 -22 q 293 11 360 -22 q 192 106 226 44 q 158 251 158 167 q 163 324 158 288 q 175 403 168 361 l 193 500 q 219 642 207 572 q 244 784 232 713 q 268 926 257 856 l 421 926 l 325 400 q 313 328 318 361 q 308 254 308 296 q 328 163 308 203 q 390 99 349 122 q 492 76 431 76 q 629 108 574 76 q 722 211 685 140 q 779 396 758 282 l 876 926 l 963 926 l 863 381 q 785 156 838 246 q 651 22 732 67 q 457 -22 569 -22 m 885 842 l 726 851 l 740 926 l 1079 926 l 1065 851 l 921 842 l 885 842 m 500 1024 q 448 1043 469 1024 q 426 1094 426 1063 q 452 1158 426 1132 q 514 1185 478 1185 q 567 1165 547 1185 q 588 1114 588 1144 q 563 1050 588 1076 q 500 1024 538 1024 m 810 1024 q 759 1043 781 1024 q 738 1094 738 1063 q 763 1158 738 1132 q 825 1185 789 1185 q 878 1165 857 1185 q 899 1114 899 1144 q 873 1050 899 1076 q 810 1024 847 1024 z "},"Ū":{"ha":999,"x_min":131,"x_max":1079,"o":"m 307 842 l 131 851 l 144 926 l 542 926 l 528 851 l 350 842 l 307 842 m 457 -22 q 293 11 360 -22 q 192 106 226 44 q 158 251 158 167 q 163 324 158 288 q 175 403 168 361 l 193 500 q 219 642 207 572 q 244 784 232 713 q 268 926 257 856 l 421 926 l 325 400 q 313 328 318 361 q 308 254 308 296 q 328 163 308 203 q 390 99 349 122 q 492 76 431 76 q 629 108 574 76 q 722 211 685 140 q 779 396 758 282 l 876 926 l 963 926 l 863 381 q 785 156 838 246 q 651 22 732 67 q 457 -22 569 -22 m 885 842 l 726 851 l 740 926 l 1079 926 l 1065 851 l 921 842 l 885 842 m 461 1042 l 482 1138 l 867 1138 l 846 1042 l 461 1042 z "},"Ů":{"ha":999,"x_min":131,"x_max":1079,"o":"m 307 842 l 131 851 l 144 926 l 542 926 l 528 851 l 350 842 l 307 842 m 457 -22 q 293 11 360 -22 q 192 106 226 44 q 158 251 158 167 q 163 324 158 288 q 175 403 168 361 l 193 500 q 219 642 207 572 q 244 784 232 713 q 268 926 257 856 l 421 926 l 325 400 q 313 328 318 361 q 308 254 308 296 q 328 163 308 203 q 390 99 349 122 q 492 76 431 76 q 629 108 574 76 q 722 211 685 140 q 779 396 758 282 l 876 926 l 963 926 l 863 381 q 785 156 838 246 q 651 22 732 67 q 457 -22 569 -22 m 885 842 l 726 851 l 740 926 l 1079 926 l 1065 851 l 921 842 l 885 842 m 656 985 q 565 1016 601 985 q 528 1101 528 1047 q 549 1181 528 1147 q 606 1232 571 1214 q 681 1250 640 1250 q 773 1219 738 1250 q 808 1133 808 1188 q 788 1054 808 1088 q 732 1003 767 1021 q 656 985 697 985 m 661 1042 q 720 1067 699 1042 q 742 1128 742 1092 q 726 1174 742 1156 q 676 1193 710 1193 q 618 1169 642 1193 q 594 1107 594 1144 q 612 1060 594 1079 q 661 1042 629 1042 z "},"Ű":{"ha":999,"x_min":131,"x_max":1079,"o":"m 307 842 l 131 851 l 144 926 l 542 926 l 528 851 l 350 842 l 307 842 m 457 -22 q 293 11 360 -22 q 192 106 226 44 q 158 251 158 167 q 163 324 158 288 q 175 403 168 361 l 193 500 q 219 642 207 572 q 244 784 232 713 q 268 926 257 856 l 421 926 l 325 400 q 313 328 318 361 q 308 254 308 296 q 328 163 308 203 q 390 99 349 122 q 492 76 431 76 q 629 108 574 76 q 722 211 685 140 q 779 396 758 282 l 876 926 l 963 926 l 863 381 q 785 156 838 246 q 651 22 732 67 q 457 -22 569 -22 m 885 842 l 726 851 l 740 926 l 1079 926 l 1065 851 l 921 842 l 885 842 m 471 1025 l 579 1175 q 621 1220 601 1206 q 663 1235 640 1235 q 701 1223 686 1235 q 715 1189 715 1211 q 703 1151 715 1168 q 667 1111 692 1133 l 517 988 l 471 1025 m 708 1025 l 815 1175 q 857 1220 838 1206 q 899 1235 876 1235 q 936 1223 921 1235 q 951 1189 951 1211 q 940 1151 951 1168 q 903 1111 928 1133 l 753 988 l 708 1025 z "},"Ų":{"ha":999,"x_min":131,"x_max":1079,"o":"m 307 842 l 131 851 l 144 926 l 542 926 l 528 851 l 350 842 l 307 842 m 569 -322 q 468 -291 503 -322 q 433 -207 433 -260 q 451 -133 433 -167 q 499 -71 468 -100 q 571 -17 531 -42 l 571 1 q 521 -10 551 -6 q 453 -15 490 -15 q 292 16 358 -15 q 192 107 226 47 q 158 251 158 167 q 163 324 158 288 q 175 403 168 361 l 193 500 q 219 642 207 572 q 244 784 232 713 q 268 926 257 856 l 421 926 l 325 400 q 313 328 318 361 q 308 254 308 296 q 328 163 308 203 q 390 101 349 124 q 492 79 431 79 q 599 97 553 79 q 681 153 646 115 q 740 251 715 190 q 779 396 764 311 l 876 926 l 963 926 l 863 381 q 822 229 847 293 q 761 119 796 165 q 682 42 726 74 q 603 -31 636 6 q 552 -102 569 -67 q 535 -172 535 -137 q 555 -228 535 -208 q 607 -247 575 -247 q 639 -244 624 -247 q 667 -233 654 -240 l 688 -283 q 636 -310 665 -299 q 569 -322 607 -322 m 885 842 l 726 851 l 740 926 l 1079 926 l 1065 851 l 921 842 l 885 842 z "},"Ŭ":{"ha":999,"x_min":131,"x_max":1079,"o":"m 307 842 l 131 851 l 144 926 l 542 926 l 528 851 l 350 842 l 307 842 m 457 -22 q 293 11 360 -22 q 192 106 226 44 q 158 251 158 167 q 163 324 158 288 q 175 403 168 361 l 193 500 q 219 642 207 572 q 244 784 232 713 q 268 926 257 856 l 421 926 l 325 400 q 313 328 318 361 q 308 254 308 296 q 328 163 308 203 q 390 99 349 122 q 492 76 431 76 q 629 108 574 76 q 722 211 685 140 q 779 396 758 282 l 876 926 l 963 926 l 863 381 q 785 156 838 246 q 651 22 732 67 q 457 -22 569 -22 m 885 842 l 726 851 l 740 926 l 1079 926 l 1065 851 l 921 842 l 885 842 m 644 1010 q 542 1033 583 1010 q 478 1098 501 1057 q 449 1189 456 1139 l 503 1211 q 560 1135 521 1167 q 660 1104 599 1104 q 763 1134 721 1104 q 835 1211 804 1164 l 885 1190 q 836 1104 867 1146 q 758 1036 806 1063 q 644 1010 711 1010 z "},"Ǔ":{"ha":999,"x_min":131,"x_max":1079,"o":"m 307 842 l 131 851 l 144 926 l 542 926 l 528 851 l 350 842 l 307 842 m 457 -22 q 293 11 360 -22 q 192 106 226 44 q 158 251 158 167 q 163 324 158 288 q 175 403 168 361 l 193 500 q 219 642 207 572 q 244 784 232 713 q 268 926 257 856 l 421 926 l 325 400 q 313 328 318 361 q 308 254 308 296 q 328 163 308 203 q 390 99 349 122 q 492 76 431 76 q 629 108 574 76 q 722 211 685 140 q 779 396 758 282 l 876 926 l 963 926 l 863 381 q 785 156 838 246 q 651 22 732 67 q 457 -22 569 -22 m 885 842 l 726 851 l 740 926 l 1079 926 l 1065 851 l 921 842 l 885 842 m 508 1222 l 692 1067 l 617 1067 l 861 1222 l 894 1181 l 686 999 l 611 999 l 463 1188 l 508 1222 z "},"Ǘ":{"ha":999,"x_min":131,"x_max":1079,"o":"m 307 842 l 131 851 l 144 926 l 542 926 l 528 851 l 350 842 l 307 842 m 457 -22 q 293 11 360 -22 q 192 106 226 44 q 158 251 158 167 q 163 324 158 288 q 175 403 168 361 l 193 500 q 219 642 207 572 q 244 784 232 713 q 268 926 257 856 l 421 926 l 325 400 q 313 328 318 361 q 308 254 308 296 q 328 163 308 203 q 390 99 349 122 q 492 76 431 76 q 629 108 574 76 q 722 211 685 140 q 779 396 758 282 l 876 926 l 963 926 l 863 381 q 785 156 838 246 q 651 22 732 67 q 457 -22 569 -22 m 885 842 l 726 851 l 740 926 l 1079 926 l 1065 851 l 921 842 l 885 842 m 497 1022 q 444 1042 465 1022 q 422 1093 422 1061 q 448 1156 422 1131 q 511 1182 474 1182 q 563 1163 543 1182 q 583 1113 583 1143 q 558 1049 583 1075 q 497 1022 533 1022 m 676 1168 l 635 1214 l 743 1340 q 791 1391 771 1375 q 838 1407 811 1407 q 878 1392 863 1407 q 894 1354 894 1378 q 889 1326 894 1339 q 869 1299 883 1313 q 829 1269 856 1286 l 676 1168 m 822 1022 q 772 1042 793 1022 q 750 1093 750 1061 q 775 1156 750 1131 q 838 1182 800 1182 q 890 1163 869 1182 q 911 1113 911 1143 q 885 1049 911 1075 q 822 1022 860 1022 z "},"Ǚ":{"ha":999,"x_min":131,"x_max":1079,"o":"m 307 842 l 131 851 l 144 926 l 542 926 l 528 851 l 350 842 l 307 842 m 457 -22 q 293 11 360 -22 q 192 106 226 44 q 158 251 158 167 q 163 324 158 288 q 175 403 168 361 l 193 500 q 219 642 207 572 q 244 784 232 713 q 268 926 257 856 l 421 926 l 325 400 q 313 328 318 361 q 308 254 308 296 q 328 163 308 203 q 390 99 349 122 q 492 76 431 76 q 629 108 574 76 q 722 211 685 140 q 779 396 758 282 l 876 926 l 963 926 l 863 381 q 785 156 838 246 q 651 22 732 67 q 457 -22 569 -22 m 885 842 l 726 851 l 740 926 l 1079 926 l 1065 851 l 921 842 l 885 842 m 496 1022 q 444 1042 465 1022 q 422 1093 422 1061 q 448 1156 422 1131 q 511 1182 474 1182 q 563 1163 543 1182 q 583 1113 583 1143 q 558 1049 583 1075 q 496 1022 533 1022 m 633 1194 l 485 1363 l 529 1401 l 719 1258 l 638 1258 l 872 1401 l 906 1361 l 713 1194 l 633 1194 m 822 1022 q 772 1042 793 1022 q 750 1093 750 1061 q 775 1156 750 1131 q 836 1182 800 1182 q 890 1163 869 1182 q 911 1113 911 1143 q 885 1049 911 1075 q 822 1022 860 1022 z "},"Ǜ":{"ha":999,"x_min":131,"x_max":1079,"o":"m 307 842 l 131 851 l 144 926 l 542 926 l 528 851 l 350 842 l 307 842 m 457 -22 q 293 11 360 -22 q 192 106 226 44 q 158 251 158 167 q 163 324 158 288 q 175 403 168 361 l 193 500 q 219 642 207 572 q 244 784 232 713 q 268 926 257 856 l 421 926 l 325 400 q 313 328 318 361 q 308 254 308 296 q 328 163 308 203 q 390 99 349 122 q 492 76 431 76 q 629 108 574 76 q 722 211 685 140 q 779 396 758 282 l 876 926 l 963 926 l 863 381 q 785 156 838 246 q 651 22 732 67 q 457 -22 569 -22 m 885 842 l 726 851 l 740 926 l 1079 926 l 1065 851 l 921 842 l 885 842 m 497 1022 q 444 1042 465 1022 q 422 1093 422 1061 q 448 1156 422 1131 q 511 1182 474 1182 q 563 1163 543 1182 q 583 1113 583 1143 q 558 1049 583 1075 q 497 1022 533 1022 m 699 1168 l 549 1268 q 510 1296 525 1283 q 488 1322 496 1308 q 481 1353 481 1336 q 497 1392 481 1376 q 539 1407 514 1407 q 587 1392 567 1407 q 633 1344 607 1376 l 742 1217 l 699 1168 m 822 1022 q 772 1042 793 1022 q 750 1093 750 1061 q 775 1156 750 1131 q 838 1182 800 1182 q 890 1163 869 1182 q 911 1113 911 1143 q 885 1049 911 1075 q 822 1022 860 1022 z "},"Ǖ":{"ha":999,"x_min":131,"x_max":1079,"o":"m 307 842 l 131 851 l 144 926 l 542 926 l 528 851 l 350 842 l 307 842 m 457 -22 q 293 11 360 -22 q 192 106 226 44 q 158 251 158 167 q 163 324 158 288 q 175 403 168 361 l 193 500 q 219 642 207 572 q 244 784 232 713 q 268 926 257 856 l 421 926 l 325 400 q 313 328 318 361 q 308 254 308 296 q 328 163 308 203 q 390 99 349 122 q 492 76 431 76 q 629 108 574 76 q 722 211 685 140 q 779 396 758 282 l 876 926 l 963 926 l 863 381 q 785 156 838 246 q 651 22 732 67 q 457 -22 569 -22 m 885 842 l 726 851 l 740 926 l 1079 926 l 1065 851 l 921 842 l 885 842 m 496 1022 q 444 1042 465 1022 q 422 1093 422 1061 q 448 1156 422 1131 q 511 1182 474 1182 q 563 1163 543 1182 q 583 1113 583 1143 q 558 1049 583 1075 q 496 1022 533 1022 m 822 1022 q 772 1042 793 1022 q 750 1093 750 1061 q 775 1156 750 1131 q 836 1182 800 1182 q 890 1163 869 1182 q 911 1113 911 1143 q 885 1049 911 1075 q 822 1022 860 1022 m 501 1260 l 521 1354 l 906 1354 l 886 1260 l 501 1260 z "},"Ụ":{"ha":999,"x_min":131,"x_max":1079,"o":"m 307 842 l 131 851 l 144 926 l 542 926 l 528 851 l 350 842 l 307 842 m 457 -22 q 293 11 360 -22 q 192 106 226 44 q 158 251 158 167 q 163 324 158 288 q 175 403 168 361 l 193 500 q 219 642 207 572 q 244 784 232 713 q 268 926 257 856 l 421 926 l 325 400 q 313 328 318 361 q 308 254 308 296 q 328 163 308 203 q 390 99 349 122 q 492 76 431 76 q 629 108 574 76 q 722 211 685 140 q 779 396 758 282 l 876 926 l 963 926 l 863 381 q 785 156 838 246 q 651 22 732 67 q 457 -22 569 -22 m 885 842 l 726 851 l 740 926 l 1079 926 l 1065 851 l 921 842 l 885 842 z "},"Ủ":{"ha":999,"x_min":131,"x_max":1079,"o":"m 307 842 l 131 851 l 144 926 l 542 926 l 528 851 l 350 842 l 307 842 m 457 -22 q 293 11 360 -22 q 192 106 226 44 q 158 251 158 167 q 163 324 158 288 q 175 403 168 361 l 193 500 q 219 642 207 572 q 244 784 232 713 q 268 926 257 856 l 421 926 l 325 400 q 313 328 318 361 q 308 254 308 296 q 328 163 308 203 q 390 99 349 122 q 492 76 431 76 q 629 108 574 76 q 722 211 685 140 q 779 396 758 282 l 876 926 l 963 926 l 863 381 q 785 156 838 246 q 651 22 732 67 q 457 -22 569 -22 m 885 842 l 726 851 l 740 926 l 1079 926 l 1065 851 l 921 842 l 885 842 m 635 990 l 625 1040 q 684 1058 665 1047 q 703 1090 703 1069 q 677 1120 703 1110 q 594 1136 651 1131 l 621 1239 q 743 1201 701 1231 q 785 1118 785 1171 q 743 1031 785 1061 q 635 990 701 1000 z "},"Ư":{"ha":999,"x_min":131,"x_max":1147,"o":"m 158 251 q 163 324 158 288 q 175 403 168 361 l 193 500 q 219 642 207 572 q 244 784 232 713 q 268 926 257 856 l 421 926 l 325 400 q 313 328 318 361 q 308 254 308 296 q 328 163 308 203 q 390 99 349 122 q 492 76 431 76 q 629 108 574 76 q 722 211 685 140 q 779 396 758 282 l 876 926 l 963 926 l 863 381 q 785 156 838 246 q 651 22 732 67 q 457 -22 569 -22 q 293 11 360 -22 q 192 106 226 44 q 158 251 158 167 m 929 869 l 929 926 q 1013 939 988 926 q 1039 976 1039 951 q 1034 1006 1039 993 q 1024 1034 1029 1019 q 1019 1071 1019 1049 q 1039 1120 1019 1099 q 1090 1142 1058 1142 q 1117 1139 1106 1142 q 1138 1126 1128 1136 q 1145 1101 1143 1114 q 1147 1074 1147 1089 q 1122 972 1147 1017 q 1049 900 1097 926 q 929 869 1001 874 m 131 851 l 144 926 l 542 926 l 528 851 l 350 842 l 307 842 l 131 851 m 726 851 l 740 926 l 907 926 l 900 842 l 885 842 l 726 851 z "},"Ứ":{"ha":999,"x_min":131,"x_max":1147,"o":"m 158 251 q 163 324 158 288 q 175 403 168 361 l 193 500 q 219 642 207 572 q 244 784 232 713 q 268 926 257 856 l 421 926 l 325 400 q 313 328 318 361 q 308 254 308 296 q 328 163 308 203 q 390 99 349 122 q 492 76 431 76 q 629 108 574 76 q 722 211 685 140 q 779 396 758 282 l 876 926 l 963 926 l 863 381 q 785 156 838 246 q 651 22 732 67 q 457 -22 569 -22 q 293 11 360 -22 q 192 106 226 44 q 158 251 158 167 m 929 869 l 929 926 q 1013 939 988 926 q 1039 976 1039 951 q 1034 1006 1039 993 q 1024 1034 1029 1019 q 1019 1071 1019 1049 q 1039 1120 1019 1099 q 1090 1142 1058 1142 q 1117 1139 1106 1142 q 1138 1126 1128 1136 q 1145 1101 1143 1114 q 1147 1074 1147 1089 q 1122 972 1147 1017 q 1049 900 1097 926 q 929 869 1001 874 m 131 851 l 144 926 l 542 926 l 528 851 l 350 842 l 307 842 l 131 851 m 726 851 l 740 926 l 907 926 l 900 842 l 885 842 l 726 851 m 532 1033 q 610 1099 571 1067 q 689 1163 649 1131 q 743 1203 722 1190 q 789 1215 764 1215 q 832 1200 815 1215 q 849 1160 849 1185 q 833 1118 849 1136 q 775 1081 817 1100 q 667 1033 721 1057 q 561 985 614 1010 l 532 1033 z "},"Ự":{"ha":999,"x_min":131,"x_max":1147,"o":"m 158 251 q 163 324 158 288 q 175 403 168 361 l 193 500 q 219 642 207 572 q 244 784 232 713 q 268 926 257 856 l 421 926 l 325 400 q 313 328 318 361 q 308 254 308 296 q 328 163 308 203 q 390 99 349 122 q 492 76 431 76 q 629 108 574 76 q 722 211 685 140 q 779 396 758 282 l 876 926 l 963 926 l 863 381 q 785 156 838 246 q 651 22 732 67 q 457 -22 569 -22 q 293 11 360 -22 q 192 106 226 44 q 158 251 158 167 m 929 869 l 929 926 q 1013 939 988 926 q 1039 976 1039 951 q 1034 1006 1039 993 q 1024 1034 1029 1019 q 1019 1071 1019 1049 q 1039 1120 1019 1099 q 1090 1142 1058 1142 q 1117 1139 1106 1142 q 1138 1126 1128 1136 q 1145 1101 1143 1114 q 1147 1074 1147 1089 q 1122 972 1147 1017 q 1049 900 1097 926 q 929 869 1001 874 m 131 851 l 144 926 l 542 926 l 528 851 l 350 842 l 307 842 l 131 851 m 726 851 l 740 926 l 907 926 l 900 842 l 885 842 l 726 851 z "},"Ừ":{"ha":999,"x_min":131,"x_max":1147,"o":"m 158 251 q 163 324 158 288 q 175 403 168 361 l 193 500 q 219 642 207 572 q 244 784 232 713 q 268 926 257 856 l 421 926 l 325 400 q 313 328 318 361 q 308 254 308 296 q 328 163 308 203 q 390 99 349 122 q 492 76 431 76 q 629 108 574 76 q 722 211 685 140 q 779 396 758 282 l 876 926 l 963 926 l 863 381 q 785 156 838 246 q 651 22 732 67 q 457 -22 569 -22 q 293 11 360 -22 q 192 106 226 44 q 158 251 158 167 m 929 869 l 929 926 q 1013 939 988 926 q 1039 976 1039 951 q 1034 1006 1039 993 q 1024 1034 1029 1019 q 1019 1071 1019 1049 q 1039 1120 1019 1099 q 1090 1142 1058 1142 q 1117 1139 1106 1142 q 1138 1126 1128 1136 q 1145 1101 1143 1114 q 1147 1074 1147 1089 q 1122 972 1147 1017 q 1049 900 1097 926 q 929 869 1001 874 m 131 851 l 144 926 l 542 926 l 528 851 l 350 842 l 307 842 l 131 851 m 726 851 l 740 926 l 907 926 l 900 842 l 885 842 l 726 851 m 694 1040 l 658 990 q 569 1036 614 1013 q 479 1082 524 1060 q 422 1124 439 1103 q 404 1165 404 1144 q 421 1206 404 1190 q 464 1221 438 1221 q 509 1208 488 1221 q 561 1167 531 1196 q 628 1103 594 1135 q 694 1040 663 1072 z "},"Ử":{"ha":999,"x_min":131,"x_max":1147,"o":"m 158 251 q 163 324 158 288 q 175 403 168 361 l 193 500 q 219 642 207 572 q 244 784 232 713 q 268 926 257 856 l 421 926 l 325 400 q 313 328 318 361 q 308 254 308 296 q 328 163 308 203 q 390 99 349 122 q 492 76 431 76 q 629 108 574 76 q 722 211 685 140 q 779 396 758 282 l 876 926 l 963 926 l 863 381 q 785 156 838 246 q 651 22 732 67 q 457 -22 569 -22 q 293 11 360 -22 q 192 106 226 44 q 158 251 158 167 m 929 869 l 929 926 q 1013 939 988 926 q 1039 976 1039 951 q 1034 1006 1039 993 q 1024 1034 1029 1019 q 1019 1071 1019 1049 q 1039 1120 1019 1099 q 1090 1142 1058 1142 q 1117 1139 1106 1142 q 1138 1126 1128 1136 q 1145 1101 1143 1114 q 1147 1074 1147 1089 q 1122 972 1147 1017 q 1049 900 1097 926 q 929 869 1001 874 m 131 851 l 144 926 l 542 926 l 528 851 l 350 842 l 307 842 l 131 851 m 726 851 l 740 926 l 907 926 l 900 842 l 885 842 l 726 851 m 628 990 l 618 1040 q 677 1058 658 1047 q 696 1090 696 1069 q 670 1120 696 1110 q 588 1136 644 1131 l 614 1239 q 736 1201 694 1231 q 778 1118 778 1171 q 736 1031 778 1061 q 628 990 694 1000 z "},"Ữ":{"ha":999,"x_min":131,"x_max":1147,"o":"m 158 251 q 163 324 158 288 q 175 403 168 361 l 193 500 q 219 642 207 572 q 244 784 232 713 q 268 926 257 856 l 421 926 l 325 400 q 313 328 318 361 q 308 254 308 296 q 328 163 308 203 q 390 99 349 122 q 492 76 431 76 q 629 108 574 76 q 722 211 685 140 q 779 396 758 282 l 876 926 l 963 926 l 863 381 q 785 156 838 246 q 651 22 732 67 q 457 -22 569 -22 q 293 11 360 -22 q 192 106 226 44 q 158 251 158 167 m 929 869 l 929 926 q 1013 939 988 926 q 1039 976 1039 951 q 1034 1006 1039 993 q 1024 1034 1029 1019 q 1019 1071 1019 1049 q 1039 1120 1019 1099 q 1090 1142 1058 1142 q 1117 1139 1106 1142 q 1138 1126 1128 1136 q 1145 1101 1143 1114 q 1147 1074 1147 1089 q 1122 972 1147 1017 q 1049 900 1097 926 q 929 869 1001 874 m 131 851 l 144 926 l 542 926 l 528 851 l 350 842 l 307 842 l 131 851 m 726 851 l 740 926 l 907 926 l 900 842 l 885 842 l 726 851 m 414 1018 q 483 1151 442 1107 q 579 1196 524 1196 q 635 1184 613 1196 q 676 1153 657 1172 q 715 1118 697 1136 q 760 1100 733 1100 q 812 1122 789 1100 q 856 1194 835 1144 l 904 1175 q 835 1044 876 1089 q 740 999 794 999 q 684 1010 707 999 q 642 1039 661 1022 q 602 1076 621 1058 q 557 1094 583 1094 q 506 1072 529 1094 q 463 1000 483 1050 l 414 1018 z "},"Ũ":{"ha":999,"x_min":131,"x_max":1079,"o":"m 307 842 l 131 851 l 144 926 l 542 926 l 528 851 l 350 842 l 307 842 m 457 -22 q 293 11 360 -22 q 192 106 226 44 q 158 251 158 167 q 163 324 158 288 q 175 403 168 361 l 193 500 q 219 642 207 572 q 244 784 232 713 q 268 926 257 856 l 421 926 l 325 400 q 313 328 318 361 q 308 254 308 296 q 328 163 308 203 q 390 99 349 122 q 492 76 431 76 q 629 108 574 76 q 722 211 685 140 q 779 396 758 282 l 876 926 l 963 926 l 863 381 q 785 156 838 246 q 651 22 732 67 q 457 -22 569 -22 m 885 842 l 726 851 l 740 926 l 1079 926 l 1065 851 l 921 842 l 885 842 m 421 1018 q 490 1151 449 1107 q 586 1196 531 1196 q 642 1184 619 1196 q 683 1153 664 1172 q 722 1118 704 1136 q 767 1100 740 1100 q 819 1122 796 1100 q 863 1194 842 1144 l 911 1175 q 842 1044 883 1089 q 747 999 801 999 q 691 1010 714 999 q 649 1039 668 1022 q 609 1076 628 1058 q 564 1094 590 1094 q 513 1072 536 1094 q 469 1000 490 1050 l 421 1018 z "},"Ẃ":{"ha":1285,"x_min":100,"x_max":1396,"o":"m 250 842 l 100 851 l 115 926 l 479 926 l 465 851 l 313 842 l 250 842 m 274 -6 l 192 926 l 349 926 l 392 140 l 389 140 l 449 319 l 728 926 l 835 926 l 906 140 l 904 140 l 961 318 l 1226 926 l 1317 926 l 894 -6 l 786 -6 l 710 765 l 722 765 l 663 597 l 381 -6 l 274 -6 m 742 842 l 575 851 l 590 926 l 965 926 l 951 851 l 788 842 l 742 842 m 1213 842 l 1082 851 l 1097 926 l 1396 926 l 1381 851 l 1246 842 l 1213 842 m 671 1033 q 749 1099 710 1067 q 828 1163 788 1131 q 882 1203 861 1190 q 928 1215 903 1215 q 971 1200 954 1215 q 988 1160 988 1185 q 972 1118 988 1136 q 914 1081 956 1100 q 806 1033 860 1057 q 700 985 753 1010 l 671 1033 z "},"Ŵ":{"ha":1285,"x_min":100,"x_max":1396,"o":"m 250 842 l 100 851 l 115 926 l 479 926 l 465 851 l 313 842 l 250 842 m 274 -6 l 192 926 l 349 926 l 392 140 l 389 140 l 449 319 l 728 926 l 835 926 l 906 140 l 904 140 l 961 318 l 1226 926 l 1317 926 l 894 -6 l 786 -6 l 710 765 l 722 765 l 663 597 l 381 -6 l 274 -6 m 742 842 l 575 851 l 590 926 l 965 926 l 951 851 l 788 842 l 742 842 m 1213 842 l 1082 851 l 1097 926 l 1396 926 l 1381 851 l 1246 842 l 1213 842 m 847 1201 l 1003 1025 l 960 985 l 753 1135 l 851 1135 l 600 985 l 569 1028 l 778 1201 l 847 1201 z "},"Ẅ":{"ha":1285,"x_min":100,"x_max":1396,"o":"m 250 842 l 100 851 l 115 926 l 479 926 l 465 851 l 313 842 l 250 842 m 274 -6 l 192 926 l 349 926 l 392 140 l 389 140 l 449 319 l 728 926 l 835 926 l 906 140 l 904 140 l 961 318 l 1226 926 l 1317 926 l 894 -6 l 786 -6 l 710 765 l 722 765 l 663 597 l 381 -6 l 274 -6 m 742 842 l 575 851 l 590 926 l 965 926 l 951 851 l 788 842 l 742 842 m 1213 842 l 1082 851 l 1097 926 l 1396 926 l 1381 851 l 1246 842 l 1213 842 m 632 1024 q 580 1043 601 1024 q 558 1094 558 1063 q 584 1158 558 1132 q 646 1185 610 1185 q 699 1165 679 1185 q 719 1114 719 1144 q 694 1050 719 1076 q 632 1024 669 1024 m 942 1024 q 891 1043 913 1024 q 869 1094 869 1063 q 895 1158 869 1132 q 957 1185 921 1185 q 1010 1165 989 1185 q 1031 1114 1031 1144 q 1005 1050 1031 1076 q 942 1024 979 1024 z "},"Ẁ":{"ha":1285,"x_min":100,"x_max":1396,"o":"m 250 842 l 100 851 l 115 926 l 479 926 l 465 851 l 313 842 l 250 842 m 274 -6 l 192 926 l 349 926 l 392 140 l 389 140 l 449 319 l 728 926 l 835 926 l 906 140 l 904 140 l 961 318 l 1226 926 l 1317 926 l 894 -6 l 786 -6 l 710 765 l 722 765 l 663 597 l 381 -6 l 274 -6 m 742 842 l 575 851 l 590 926 l 965 926 l 951 851 l 788 842 l 742 842 m 1213 842 l 1082 851 l 1097 926 l 1396 926 l 1381 851 l 1246 842 l 1213 842 m 833 1040 l 797 990 q 708 1036 753 1013 q 618 1082 663 1060 q 560 1124 578 1103 q 543 1165 543 1144 q 560 1206 543 1190 q 603 1221 576 1221 q 648 1208 626 1221 q 700 1167 669 1196 q 767 1103 733 1135 q 833 1040 801 1072 z "},"Ý":{"ha":832,"x_min":92,"x_max":943,"o":"m 92 851 l 106 926 l 490 926 l 476 851 l 310 842 l 261 842 l 92 851 m 154 0 l 168 74 l 361 85 l 406 85 l 597 74 l 583 0 l 154 0 m 368 347 l 171 926 l 335 926 l 483 436 l 481 436 l 543 550 l 785 926 l 875 926 l 489 347 l 368 347 m 289 0 l 369 432 l 518 432 q 492 288 506 360 q 467 144 479 215 q 442 0 454 72 l 289 0 m 615 851 l 629 926 l 943 926 l 931 851 l 799 842 l 757 842 l 615 851 m 464 1033 q 542 1099 503 1067 q 621 1163 581 1131 q 675 1203 654 1190 q 721 1215 696 1215 q 764 1200 747 1215 q 781 1160 781 1185 q 765 1118 781 1136 q 707 1081 749 1100 q 599 1033 653 1057 q 493 985 546 1010 l 464 1033 z "},"Ÿ":{"ha":832,"x_min":92,"x_max":943,"o":"m 92 851 l 106 926 l 490 926 l 476 851 l 310 842 l 261 842 l 92 851 m 154 0 l 168 74 l 361 85 l 406 85 l 597 74 l 583 0 l 154 0 m 368 347 l 171 926 l 335 926 l 483 436 l 481 436 l 543 550 l 785 926 l 875 926 l 489 347 l 368 347 m 289 0 l 369 432 l 518 432 q 492 288 506 360 q 467 144 479 215 q 442 0 454 72 l 289 0 m 615 851 l 629 926 l 943 926 l 931 851 l 799 842 l 757 842 l 615 851 m 425 1024 q 373 1043 394 1024 q 351 1094 351 1063 q 377 1158 351 1132 q 439 1185 403 1185 q 492 1165 472 1185 q 513 1114 513 1144 q 488 1050 513 1076 q 425 1024 463 1024 m 735 1024 q 684 1043 706 1024 q 663 1094 663 1063 q 688 1158 663 1132 q 750 1185 714 1185 q 803 1165 782 1185 q 824 1114 824 1144 q 798 1050 824 1076 q 735 1024 772 1024 z "},"Ŷ":{"ha":832,"x_min":92,"x_max":943,"o":"m 92 851 l 106 926 l 490 926 l 476 851 l 310 842 l 261 842 l 92 851 m 154 0 l 168 74 l 361 85 l 406 85 l 597 74 l 583 0 l 154 0 m 368 347 l 171 926 l 335 926 l 483 436 l 481 436 l 543 550 l 785 926 l 875 926 l 489 347 l 368 347 m 289 0 l 369 432 l 518 432 q 492 288 506 360 q 467 144 479 215 q 442 0 454 72 l 289 0 m 615 851 l 629 926 l 943 926 l 931 851 l 799 842 l 757 842 l 615 851 m 640 1201 l 796 1025 l 753 985 l 546 1135 l 644 1135 l 393 985 l 363 1028 l 571 1201 l 640 1201 z "},"Ẏ":{"ha":832,"x_min":92,"x_max":943,"o":"m 92 851 l 106 926 l 490 926 l 476 851 l 310 842 l 261 842 l 92 851 m 154 0 l 168 74 l 361 85 l 406 85 l 597 74 l 583 0 l 154 0 m 368 347 l 171 926 l 335 926 l 483 436 l 481 436 l 543 550 l 785 926 l 875 926 l 489 347 l 368 347 m 289 0 l 369 432 l 518 432 q 492 288 506 360 q 467 144 479 215 q 442 0 454 72 l 289 0 m 615 851 l 629 926 l 943 926 l 931 851 l 799 842 l 757 842 l 615 851 m 583 1007 q 524 1030 547 1007 q 501 1090 501 1053 q 529 1160 501 1129 q 597 1190 557 1190 q 658 1167 635 1190 q 681 1108 681 1144 q 653 1038 681 1068 q 583 1007 625 1007 z "},"Ỵ":{"ha":832,"x_min":92,"x_max":943,"o":"m 92 851 l 106 926 l 490 926 l 476 851 l 310 842 l 261 842 l 92 851 m 154 0 l 168 74 l 361 85 l 406 85 l 597 74 l 583 0 l 154 0 m 368 347 l 171 926 l 335 926 l 483 436 l 481 436 l 543 550 l 785 926 l 875 926 l 489 347 l 368 347 m 289 0 l 369 432 l 518 432 q 492 288 506 360 q 467 144 479 215 q 442 0 454 72 l 289 0 m 615 851 l 629 926 l 943 926 l 931 851 l 799 842 l 757 842 l 615 851 z "},"Ỳ":{"ha":832,"x_min":92,"x_max":943,"o":"m 92 851 l 106 926 l 490 926 l 476 851 l 310 842 l 261 842 l 92 851 m 154 0 l 168 74 l 361 85 l 406 85 l 597 74 l 583 0 l 154 0 m 368 347 l 171 926 l 335 926 l 483 436 l 481 436 l 543 550 l 785 926 l 875 926 l 489 347 l 368 347 m 289 0 l 369 432 l 518 432 q 492 288 506 360 q 467 144 479 215 q 442 0 454 72 l 289 0 m 615 851 l 629 926 l 943 926 l 931 851 l 799 842 l 757 842 l 615 851 m 626 1040 l 590 990 q 501 1036 546 1013 q 411 1082 456 1060 q 353 1124 371 1103 q 336 1165 336 1144 q 353 1206 336 1190 q 396 1221 369 1221 q 441 1208 419 1221 q 493 1167 463 1196 q 560 1103 526 1135 q 626 1040 594 1072 z "},"Ỷ":{"ha":832,"x_min":92,"x_max":943,"o":"m 92 851 l 106 926 l 490 926 l 476 851 l 310 842 l 261 842 l 92 851 m 154 0 l 168 74 l 361 85 l 406 85 l 597 74 l 583 0 l 154 0 m 368 347 l 171 926 l 335 926 l 483 436 l 481 436 l 543 550 l 785 926 l 875 926 l 489 347 l 368 347 m 289 0 l 369 432 l 518 432 q 492 288 506 360 q 467 144 479 215 q 442 0 454 72 l 289 0 m 615 851 l 629 926 l 943 926 l 931 851 l 799 842 l 757 842 l 615 851 m 560 990 l 550 1040 q 609 1058 590 1047 q 628 1090 628 1069 q 602 1120 628 1110 q 519 1136 576 1131 l 546 1239 q 668 1201 626 1231 q 710 1118 710 1171 q 668 1031 710 1061 q 560 990 626 1000 z "},"Ỹ":{"ha":832,"x_min":92,"x_max":943,"o":"m 92 851 l 106 926 l 490 926 l 476 851 l 310 842 l 261 842 l 92 851 m 154 0 l 168 74 l 361 85 l 406 85 l 597 74 l 583 0 l 154 0 m 368 347 l 171 926 l 335 926 l 483 436 l 481 436 l 543 550 l 785 926 l 875 926 l 489 347 l 368 347 m 289 0 l 369 432 l 518 432 q 492 288 506 360 q 467 144 479 215 q 442 0 454 72 l 289 0 m 615 851 l 629 926 l 943 926 l 931 851 l 799 842 l 757 842 l 615 851 m 346 1018 q 415 1151 374 1107 q 511 1196 456 1196 q 567 1184 544 1196 q 608 1153 589 1172 q 647 1118 629 1136 q 692 1100 665 1100 q 744 1122 721 1100 q 788 1194 767 1144 l 836 1175 q 767 1044 808 1089 q 672 999 726 999 q 616 1010 639 999 q 574 1039 593 1022 q 534 1076 553 1058 q 489 1094 515 1094 q 438 1072 461 1094 q 394 1000 415 1050 l 346 1018 z "},"Ź":{"ha":783,"x_min":1,"x_max":828,"o":"m 1 0 l 15 67 l 664 882 l 636 815 l 639 857 l 438 849 l 214 849 l 294 897 l 204 671 l 115 671 l 165 926 l 828 926 l 815 858 l 164 44 l 190 108 l 189 69 l 408 76 l 640 76 l 558 29 l 651 256 l 740 256 l 686 0 l 1 0 m 396 1033 q 474 1099 435 1067 q 553 1163 513 1131 q 607 1203 586 1190 q 653 1215 628 1215 q 696 1200 679 1215 q 713 1160 713 1185 q 697 1118 713 1136 q 639 1081 681 1100 q 531 1033 585 1057 q 425 985 478 1010 l 396 1033 z "},"Ž":{"ha":783,"x_min":1,"x_max":828,"o":"m 1 0 l 15 67 l 664 882 l 636 815 l 639 857 l 438 849 l 214 849 l 294 897 l 204 671 l 115 671 l 165 926 l 828 926 l 815 858 l 164 44 l 190 108 l 189 69 l 408 76 l 640 76 l 558 29 l 651 256 l 740 256 l 686 0 l 1 0 m 365 1222 l 549 1067 l 474 1067 l 718 1222 l 751 1181 l 543 999 l 468 999 l 319 1188 l 365 1222 z "},"Ż":{"ha":783,"x_min":1,"x_max":828,"o":"m 1 0 l 15 67 l 664 882 l 636 815 l 639 857 l 438 849 l 214 849 l 294 897 l 204 671 l 115 671 l 165 926 l 828 926 l 815 858 l 164 44 l 190 108 l 189 69 l 408 76 l 640 76 l 558 29 l 651 256 l 740 256 l 686 0 l 1 0 m 515 1007 q 456 1030 479 1007 q 433 1090 433 1053 q 461 1160 433 1129 q 529 1190 489 1190 q 590 1167 567 1190 q 613 1108 613 1144 q 585 1038 613 1068 q 515 1007 557 1007 z "},"Ẓ":{"ha":783,"x_min":1,"x_max":828,"o":"m 1 0 l 15 67 l 664 882 l 636 815 l 639 857 l 438 849 l 214 849 l 294 897 l 204 671 l 115 671 l 165 926 l 828 926 l 815 858 l 164 44 l 190 108 l 189 69 l 408 76 l 640 76 l 558 29 l 651 256 l 740 256 l 686 0 l 1 0 z "},"Ð":{"ha":982,"x_min":4,"x_max":958,"o":"m 560 439 l 69 439 l 81 511 l 572 511 l 560 439 m 4 0 l 18 74 l 181 85 l 199 85 l 192 0 l 4 0 m 122 0 l 214 499 q 252 713 233 606 q 289 926 271 819 l 442 926 l 350 429 q 311 215 331 322 q 274 0 292 107 l 122 0 m 151 851 l 164 926 l 347 926 l 340 842 l 318 842 l 151 851 m 208 0 l 214 76 l 407 76 q 577 117 504 76 q 699 224 650 157 q 774 374 749 290 q 799 543 799 457 q 724 772 799 696 q 503 849 649 849 l 360 849 l 367 926 l 542 926 q 765 881 671 926 q 908 749 858 835 q 958 540 958 664 q 917 324 958 422 q 803 152 876 225 q 627 40 729 79 q 403 0 525 0 l 208 0 z "},"Þ":{"ha":807,"x_min":4,"x_max":806,"o":"m 246 210 l 253 283 l 399 283 q 541 310 485 283 q 625 388 597 338 q 653 503 653 438 q 605 623 653 582 q 460 664 557 664 l 342 664 l 349 740 l 471 740 q 656 712 582 740 q 768 631 731 683 q 806 504 806 578 q 758 353 806 421 q 619 248 711 286 q 394 210 526 210 l 246 210 m 4 0 l 18 74 l 194 85 l 238 82 l 413 71 l 399 0 l 4 0 m 122 0 l 214 499 q 252 713 233 606 q 289 926 271 819 l 442 926 l 350 429 q 311 215 331 322 q 274 0 292 107 l 122 0 m 151 851 l 164 926 l 558 926 l 544 854 l 371 844 l 328 842 l 151 851 z "},"Ŋ":{"ha":1032,"x_min":-3,"x_max":1097,"o":"m -3 0 l 11 74 l 156 85 l 188 85 l 354 74 l 342 0 l -3 0 m 113 0 l 283 913 l 354 913 l 276 431 l 199 0 l 113 0 m 522 -189 q 442 -170 476 -189 q 397 -111 407 -151 q 434 -58 408 -72 q 494 -43 460 -43 q 553 -56 526 -43 q 601 -96 579 -69 l 635 -131 l 614 -128 l 625 -128 l 611 -126 q 683 -57 653 -94 q 735 37 713 -19 q 774 181 757 93 l 824 506 l 896 926 l 979 926 l 861 261 q 834 126 849 182 q 803 30 819 71 q 765 -42 786 -11 q 718 -100 744 -72 q 627 -167 675 -144 q 522 -189 579 -189 m 704 0 l 326 789 l 303 794 l 293 844 l 147 851 l 161 926 l 429 926 l 778 182 l 822 182 l 765 0 l 704 0 m 911 842 l 739 851 l 753 926 l 1097 926 l 1085 851 l 943 842 l 911 842 z "},"Ə":{"ha":874,"x_min":65,"x_max":856,"o":"m 369 -22 q 208 15 276 -22 q 102 126 139 53 q 65 307 65 200 q 76 419 65 367 q 100 515 88 471 l 758 515 l 751 439 l 229 439 q 215 371 221 408 q 208 282 208 333 q 232 153 208 203 q 296 81 256 104 q 388 57 336 57 q 486 84 439 57 q 573 160 533 111 q 640 276 613 208 q 684 425 668 343 q 700 597 700 507 q 673 743 700 688 q 597 825 646 799 q 485 851 549 851 q 361 826 418 851 q 257 763 304 801 l 214 814 q 293 881 247 851 q 395 930 339 911 q 518 949 451 949 q 699 905 624 949 q 815 779 775 861 q 856 581 856 697 q 832 395 856 485 q 765 230 808 306 q 662 97 722 154 q 528 9 601 40 q 369 -22 454 -22 z "},"à":{"ha":789,"x_min":50,"x_max":783,"o":"m 200 -18 q 126 -1 160 -18 q 71 57 92 17 q 50 163 50 97 q 78 318 50 240 q 153 465 106 396 q 258 588 200 533 q 380 672 317 642 q 503 703 443 703 q 561 691 538 703 q 605 657 585 679 q 646 603 625 635 l 592 551 q 533 597 564 581 q 464 613 501 613 q 406 599 435 613 q 349 564 376 586 q 297 511 321 542 q 244 428 267 475 q 208 328 221 381 q 196 222 196 275 q 215 124 196 156 q 275 93 235 93 q 333 108 301 93 q 405 160 364 122 q 503 264 446 197 l 506 186 l 475 186 q 390 79 435 125 q 297 8 344 33 q 200 -18 250 -18 m 554 -18 q 478 8 506 -18 q 451 88 451 33 q 453 123 451 107 q 459 155 456 139 q 465 185 463 171 l 454 188 l 554 633 l 575 636 l 665 721 l 714 715 l 600 214 q 588 160 593 182 q 583 124 583 139 q 592 97 583 107 q 619 86 601 86 q 672 110 644 86 q 738 192 700 135 l 783 160 q 720 69 756 110 q 643 6 685 29 q 554 -18 601 -18 m 546 786 l 494 758 q 451 817 472 789 q 408 872 429 844 q 365 931 388 900 q 334 975 344 957 q 324 1015 324 993 q 342 1059 324 1043 q 388 1075 361 1075 q 438 1056 419 1075 q 471 999 457 1038 q 497 927 485 961 q 521 858 508 893 q 546 786 533 822 z "},"á":{"ha":789,"x_min":50,"x_max":783,"o":"m 200 -18 q 126 -1 160 -18 q 71 57 92 17 q 50 163 50 97 q 78 318 50 240 q 153 465 106 396 q 258 588 200 533 q 380 672 317 642 q 503 703 443 703 q 561 691 538 703 q 605 657 585 679 q 646 603 625 635 l 592 551 q 533 597 564 581 q 464 613 501 613 q 406 599 435 613 q 349 564 376 586 q 297 511 321 542 q 244 428 267 475 q 208 328 221 381 q 196 222 196 275 q 215 124 196 156 q 275 93 235 93 q 333 108 301 93 q 405 160 364 122 q 503 264 446 197 l 506 186 l 475 186 q 390 79 435 125 q 297 8 344 33 q 200 -18 250 -18 m 554 -18 q 478 8 506 -18 q 451 88 451 33 q 453 123 451 107 q 459 155 456 139 q 465 185 463 171 l 454 188 l 554 633 l 575 636 l 665 721 l 714 715 l 600 214 q 588 160 593 182 q 583 124 583 139 q 592 97 583 107 q 619 86 601 86 q 672 110 644 86 q 738 192 700 135 l 783 160 q 720 69 756 110 q 643 6 685 29 q 554 -18 601 -18 m 493 786 q 524 858 508 822 q 555 928 539 893 q 586 999 571 964 q 611 1042 599 1025 q 638 1067 624 1060 q 669 1075 653 1075 q 714 1060 696 1075 q 732 1019 732 1044 q 722 979 732 999 q 690 932 713 960 q 640 874 665 903 q 591 815 615 844 q 543 757 567 786 l 493 786 z "},"â":{"ha":789,"x_min":50,"x_max":783,"o":"m 200 -18 q 126 -1 160 -18 q 71 57 92 17 q 50 163 50 97 q 78 318 50 240 q 153 465 106 396 q 258 588 200 533 q 380 672 317 642 q 503 703 443 703 q 561 691 538 703 q 605 657 585 679 q 646 603 625 635 l 592 551 q 533 597 564 581 q 464 613 501 613 q 406 599 435 613 q 349 564 376 586 q 297 511 321 542 q 244 428 267 475 q 208 328 221 381 q 196 222 196 275 q 215 124 196 156 q 275 93 235 93 q 333 108 301 93 q 405 160 364 122 q 503 264 446 197 l 506 186 l 475 186 q 390 79 435 125 q 297 8 344 33 q 200 -18 250 -18 m 554 -18 q 478 8 506 -18 q 451 88 451 33 q 453 123 451 107 q 459 155 456 139 q 465 185 463 171 l 454 188 l 554 633 l 575 636 l 665 721 l 714 715 l 600 214 q 588 160 593 182 q 583 124 583 139 q 592 97 583 107 q 619 86 601 86 q 672 110 644 86 q 738 192 700 135 l 783 160 q 720 69 756 110 q 643 6 685 29 q 554 -18 601 -18 m 700 774 l 522 975 l 600 975 l 360 774 l 324 814 l 542 1054 l 607 1054 l 746 810 l 700 774 z "},"ã":{"ha":789,"x_min":50,"x_max":794,"o":"m 200 -18 q 126 -1 160 -18 q 71 57 92 17 q 50 163 50 97 q 78 318 50 240 q 153 465 106 396 q 258 588 200 533 q 380 672 317 642 q 503 703 443 703 q 561 691 538 703 q 605 657 585 679 q 646 603 625 635 l 592 551 q 533 597 564 581 q 464 613 501 613 q 406 599 435 613 q 349 564 376 586 q 297 511 321 542 q 244 428 267 475 q 208 328 221 381 q 196 222 196 275 q 215 124 196 156 q 275 93 235 93 q 333 108 301 93 q 405 160 364 122 q 503 264 446 197 l 506 186 l 475 186 q 390 79 435 125 q 297 8 344 33 q 200 -18 250 -18 m 554 -18 q 478 8 506 -18 q 451 88 451 33 q 453 123 451 107 q 459 155 456 139 q 465 185 463 171 l 454 188 l 554 633 l 575 636 l 665 721 l 714 715 l 600 214 q 588 160 593 182 q 583 124 583 139 q 592 97 583 107 q 619 86 601 86 q 672 110 644 86 q 738 192 700 135 l 783 160 q 720 69 756 110 q 643 6 685 29 q 554 -18 601 -18 m 304 826 q 373 967 332 921 q 474 1014 414 1014 q 528 1001 506 1014 q 567 968 550 988 q 607 927 589 946 q 650 908 625 908 q 697 932 678 908 q 740 1011 717 956 l 794 994 q 727 853 767 900 q 629 807 688 807 q 572 821 594 807 q 532 853 550 835 q 492 894 511 875 q 449 913 474 913 q 401 889 421 913 q 358 811 382 865 l 304 826 z "},"ä":{"ha":789,"x_min":50,"x_max":783,"o":"m 200 -18 q 126 -1 160 -18 q 71 57 92 17 q 50 163 50 97 q 78 318 50 240 q 153 465 106 396 q 258 588 200 533 q 380 672 317 642 q 503 703 443 703 q 561 691 538 703 q 605 657 585 679 q 646 603 625 635 l 592 551 q 533 597 564 581 q 464 613 501 613 q 406 599 435 613 q 349 564 376 586 q 297 511 321 542 q 244 428 267 475 q 208 328 221 381 q 196 222 196 275 q 215 124 196 156 q 275 93 235 93 q 333 108 301 93 q 405 160 364 122 q 503 264 446 197 l 506 186 l 475 186 q 390 79 435 125 q 297 8 344 33 q 200 -18 250 -18 m 554 -18 q 478 8 506 -18 q 451 88 451 33 q 453 123 451 107 q 459 155 456 139 q 465 185 463 171 l 454 188 l 554 633 l 575 636 l 665 721 l 714 715 l 600 214 q 588 160 593 182 q 583 124 583 139 q 592 97 583 107 q 619 86 601 86 q 672 110 644 86 q 738 192 700 135 l 783 160 q 720 69 756 110 q 643 6 685 29 q 554 -18 601 -18 m 404 860 q 352 880 374 860 q 331 932 331 900 q 356 997 331 969 q 419 1024 382 1024 q 473 1003 453 1024 q 493 953 493 983 q 468 887 493 914 q 404 860 443 860 m 685 860 q 634 880 656 860 q 613 932 613 900 q 638 997 613 969 q 700 1024 664 1024 q 753 1003 733 1024 q 774 953 774 983 q 748 887 774 914 q 685 860 722 860 z "},"ā":{"ha":789,"x_min":50,"x_max":783,"o":"m 200 -18 q 126 -1 160 -18 q 71 57 92 17 q 50 163 50 97 q 78 318 50 240 q 153 465 106 396 q 258 588 200 533 q 380 672 317 642 q 503 703 443 703 q 561 691 538 703 q 605 657 585 679 q 646 603 625 635 l 592 551 q 533 597 564 581 q 464 613 501 613 q 406 599 435 613 q 349 564 376 586 q 297 511 321 542 q 244 428 267 475 q 208 328 221 381 q 196 222 196 275 q 215 124 196 156 q 275 93 235 93 q 333 108 301 93 q 405 160 364 122 q 503 264 446 197 l 506 186 l 475 186 q 390 79 435 125 q 297 8 344 33 q 200 -18 250 -18 m 554 -18 q 478 8 506 -18 q 451 88 451 33 q 453 123 451 107 q 459 155 456 139 q 465 185 463 171 l 454 188 l 554 633 l 575 636 l 665 721 l 714 715 l 600 214 q 588 160 593 182 q 583 124 583 139 q 592 97 583 107 q 619 86 601 86 q 672 110 644 86 q 738 192 700 135 l 783 160 q 720 69 756 110 q 643 6 685 29 q 554 -18 601 -18 m 371 861 l 390 953 l 728 953 l 708 861 l 371 861 z "},"ă":{"ha":789,"x_min":50,"x_max":783,"o":"m 200 -18 q 126 -1 160 -18 q 71 57 92 17 q 50 163 50 97 q 78 318 50 240 q 153 465 106 396 q 258 588 200 533 q 380 672 317 642 q 503 703 443 703 q 561 691 538 703 q 605 657 585 679 q 646 603 625 635 l 592 551 q 533 597 564 581 q 464 613 501 613 q 406 599 435 613 q 349 564 376 586 q 297 511 321 542 q 244 428 267 475 q 208 328 221 381 q 196 222 196 275 q 215 124 196 156 q 275 93 235 93 q 333 108 301 93 q 405 160 364 122 q 503 264 446 197 l 506 186 l 475 186 q 390 79 435 125 q 297 8 344 33 q 200 -18 250 -18 m 554 -18 q 478 8 506 -18 q 451 88 451 33 q 453 123 451 107 q 459 155 456 139 q 465 185 463 171 l 454 188 l 554 633 l 575 636 l 665 721 l 714 715 l 600 214 q 588 160 593 182 q 583 124 583 139 q 592 97 583 107 q 619 86 601 86 q 672 110 644 86 q 738 192 700 135 l 783 160 q 720 69 756 110 q 643 6 685 29 q 554 -18 601 -18 m 528 807 q 419 836 460 807 q 360 913 379 865 q 335 1013 340 960 l 393 1032 q 444 943 411 981 q 540 906 476 906 q 649 940 606 906 q 719 1032 692 975 l 774 1015 q 727 917 758 965 q 647 838 696 869 q 528 807 599 807 z "},"ắ":{"ha":789,"x_min":50,"x_max":783,"o":"m 200 -18 q 126 -1 160 -18 q 71 57 92 17 q 50 163 50 97 q 78 318 50 240 q 153 465 106 396 q 258 588 200 533 q 380 672 317 642 q 503 703 443 703 q 561 691 538 703 q 605 657 585 679 q 646 603 625 635 l 592 551 q 533 597 564 581 q 464 613 501 613 q 406 599 435 613 q 349 564 376 586 q 297 511 321 542 q 244 428 267 475 q 208 328 221 381 q 196 222 196 275 q 215 124 196 156 q 275 93 235 93 q 333 108 301 93 q 405 160 364 122 q 503 264 446 197 l 506 186 l 475 186 q 390 79 435 125 q 297 8 344 33 q 200 -18 250 -18 m 554 -18 q 478 8 506 -18 q 451 88 451 33 q 453 123 451 107 q 459 155 456 139 q 465 185 463 171 l 454 188 l 554 633 l 575 636 l 665 721 l 714 715 l 600 214 q 588 160 593 182 q 583 124 583 139 q 592 97 583 107 q 619 86 601 86 q 672 110 644 86 q 738 192 700 135 l 783 160 q 720 69 756 110 q 643 6 685 29 q 554 -18 601 -18 m 522 796 q 422 821 463 796 q 361 887 382 846 q 335 974 340 928 l 393 993 q 440 920 408 950 q 531 890 472 890 q 628 917 590 890 q 689 993 665 944 l 743 974 q 703 889 731 931 q 633 822 676 847 q 522 796 589 796 m 533 942 l 486 976 l 557 1108 q 581 1147 569 1132 q 607 1168 593 1161 q 636 1175 621 1175 q 676 1161 658 1175 q 693 1122 693 1147 q 683 1083 693 1100 q 650 1044 672 1067 l 533 942 z "},"ặ":{"ha":789,"x_min":50,"x_max":783,"o":"m 200 -18 q 126 -1 160 -18 q 71 57 92 17 q 50 163 50 97 q 78 318 50 240 q 153 465 106 396 q 258 588 200 533 q 380 672 317 642 q 503 703 443 703 q 561 691 538 703 q 605 657 585 679 q 646 603 625 635 l 592 551 q 533 597 564 581 q 464 613 501 613 q 406 599 435 613 q 349 564 376 586 q 297 511 321 542 q 244 428 267 475 q 208 328 221 381 q 196 222 196 275 q 215 124 196 156 q 275 93 235 93 q 333 108 301 93 q 405 160 364 122 q 503 264 446 197 l 506 186 l 475 186 q 390 79 435 125 q 297 8 344 33 q 200 -18 250 -18 m 554 -18 q 478 8 506 -18 q 451 88 451 33 q 453 123 451 107 q 459 155 456 139 q 465 185 463 171 l 454 188 l 554 633 l 575 636 l 665 721 l 714 715 l 600 214 q 588 160 593 182 q 583 124 583 139 q 592 97 583 107 q 619 86 601 86 q 672 110 644 86 q 738 192 700 135 l 783 160 q 720 69 756 110 q 643 6 685 29 q 554 -18 601 -18 m 528 807 q 419 836 460 807 q 360 913 379 865 q 335 1013 340 960 l 393 1032 q 444 943 411 981 q 540 906 476 906 q 649 940 606 906 q 719 1032 692 975 l 774 1015 q 727 917 758 965 q 647 838 696 869 q 528 807 599 807 z "},"ằ":{"ha":789,"x_min":50,"x_max":783,"o":"m 200 -18 q 126 -1 160 -18 q 71 57 92 17 q 50 163 50 97 q 78 318 50 240 q 153 465 106 396 q 258 588 200 533 q 380 672 317 642 q 503 703 443 703 q 561 691 538 703 q 605 657 585 679 q 646 603 625 635 l 592 551 q 533 597 564 581 q 464 613 501 613 q 406 599 435 613 q 349 564 376 586 q 297 511 321 542 q 244 428 267 475 q 208 328 221 381 q 196 222 196 275 q 215 124 196 156 q 275 93 235 93 q 333 108 301 93 q 405 160 364 122 q 503 264 446 197 l 506 186 l 475 186 q 390 79 435 125 q 297 8 344 33 q 200 -18 250 -18 m 554 -18 q 478 8 506 -18 q 451 88 451 33 q 453 123 451 107 q 459 155 456 139 q 465 185 463 171 l 454 188 l 554 633 l 575 636 l 665 721 l 714 715 l 600 214 q 588 160 593 182 q 583 124 583 139 q 592 97 583 107 q 619 86 601 86 q 672 110 644 86 q 738 192 700 135 l 783 160 q 720 69 756 110 q 643 6 685 29 q 554 -18 601 -18 m 522 796 q 422 821 463 796 q 361 887 382 846 q 335 974 340 928 l 393 993 q 441 920 408 950 q 531 890 474 890 q 628 917 590 890 q 689 993 665 944 l 743 974 q 703 889 731 931 q 633 822 676 847 q 522 796 589 796 m 549 942 l 451 1035 q 413 1077 425 1060 q 401 1118 401 1094 q 420 1160 401 1144 q 461 1175 439 1175 q 505 1160 486 1175 q 539 1111 524 1144 l 601 979 l 549 942 z "},"ẳ":{"ha":789,"x_min":50,"x_max":783,"o":"m 200 -18 q 126 -1 160 -18 q 71 57 92 17 q 50 163 50 97 q 78 318 50 240 q 153 465 106 396 q 258 588 200 533 q 380 672 317 642 q 503 703 443 703 q 561 691 538 703 q 605 657 585 679 q 646 603 625 635 l 592 551 q 533 597 564 581 q 464 613 501 613 q 406 599 435 613 q 349 564 376 586 q 297 511 321 542 q 244 428 267 475 q 208 328 221 381 q 196 222 196 275 q 215 124 196 156 q 275 93 235 93 q 333 108 301 93 q 405 160 364 122 q 503 264 446 197 l 506 186 l 475 186 q 390 79 435 125 q 297 8 344 33 q 200 -18 250 -18 m 554 -18 q 478 8 506 -18 q 451 88 451 33 q 453 123 451 107 q 459 155 456 139 q 465 185 463 171 l 454 188 l 554 633 l 575 636 l 665 721 l 714 715 l 600 214 q 588 160 593 182 q 583 124 583 139 q 592 97 583 107 q 619 86 601 86 q 672 110 644 86 q 738 192 700 135 l 783 160 q 720 69 756 110 q 643 6 685 29 q 554 -18 601 -18 m 522 796 q 422 821 463 796 q 361 887 382 846 q 335 974 340 928 l 393 993 q 440 920 408 950 q 531 890 472 890 q 627 917 590 890 q 689 993 664 944 l 743 974 q 703 889 731 931 q 632 822 676 847 q 522 796 588 796 m 507 961 l 497 1011 q 556 1029 538 1018 q 575 1060 575 1040 q 549 1090 575 1081 q 467 1106 524 1100 l 493 1207 q 583 1188 547 1203 q 638 1148 619 1172 q 657 1088 657 1124 q 615 1001 657 1032 q 507 961 574 971 z "},"ẵ":{"ha":789,"x_min":50,"x_max":783,"o":"m 200 -18 q 126 -1 160 -18 q 71 57 92 17 q 50 163 50 97 q 78 318 50 240 q 153 465 106 396 q 258 588 200 533 q 380 672 317 642 q 503 703 443 703 q 561 691 538 703 q 605 657 585 679 q 646 603 625 635 l 592 551 q 533 597 564 581 q 464 613 501 613 q 406 599 435 613 q 349 564 376 586 q 297 511 321 542 q 244 428 267 475 q 208 328 221 381 q 196 222 196 275 q 215 124 196 156 q 275 93 235 93 q 333 108 301 93 q 405 160 364 122 q 503 264 446 197 l 506 186 l 475 186 q 390 79 435 125 q 297 8 344 33 q 200 -18 250 -18 m 554 -18 q 478 8 506 -18 q 451 88 451 33 q 453 123 451 107 q 459 155 456 139 q 465 185 463 171 l 454 188 l 554 633 l 575 636 l 665 721 l 714 715 l 600 214 q 588 160 593 182 q 583 124 583 139 q 592 97 583 107 q 619 86 601 86 q 672 110 644 86 q 738 192 700 135 l 783 160 q 720 69 756 110 q 643 6 685 29 q 554 -18 601 -18 m 522 796 q 422 821 463 796 q 361 887 382 846 q 335 974 340 928 l 393 993 q 441 920 408 950 q 531 890 474 890 q 628 917 590 890 q 689 993 665 944 l 743 974 q 703 889 731 931 q 633 822 676 847 q 522 796 589 796 m 376 1021 l 329 1038 q 377 1138 343 1100 q 465 1175 411 1175 q 519 1166 497 1175 q 565 1143 540 1157 q 609 1119 590 1128 q 650 1111 628 1111 q 696 1128 676 1111 q 728 1175 715 1144 l 776 1158 q 729 1058 763 1096 q 642 1021 696 1021 q 589 1030 613 1021 q 542 1053 565 1039 q 498 1076 517 1068 q 456 1085 479 1085 q 409 1068 428 1085 q 376 1021 390 1051 z "},"ǎ":{"ha":789,"x_min":50,"x_max":783,"o":"m 200 -18 q 126 -1 160 -18 q 71 57 92 17 q 50 163 50 97 q 78 318 50 240 q 153 465 106 396 q 258 588 200 533 q 380 672 317 642 q 503 703 443 703 q 561 691 538 703 q 605 657 585 679 q 646 603 625 635 l 592 551 q 533 597 564 581 q 464 613 501 613 q 406 599 435 613 q 349 564 376 586 q 297 511 321 542 q 244 428 267 475 q 208 328 221 381 q 196 222 196 275 q 215 124 196 156 q 275 93 235 93 q 333 108 301 93 q 405 160 364 122 q 503 264 446 197 l 506 186 l 475 186 q 390 79 435 125 q 297 8 344 33 q 200 -18 250 -18 m 554 -18 q 478 8 506 -18 q 451 88 451 33 q 453 123 451 107 q 459 155 456 139 q 465 185 463 171 l 454 188 l 554 633 l 575 636 l 665 721 l 714 715 l 600 214 q 588 160 593 182 q 583 124 583 139 q 592 97 583 107 q 619 86 601 86 q 672 110 644 86 q 738 192 700 135 l 783 160 q 720 69 756 110 q 643 6 685 29 q 554 -18 601 -18 m 411 1064 l 569 871 l 501 871 l 740 1064 l 779 1025 l 557 782 l 493 782 l 361 1032 l 411 1064 z "},"ấ":{"ha":789,"x_min":50,"x_max":892,"o":"m 200 -18 q 126 -1 160 -18 q 71 57 92 17 q 50 163 50 97 q 78 318 50 240 q 153 465 106 396 q 258 588 200 533 q 380 672 317 642 q 503 703 443 703 q 561 691 538 703 q 605 657 585 679 q 646 603 625 635 l 592 551 q 533 597 564 581 q 464 613 501 613 q 406 599 435 613 q 349 564 376 586 q 297 511 321 542 q 244 428 267 475 q 208 328 221 381 q 196 222 196 275 q 215 124 196 156 q 275 93 235 93 q 333 108 301 93 q 405 160 364 122 q 503 264 446 197 l 506 186 l 475 186 q 390 79 435 125 q 297 8 344 33 q 200 -18 250 -18 m 554 -18 q 478 8 506 -18 q 451 88 451 33 q 453 123 451 107 q 459 155 456 139 q 465 185 463 171 l 454 188 l 554 633 l 575 636 l 665 721 l 714 715 l 600 214 q 588 160 593 182 q 583 124 583 139 q 592 97 583 107 q 619 86 601 86 q 672 110 644 86 q 738 192 700 135 l 783 160 q 720 69 756 110 q 643 6 685 29 q 554 -18 601 -18 m 358 767 l 324 810 l 525 1007 l 590 1007 l 740 806 l 696 767 l 506 938 l 593 938 l 358 767 m 717 919 l 679 961 l 754 1065 q 799 1113 781 1100 q 838 1126 817 1126 q 876 1113 861 1126 q 892 1074 892 1099 q 877 1034 892 1051 q 831 996 863 1017 l 717 919 z "},"ậ":{"ha":789,"x_min":50,"x_max":783,"o":"m 200 -18 q 126 -1 160 -18 q 71 57 92 17 q 50 163 50 97 q 78 318 50 240 q 153 465 106 396 q 258 588 200 533 q 380 672 317 642 q 503 703 443 703 q 561 691 538 703 q 605 657 585 679 q 646 603 625 635 l 592 551 q 533 597 564 581 q 464 613 501 613 q 406 599 435 613 q 349 564 376 586 q 297 511 321 542 q 244 428 267 475 q 208 328 221 381 q 196 222 196 275 q 215 124 196 156 q 275 93 235 93 q 333 108 301 93 q 405 160 364 122 q 503 264 446 197 l 506 186 l 475 186 q 390 79 435 125 q 297 8 344 33 q 200 -18 250 -18 m 554 -18 q 478 8 506 -18 q 451 88 451 33 q 453 123 451 107 q 459 155 456 139 q 465 185 463 171 l 454 188 l 554 633 l 575 636 l 665 721 l 714 715 l 600 214 q 588 160 593 182 q 583 124 583 139 q 592 97 583 107 q 619 86 601 86 q 672 110 644 86 q 738 192 700 135 l 783 160 q 720 69 756 110 q 643 6 685 29 q 554 -18 601 -18 m 700 774 l 522 975 l 600 975 l 360 774 l 324 814 l 542 1054 l 607 1054 l 746 810 l 700 774 z "},"ầ":{"ha":789,"x_min":50,"x_max":783,"o":"m 200 -18 q 126 -1 160 -18 q 71 57 92 17 q 50 163 50 97 q 78 318 50 240 q 153 465 106 396 q 258 588 200 533 q 380 672 317 642 q 503 703 443 703 q 561 691 538 703 q 605 657 585 679 q 646 603 625 635 l 592 551 q 533 597 564 581 q 464 613 501 613 q 406 599 435 613 q 349 564 376 586 q 297 511 321 542 q 244 428 267 475 q 208 328 221 381 q 196 222 196 275 q 215 124 196 156 q 275 93 235 93 q 333 108 301 93 q 405 160 364 122 q 503 264 446 197 l 506 186 l 475 186 q 390 79 435 125 q 297 8 344 33 q 200 -18 250 -18 m 554 -18 q 478 8 506 -18 q 451 88 451 33 q 453 123 451 107 q 459 155 456 139 q 465 185 463 171 l 454 188 l 554 633 l 575 636 l 665 721 l 714 715 l 600 214 q 588 160 593 182 q 583 124 583 139 q 592 97 583 107 q 619 86 601 86 q 672 110 644 86 q 738 192 700 135 l 783 160 q 720 69 756 110 q 643 6 685 29 q 554 -18 601 -18 m 358 767 l 324 810 l 525 1007 l 590 1007 l 740 806 l 696 767 l 506 938 l 593 938 l 358 767 m 374 919 l 261 996 q 217 1032 233 1014 q 201 1072 201 1050 q 217 1112 201 1097 q 256 1126 233 1126 q 299 1113 281 1126 q 340 1065 318 1099 l 417 960 l 374 919 z "},"ẩ":{"ha":789,"x_min":50,"x_max":853,"o":"m 200 -18 q 126 -1 160 -18 q 71 57 92 17 q 50 163 50 97 q 78 318 50 240 q 153 465 106 396 q 258 588 200 533 q 380 672 317 642 q 503 703 443 703 q 561 691 538 703 q 605 657 585 679 q 646 603 625 635 l 592 551 q 533 597 564 581 q 464 613 501 613 q 406 599 435 613 q 349 564 376 586 q 297 511 321 542 q 244 428 267 475 q 208 328 221 381 q 196 222 196 275 q 215 124 196 156 q 275 93 235 93 q 333 108 301 93 q 405 160 364 122 q 503 264 446 197 l 506 186 l 475 186 q 390 79 435 125 q 297 8 344 33 q 200 -18 250 -18 m 554 -18 q 478 8 506 -18 q 451 88 451 33 q 453 123 451 107 q 459 155 456 139 q 465 185 463 171 l 454 188 l 554 633 l 575 636 l 665 721 l 714 715 l 600 214 q 588 160 593 182 q 583 124 583 139 q 592 97 583 107 q 619 86 601 86 q 672 110 644 86 q 738 192 700 135 l 783 160 q 720 69 756 110 q 643 6 685 29 q 554 -18 601 -18 m 358 767 l 324 810 l 525 1007 l 590 1007 l 740 806 l 696 767 l 506 938 l 593 938 l 358 767 m 706 899 l 696 950 q 753 972 735 957 q 772 1010 772 988 q 763 1038 772 1026 q 731 1055 753 1049 q 669 1067 708 1061 l 696 1171 q 782 1149 747 1165 q 835 1104 817 1132 q 853 1036 853 1076 q 834 969 853 997 q 782 923 815 940 q 706 899 749 906 z "},"ẫ":{"ha":789,"x_min":50,"x_max":796,"o":"m 200 -18 q 126 -1 160 -18 q 71 57 92 17 q 50 163 50 97 q 78 318 50 240 q 153 465 106 396 q 258 588 200 533 q 380 672 317 642 q 503 703 443 703 q 561 691 538 703 q 605 657 585 679 q 646 603 625 635 l 592 551 q 533 597 564 581 q 464 613 501 613 q 406 599 435 613 q 349 564 376 586 q 297 511 321 542 q 244 428 267 475 q 208 328 221 381 q 196 222 196 275 q 215 124 196 156 q 275 93 235 93 q 333 108 301 93 q 405 160 364 122 q 503 264 446 197 l 506 186 l 475 186 q 390 79 435 125 q 297 8 344 33 q 200 -18 250 -18 m 554 -18 q 478 8 506 -18 q 451 88 451 33 q 453 123 451 107 q 459 155 456 139 q 465 185 463 171 l 454 188 l 554 633 l 575 636 l 665 721 l 714 715 l 600 214 q 588 160 593 182 q 583 124 583 139 q 592 97 583 107 q 619 86 601 86 q 672 110 644 86 q 738 192 700 135 l 783 160 q 720 69 756 110 q 643 6 685 29 q 554 -18 601 -18 m 358 767 l 324 810 l 524 989 l 589 989 l 740 806 l 696 767 l 504 919 l 592 919 l 358 767 m 396 1001 l 349 1019 q 396 1117 361 1081 q 485 1154 431 1154 q 539 1144 517 1154 q 585 1122 561 1135 q 628 1100 610 1108 q 669 1092 647 1092 q 716 1107 697 1092 q 749 1153 735 1122 l 796 1135 q 749 1038 782 1074 q 661 1001 715 1001 q 608 1010 631 1001 q 561 1032 585 1019 q 518 1054 538 1046 q 475 1063 499 1063 q 429 1047 449 1063 q 396 1001 410 1032 z "},"ạ":{"ha":789,"x_min":50,"x_max":783,"o":"m 200 -18 q 126 -1 160 -18 q 71 57 92 17 q 50 163 50 97 q 78 318 50 240 q 153 465 106 396 q 258 588 200 533 q 380 672 317 642 q 503 703 443 703 q 561 691 538 703 q 605 657 585 679 q 646 603 625 635 l 592 551 q 533 597 564 581 q 464 613 501 613 q 406 599 435 613 q 349 564 376 586 q 297 511 321 542 q 244 428 267 475 q 208 328 221 381 q 196 222 196 275 q 215 124 196 156 q 275 93 235 93 q 333 108 301 93 q 405 160 364 122 q 503 264 446 197 l 506 186 l 475 186 q 390 79 435 125 q 297 8 344 33 q 200 -18 250 -18 m 554 -18 q 478 8 506 -18 q 451 88 451 33 q 453 123 451 107 q 459 155 456 139 q 465 185 463 171 l 454 188 l 554 633 l 575 636 l 665 721 l 714 715 l 600 214 q 588 160 593 182 q 583 124 583 139 q 592 97 583 107 q 619 86 601 86 q 672 110 644 86 q 738 192 700 135 l 783 160 q 720 69 756 110 q 643 6 685 29 q 554 -18 601 -18 z "},"ả":{"ha":789,"x_min":50,"x_max":783,"o":"m 200 -18 q 126 -1 160 -18 q 71 57 92 17 q 50 163 50 97 q 78 318 50 240 q 153 465 106 396 q 258 588 200 533 q 380 672 317 642 q 503 703 443 703 q 561 691 538 703 q 605 657 585 679 q 646 603 625 635 l 592 551 q 533 597 564 581 q 464 613 501 613 q 406 599 435 613 q 349 564 376 586 q 297 511 321 542 q 244 428 267 475 q 208 328 221 381 q 196 222 196 275 q 215 124 196 156 q 275 93 235 93 q 333 108 301 93 q 405 160 364 122 q 503 264 446 197 l 506 186 l 475 186 q 390 79 435 125 q 297 8 344 33 q 200 -18 250 -18 m 554 -18 q 478 8 506 -18 q 451 88 451 33 q 453 123 451 107 q 459 155 456 139 q 465 185 463 171 l 454 188 l 554 633 l 575 636 l 665 721 l 714 715 l 600 214 q 588 160 593 182 q 583 124 583 139 q 592 97 583 107 q 619 86 601 86 q 672 110 644 86 q 738 192 700 135 l 783 160 q 720 69 756 110 q 643 6 685 29 q 554 -18 601 -18 m 515 779 l 504 831 q 567 854 547 838 q 586 897 586 871 q 560 941 586 926 q 472 963 533 956 l 499 1065 q 626 1022 582 1057 q 669 925 669 988 q 651 854 669 885 q 597 805 632 824 q 515 779 563 786 z "},"å":{"ha":789,"x_min":50,"x_max":783,"o":"m 200 -18 q 126 -1 160 -18 q 71 57 92 17 q 50 163 50 97 q 78 318 50 240 q 153 465 106 396 q 258 588 200 533 q 380 672 317 642 q 503 703 443 703 q 561 691 538 703 q 605 657 585 679 q 646 603 625 635 l 592 551 q 533 597 564 581 q 464 613 501 613 q 406 599 435 613 q 349 564 376 586 q 297 511 321 542 q 244 428 267 475 q 208 328 221 381 q 196 222 196 275 q 215 124 196 156 q 275 93 235 93 q 333 108 301 93 q 405 160 364 122 q 503 264 446 197 l 506 186 l 475 186 q 390 79 435 125 q 297 8 344 33 q 200 -18 250 -18 m 554 -18 q 478 8 506 -18 q 451 88 451 33 q 453 123 451 107 q 459 155 456 139 q 465 185 463 171 l 454 188 l 554 633 l 575 636 l 665 721 l 714 715 l 600 214 q 588 160 593 182 q 583 124 583 139 q 592 97 583 107 q 619 86 601 86 q 672 110 644 86 q 738 192 700 135 l 783 160 q 720 69 756 110 q 643 6 685 29 q 554 -18 601 -18 m 539 779 q 440 814 479 779 q 400 908 400 849 q 423 994 400 958 q 484 1051 446 1031 q 565 1071 522 1071 q 665 1036 624 1071 q 706 942 706 1001 q 682 855 706 892 q 621 799 658 818 q 539 779 583 779 m 544 839 q 609 867 583 839 q 635 936 635 896 q 617 989 635 967 q 561 1011 599 1011 q 495 982 519 1011 q 471 914 471 953 q 489 860 471 882 q 544 839 507 839 z "},"ą":{"ha":789,"x_min":50,"x_max":783,"o":"m 200 -18 q 126 -1 160 -18 q 71 57 92 17 q 50 163 50 97 q 78 318 50 240 q 153 465 106 396 q 258 588 200 533 q 380 672 317 642 q 503 703 443 703 q 561 691 538 703 q 605 657 585 679 q 646 603 625 635 l 592 551 q 533 597 564 581 q 464 613 501 613 q 406 599 435 613 q 349 564 376 586 q 297 511 321 542 q 244 428 267 475 q 208 328 221 381 q 196 222 196 275 q 215 124 196 156 q 275 93 235 93 q 333 108 301 93 q 405 160 364 122 q 501 264 446 197 l 510 186 l 475 186 q 390 79 435 125 q 297 8 344 33 q 200 -18 250 -18 m 586 -322 q 486 -290 522 -322 q 450 -204 450 -258 q 490 -101 450 -146 q 581 -19 529 -56 l 581 38 l 624 -1 q 583 -13 597 -10 q 554 -17 568 -17 q 478 8 506 -17 q 451 88 451 32 q 453 124 451 107 q 459 158 456 142 q 465 189 463 175 l 456 194 l 554 633 l 575 635 l 665 721 l 714 715 l 600 214 q 588 160 593 182 q 583 124 583 139 q 592 97 583 107 q 619 86 601 86 q 672 110 644 86 q 738 192 700 135 l 783 160 q 728 78 758 114 q 664 14 699 42 q 604 -44 629 -14 q 565 -107 579 -75 q 551 -172 551 -139 q 572 -230 551 -211 q 625 -249 593 -249 q 653 -245 639 -249 q 682 -236 668 -242 l 701 -283 q 650 -311 678 -300 q 586 -322 622 -322 z "},"æ":{"ha":1026,"x_min":50,"x_max":1011,"o":"m 200 -18 q 126 1 160 -18 q 71 61 92 19 q 50 168 50 103 q 77 323 50 246 q 151 468 104 400 q 255 590 197 536 q 375 673 313 643 q 497 703 438 703 q 588 681 549 703 q 658 615 626 658 l 590 549 q 528 597 561 582 q 458 613 496 613 q 401 599 429 613 q 347 564 374 586 q 297 511 321 542 q 244 428 267 475 q 208 328 221 381 q 196 222 196 275 q 215 124 196 156 q 275 93 235 93 q 329 106 301 93 q 394 153 357 119 q 483 247 432 188 l 496 163 l 461 163 q 378 66 421 107 q 292 3 336 25 q 200 -18 247 -18 m 690 -18 q 566 12 619 -18 q 483 101 513 42 q 453 249 453 161 q 485 421 453 339 q 572 567 517 503 q 697 667 626 631 q 846 703 768 703 q 968 666 925 703 q 1011 565 1011 629 q 987 481 1011 524 q 907 397 963 438 q 760 318 851 356 q 535 249 669 281 l 533 303 q 743 378 665 335 q 855 470 821 422 q 889 560 889 518 q 872 614 889 594 q 821 633 854 633 q 744 604 785 633 q 667 525 703 575 q 608 412 631 475 q 586 279 586 349 q 628 136 586 181 q 736 92 669 92 q 814 107 781 92 q 874 147 847 122 q 924 200 901 172 l 968 167 q 919 97 947 131 q 855 38 890 64 q 779 -3 819 11 q 690 -18 739 -18 z "},"ç":{"ha":622,"x_min":60,"x_max":621,"o":"m 294 -18 q 172 13 225 -18 q 90 103 119 43 q 60 250 60 163 q 92 424 60 342 q 180 569 125 506 q 303 667 235 632 q 444 703 372 703 q 532 690 496 703 q 590 653 568 676 q 621 600 613 631 q 597 551 617 571 q 544 532 578 532 q 494 549 517 532 q 450 597 472 565 l 394 672 l 468 672 l 468 650 l 424 650 q 345 603 385 638 q 272 517 306 569 q 219 403 239 465 q 200 275 200 342 q 242 136 200 181 q 350 92 283 92 q 421 107 389 92 q 480 147 453 122 q 531 201 507 172 l 574 167 q 524 97 553 131 q 458 37 494 63 q 381 -3 422 11 q 294 -18 340 -18 m 228 -121 l 285 0 l 336 0 l 283 -118 l 275 -82 q 388 -126 349 -100 q 428 -204 428 -153 q 385 -288 428 -254 q 264 -322 342 -322 q 196 -314 228 -322 q 147 -296 164 -306 l 168 -247 q 207 -260 186 -254 q 253 -267 228 -267 q 312 -249 290 -267 q 333 -201 333 -232 q 308 -150 333 -168 q 228 -121 283 -132 z "},"ć":{"ha":622,"x_min":60,"x_max":675,"o":"m 294 -18 q 172 13 225 -18 q 90 103 119 43 q 60 250 60 163 q 92 424 60 342 q 180 569 125 506 q 303 667 235 632 q 444 703 372 703 q 532 690 496 703 q 590 653 568 676 q 621 600 613 631 q 597 551 617 571 q 544 532 578 532 q 494 549 517 532 q 450 597 472 565 l 394 672 l 468 672 l 468 650 l 424 650 q 345 603 385 638 q 272 517 306 569 q 219 403 239 465 q 200 275 200 342 q 242 136 200 181 q 350 92 283 92 q 421 107 389 92 q 480 147 453 122 q 531 201 507 172 l 574 167 q 524 97 553 131 q 458 37 494 63 q 381 -3 422 11 q 294 -18 340 -18 m 436 786 q 467 858 451 822 q 498 928 482 893 q 529 999 514 964 q 554 1042 542 1025 q 581 1067 567 1060 q 613 1075 596 1075 q 657 1060 639 1075 q 675 1019 675 1044 q 665 979 675 999 q 633 932 656 960 q 583 874 608 903 q 534 815 558 844 q 486 757 510 786 l 436 786 z "},"č":{"ha":622,"x_min":60,"x_max":722,"o":"m 294 -18 q 172 13 225 -18 q 90 103 119 43 q 60 250 60 163 q 92 424 60 342 q 180 569 125 506 q 303 667 235 632 q 444 703 372 703 q 532 690 496 703 q 590 653 568 676 q 621 600 613 631 q 597 551 617 571 q 544 532 578 532 q 494 549 517 532 q 450 597 472 565 l 394 672 l 468 672 l 468 650 l 424 650 q 345 603 385 638 q 272 517 306 569 q 219 403 239 465 q 200 275 200 342 q 242 136 200 181 q 350 92 283 92 q 421 107 389 92 q 480 147 453 122 q 531 201 507 172 l 574 167 q 524 97 553 131 q 458 37 494 63 q 381 -3 422 11 q 294 -18 340 -18 m 354 1064 l 513 871 l 444 871 l 683 1064 l 722 1025 l 500 782 l 436 782 l 304 1032 l 354 1064 z "},"ĉ":{"ha":622,"x_min":60,"x_max":689,"o":"m 294 -18 q 172 13 225 -18 q 90 103 119 43 q 60 250 60 163 q 92 424 60 342 q 180 569 125 506 q 303 667 235 632 q 444 703 372 703 q 532 690 496 703 q 590 653 568 676 q 621 600 613 631 q 597 551 617 571 q 544 532 578 532 q 494 549 517 532 q 450 597 472 565 l 394 672 l 468 672 l 468 650 l 424 650 q 345 603 385 638 q 272 517 306 569 q 219 403 239 465 q 200 275 200 342 q 242 136 200 181 q 350 92 283 92 q 421 107 389 92 q 480 147 453 122 q 531 201 507 172 l 574 167 q 524 97 553 131 q 458 37 494 63 q 381 -3 422 11 q 294 -18 340 -18 m 643 774 l 465 975 l 543 975 l 303 774 l 267 814 l 485 1054 l 550 1054 l 689 810 l 643 774 z "},"ċ":{"ha":622,"x_min":60,"x_max":621,"o":"m 294 -18 q 172 13 225 -18 q 90 103 119 43 q 60 250 60 163 q 92 424 60 342 q 180 569 125 506 q 303 667 235 632 q 444 703 372 703 q 532 690 496 703 q 590 653 568 676 q 621 600 613 631 q 597 551 617 571 q 544 532 578 532 q 494 549 517 532 q 450 597 472 565 l 394 672 l 468 672 l 468 650 l 424 650 q 345 603 385 638 q 272 517 306 569 q 219 403 239 465 q 200 275 200 342 q 242 136 200 181 q 350 92 283 92 q 421 107 389 92 q 480 147 453 122 q 531 201 507 172 l 574 167 q 524 97 553 131 q 458 37 494 63 q 381 -3 422 11 q 294 -18 340 -18 m 492 856 q 433 878 457 856 q 410 938 410 900 q 438 1006 410 976 q 506 1036 465 1036 q 564 1014 542 1036 q 586 956 586 992 q 559 886 586 917 q 492 856 532 856 z "},"ď":{"ha":808,"x_min":51,"x_max":993,"o":"m 936 1029 q 980 1015 967 1029 q 993 981 993 1001 q 984 933 993 960 q 960 874 975 906 q 926 810 944 843 l 871 711 l 821 714 l 883 1019 q 908 1027 896 1025 q 936 1029 919 1029 m 199 -18 q 124 0 157 -18 q 71 59 90 18 q 51 167 51 100 q 78 321 51 244 q 151 466 106 397 q 256 588 197 535 q 377 672 314 642 q 501 703 440 703 q 555 694 532 703 q 599 666 578 685 q 643 617 619 647 l 585 550 q 528 598 557 583 q 464 613 499 613 q 401 599 432 613 q 342 563 369 586 q 292 508 315 539 q 253 449 271 482 q 222 378 235 415 q 203 301 210 340 q 196 225 196 263 q 217 125 196 157 q 276 93 238 93 q 335 108 304 93 q 406 160 365 122 q 501 264 447 197 l 511 186 l 475 186 q 391 79 436 125 q 297 8 346 33 q 199 -18 249 -18 m 558 -18 q 482 8 510 -18 q 454 86 454 35 q 457 126 454 106 q 464 175 460 146 l 454 181 l 546 619 l 560 642 l 618 929 l 651 885 l 468 904 l 479 961 l 728 1022 l 767 1008 l 603 213 q 592 158 596 179 q 589 122 589 138 q 598 96 589 106 q 624 86 607 86 q 677 110 649 86 q 742 192 706 135 l 788 160 q 726 69 761 110 q 649 6 690 29 q 558 -18 607 -18 z "},"đ":{"ha":793,"x_min":51,"x_max":860,"o":"m 199 -18 q 124 -1 157 -18 q 71 57 90 17 q 51 165 51 97 q 78 313 51 240 q 151 449 106 385 q 253 563 196 514 q 374 640 311 613 q 499 668 438 668 q 552 659 529 668 q 596 631 575 650 q 639 581 617 611 l 582 517 q 525 565 554 550 q 461 579 496 579 q 368 553 413 579 q 290 481 324 526 q 240 404 261 446 q 208 317 219 363 q 196 222 196 271 q 217 125 196 157 q 276 93 238 93 q 335 108 304 93 q 406 160 365 122 q 501 264 447 197 l 511 186 l 475 186 q 391 79 436 125 q 297 8 346 33 q 199 -18 249 -18 m 365 749 l 376 801 l 860 801 l 849 749 l 365 749 m 560 -18 q 483 9 511 -18 q 454 86 454 36 q 457 128 454 107 q 465 178 460 149 l 457 193 l 542 597 l 554 619 l 619 929 l 651 885 l 468 904 l 479 961 l 728 1022 l 767 1008 l 603 213 q 592 158 596 179 q 589 122 589 138 q 599 96 589 106 q 624 86 608 86 q 678 110 650 86 q 742 192 706 135 l 788 160 q 726 69 761 110 q 649 6 690 29 q 560 -18 607 -18 z "},"ḍ":{"ha":793,"x_min":51,"x_max":788,"o":"m 199 -18 q 124 0 157 -18 q 71 59 90 18 q 51 167 51 100 q 78 321 51 244 q 151 466 106 397 q 256 588 197 535 q 377 672 314 642 q 501 703 440 703 q 555 694 532 703 q 599 666 578 685 q 643 617 619 647 l 585 550 q 528 598 557 583 q 464 613 499 613 q 401 599 432 613 q 342 563 369 586 q 292 508 315 539 q 253 449 271 482 q 222 378 235 415 q 203 301 210 340 q 196 225 196 263 q 217 125 196 157 q 276 93 238 93 q 335 108 304 93 q 406 160 365 122 q 501 264 447 197 l 511 186 l 475 186 q 391 79 436 125 q 297 8 346 33 q 199 -18 249 -18 m 558 -18 q 482 8 510 -18 q 454 86 454 35 q 457 126 454 106 q 464 175 460 146 l 454 181 l 546 619 l 560 642 l 618 929 l 651 885 l 468 904 l 479 961 l 728 1022 l 767 1008 l 603 213 q 592 158 596 179 q 589 122 589 138 q 598 96 589 106 q 624 86 607 86 q 677 110 649 86 q 742 192 706 135 l 788 160 q 726 69 761 110 q 649 6 690 29 q 558 -18 607 -18 z "}}}
